<svg width="10" height="15" viewBox="0 0 10 15" fill="none" xmlns="http://www.w3.org/2000/svg">
<path fill-rule="evenodd" clip-rule="evenodd" d="M0.714893 9.19926C0.648485 9.20486 0.581964 9.21046 0.515894 9.21827C0.451919 9.22513 0.395935 9.2537 0.351386 9.30053C0.289691 9.36223 0.25542 9.45133 0.266848 9.54044C0.287407 9.69581 0.4325 9.80434 0.586727 9.7872C0.699825 9.77463 0.81292 9.76435 0.926021 9.75635C0.962764 9.75452 0.999514 9.75564 1.03566 9.75675C1.04447 9.75701 1.05324 9.75728 1.06197 9.7575C1.10995 9.76207 1.15793 9.76664 1.20591 9.77578C1.29388 9.7952 1.37727 9.81919 1.46181 9.84661C1.60918 9.89802 1.75199 9.96085 1.8925 10.0283C2.04102 10.1037 2.1861 10.1848 2.32662 10.275C2.54026 10.4178 2.74132 10.58 2.93667 10.7457L2.93782 10.7468C2.93932 10.7483 2.94133 10.7503 2.9435 10.7519C3.11605 10.9048 3.27311 11.0731 3.42905 11.2426C3.5867 11.4323 3.74208 11.6196 3.87803 11.8218C3.97284 11.9669 4.05852 12.1166 4.13507 12.2708C4.2516 12.5153 4.3407 12.7689 4.42981 13.0248C4.48922 13.2122 4.54862 13.3995 4.60574 13.5869C4.61318 13.6112 4.62068 13.6355 4.6282 13.6598C4.67265 13.8038 4.71744 13.9488 4.74969 14.0964C4.74813 14.1073 4.74657 14.1182 4.74538 14.1288C4.74482 14.1337 4.74434 14.1385 4.74397 14.1432C4.73483 14.2803 4.77596 14.3969 4.89934 14.47C4.98502 14.5191 5.09584 14.5179 5.18152 14.4688C5.26263 14.4243 5.30833 14.3466 5.32432 14.2575C5.33232 14.2175 5.33347 14.1775 5.33232 14.1375C5.34146 14.1101 5.34945 14.0816 5.35859 14.0541C5.4737 13.7535 5.61065 13.4617 5.74703 13.1711L5.75616 13.1516C5.85326 12.9586 5.95608 12.7712 6.07261 12.5907C6.16857 12.449 6.27367 12.3142 6.38563 12.184C6.62416 11.9156 6.88703 11.6701 7.15004 11.4244C7.20948 11.3688 7.26894 11.3133 7.32812 11.2575C7.5646 11.037 7.80222 10.8177 8.03984 10.5983C8.21578 10.4452 8.39399 10.299 8.58592 10.1688C8.67503 10.1116 8.76528 10.0602 8.85896 10.0123C8.92979 9.98027 9.00062 9.95057 9.07488 9.92429C9.12286 9.91058 9.1697 9.89802 9.21882 9.88774C9.25424 9.88202 9.29079 9.87746 9.32849 9.87403C9.33449 9.87403 9.34061 9.87391 9.34682 9.87378C9.35952 9.87353 9.37256 9.87327 9.38561 9.87403C9.41303 9.87632 9.4393 9.87975 9.46672 9.88431C9.47459 9.88589 9.48192 9.888 9.48983 9.89028C9.4934 9.89131 9.49709 9.89238 9.501 9.89345C9.52385 9.90259 9.54784 9.91287 9.56954 9.92315C9.7489 10.0088 9.9671 9.85004 9.96254 9.65811C9.96139 9.593 9.94198 9.53016 9.90199 9.47875C9.86429 9.42962 9.81288 9.3965 9.7569 9.37936C9.35134 9.20228 8.87724 9.34737 8.50824 9.5473C8.16323 9.73465 7.85592 9.98713 7.56803 10.2522C7.32127 10.4807 7.07565 10.708 6.83117 10.9388C6.78025 10.9867 6.72904 11.0345 6.67777 11.0823C6.3391 11.3982 5.99817 11.7163 5.72531 12.0903C5.6568 12.1844 5.59226 12.2808 5.53115 12.3791C5.54199 12.2763 5.55238 12.1735 5.56195 12.0709C5.5905 11.7636 5.61678 11.4563 5.63963 11.1478C5.66248 10.8028 5.68076 10.4601 5.69675 10.1151C5.72417 9.53701 5.7356 8.95666 5.74016 8.3786C5.74445 7.93496 5.74674 7.49119 5.74903 7.04738C5.75346 6.18947 5.7579 5.3314 5.77672 4.47382C5.7813 4.25732 5.78688 4.04183 5.79247 3.82634C5.79526 3.7189 5.79804 3.61147 5.80071 3.50391C5.80255 3.42646 5.80464 3.34877 5.80674 3.27093L5.80675 3.2704C5.81244 3.05909 5.81815 2.84677 5.81899 2.63568L5.81903 2.63204L5.81904 2.63029C5.82131 2.3328 5.82355 2.03755 5.82241 1.74116C5.82127 1.58923 5.82014 1.43727 5.82013 1.28648C5.82047 1.22297 5.82031 1.15938 5.82015 1.09571C5.81977 0.942889 5.81939 0.789666 5.82584 0.636443C5.82585 0.629585 5.82698 0.623885 5.82698 0.617027C5.86926 0.513067 5.84984 0.388541 5.76644 0.305143L5.76187 0.300572C5.64762 0.190901 5.47283 0.192048 5.35745 0.300576C5.35631 0.301719 5.35403 0.303999 5.35289 0.302856C5.2832 0.372541 5.26606 0.465084 5.25921 0.558763L5.25921 0.556476C5.2592 0.561046 5.25807 0.566757 5.25806 0.571328L5.25801 0.572144C5.25797 0.572572 5.25789 0.572967 5.25781 0.573361C5.25756 0.57463 5.2573 0.575895 5.25807 0.578179C5.25886 0.580564 5.25855 0.582955 5.25829 0.584956C5.25817 0.585796 5.25806 0.586654 5.25806 0.587323L5.25807 0.582753C5.24485 0.788512 5.24646 0.996607 5.24805 1.20383L5.24805 1.204L5.24822 1.2268C5.2485 1.26273 5.24876 1.29861 5.24893 1.33446C5.24893 1.42397 5.24983 1.51302 5.25074 1.60193L5.25074 1.60239C5.25186 1.71304 5.25299 1.82346 5.25235 1.93423C5.24893 2.38091 5.24435 2.82646 5.23407 3.27314C5.22916 3.50865 5.22267 3.74398 5.21617 3.97935L5.21615 3.98025C5.20606 4.34627 5.19597 4.71237 5.1918 5.07931C5.18495 5.68707 5.17809 6.29484 5.17695 6.90146L5.17636 7.07817L5.17636 7.07959C5.17436 7.67349 5.17238 8.26653 5.16096 8.85956C5.1541 9.19772 5.14497 9.53587 5.13468 9.87517C5.12826 10.0498 5.11963 10.224 5.11099 10.3982C5.10578 10.5033 5.10057 10.6084 5.09584 10.7137C5.06157 11.2027 5.02502 11.6916 4.97589 12.1771C4.95849 12.3496 4.94054 12.5215 4.9209 12.6932C4.86997 12.5451 4.81533 12.3984 4.75425 12.2548C4.61488 11.9281 4.44237 11.6162 4.22988 11.3306C4.21576 11.3112 4.20182 11.2915 4.18782 11.2716C4.15316 11.2225 4.11815 11.1728 4.07909 11.1273C4.0511 11.0935 4.02311 11.0604 3.99513 11.0273C3.96714 10.9942 3.93915 10.961 3.91116 10.9273C3.80834 10.8062 3.6998 10.6863 3.58785 10.5743C3.42905 10.4155 3.26226 10.267 3.08633 10.1276C2.91953 9.99513 2.75274 9.86489 2.5711 9.75179C2.38146 9.63298 2.18268 9.52787 1.97705 9.43648C1.80112 9.35879 1.62175 9.28682 1.43439 9.24112C1.23904 9.192 1.03797 9.17145 0.835769 9.18858C0.795603 9.19247 0.755269 9.19586 0.714893 9.19926ZM2.9435 10.7519C2.94462 10.7526 2.94579 10.7533 2.94695 10.7537C2.94467 10.7514 2.94124 10.748 2.93782 10.7468C2.93971 10.7485 2.94161 10.7502 2.9435 10.7519Z" fill="#FDFDFD"/>
</svg>
