<svg width="14" height="10" viewBox="0 0 14 10" fill="none" xmlns="http://www.w3.org/2000/svg">
<path fill-rule="evenodd" clip-rule="evenodd" d="M8.42482 8.6806C8.42989 8.74081 8.43497 8.80112 8.44206 8.86103C8.44827 8.91904 8.47417 8.9698 8.51664 9.01019C8.57258 9.06613 8.65337 9.0972 8.73416 9.08684C8.87503 9.0682 8.97343 8.93664 8.9579 8.79681C8.9465 8.69426 8.93718 8.59172 8.92993 8.48917C8.92827 8.45585 8.92928 8.42253 8.93029 8.38976C8.93053 8.38177 8.93077 8.37382 8.93097 8.36591C8.93511 8.3224 8.93926 8.2789 8.94754 8.23539C8.96515 8.15564 8.98691 8.08002 9.01177 8.00337C9.05838 7.86975 9.11534 7.74027 9.17646 7.61286C9.24482 7.4782 9.31837 7.34666 9.40019 7.21925C9.52967 7.02555 9.67676 6.84325 9.82696 6.66612L9.82799 6.66508C9.82936 6.66372 9.83118 6.6619 9.83256 6.65993C9.97119 6.50348 10.1239 6.36108 10.2775 6.21968C10.4495 6.07674 10.6194 5.93586 10.8027 5.8126C10.9343 5.72663 11.0699 5.64894 11.2098 5.57954C11.4314 5.47388 11.6614 5.39309 11.8934 5.3123C12.0633 5.25843 12.2332 5.20457 12.4031 5.15278C12.4251 5.14604 12.4471 5.13923 12.4692 5.13242C12.5997 5.09211 12.7312 5.05151 12.865 5.02226C12.8749 5.02368 12.8848 5.02509 12.8944 5.02618C12.8988 5.02668 12.9032 5.02712 12.9075 5.02745C13.0318 5.03574 13.1375 4.99845 13.2037 4.88658C13.2483 4.80889 13.2472 4.70841 13.2027 4.63072C13.1623 4.55718 13.0919 4.51575 13.0111 4.50125C12.9748 4.494 12.9386 4.49296 12.9023 4.494C12.8775 4.48571 12.8516 4.47846 12.8267 4.47017C12.5542 4.36581 12.2895 4.24163 12.026 4.11798L12.0084 4.10971C11.8334 4.02166 11.6635 3.92843 11.4998 3.82278C11.3714 3.73577 11.2491 3.64048 11.1311 3.53897C10.8877 3.32269 10.6651 3.08435 10.4423 2.84588C10.392 2.79198 10.3416 2.73807 10.291 2.68441C10.0911 2.47 9.89221 2.25455 9.69334 2.0391C9.55454 1.87958 9.42195 1.71799 9.30387 1.54397C9.25207 1.46317 9.20546 1.38134 9.16196 1.29641C9.13295 1.23218 9.10602 1.16796 9.0822 1.10063C9.06977 1.05713 9.05838 1.01466 9.04905 0.970122C9.04387 0.938012 9.03973 0.904866 9.03662 0.870686C9.03663 0.865247 9.03651 0.859694 9.0364 0.854066C9.03617 0.842552 9.03593 0.830726 9.03662 0.818894C9.0387 0.794036 9.04181 0.770214 9.04595 0.74535C9.04738 0.738219 9.04929 0.731572 9.05136 0.7244C9.0523 0.721162 9.05326 0.717817 9.05423 0.71427C9.06252 0.693554 9.07184 0.671803 9.08116 0.652123C9.15885 0.489501 9.01487 0.291657 8.84085 0.2958C8.78181 0.296838 8.72484 0.314441 8.67822 0.350696C8.63368 0.38488 8.60365 0.431492 8.58811 0.482247C8.42756 0.849965 8.55911 1.27983 8.74038 1.6144C8.91025 1.92722 9.13917 2.20586 9.37948 2.46689C9.58665 2.69063 9.79277 2.91332 10.002 3.13499C10.0455 3.18116 10.0888 3.2276 10.1321 3.27409C10.4186 3.58115 10.707 3.89027 11.0461 4.13767C11.1314 4.19979 11.2188 4.25831 11.3079 4.31372C11.2147 4.30389 11.1215 4.29447 11.0285 4.2858C10.7499 4.2599 10.4712 4.23608 10.1916 4.21536C9.87875 4.19464 9.568 4.17807 9.25518 4.16357C8.73105 4.1387 8.20485 4.12835 7.68073 4.12421C7.27848 4.12032 6.87612 4.11824 6.47371 4.11616C5.69585 4.11215 4.91784 4.10812 4.14028 4.09106C3.94398 4.08691 3.74859 4.08185 3.55321 4.07678C3.4558 4.07425 3.35839 4.07173 3.26087 4.06931C3.19064 4.06764 3.1202 4.06575 3.04962 4.06384L3.04914 4.06383C2.85755 4.05868 2.66504 4.05349 2.47364 4.05274L2.47034 4.0527L2.46876 4.05269C2.19902 4.05063 1.93132 4.0486 1.66259 4.04963C1.52483 4.05067 1.38705 4.0517 1.25033 4.0517C1.19275 4.05139 1.13508 4.05154 1.07736 4.05168C0.938796 4.05203 0.79987 4.05237 0.660944 4.04652C0.654726 4.04652 0.649557 4.04549 0.643339 4.04549C0.549079 4.00716 0.436171 4.02477 0.360555 4.10038L0.356411 4.10453C0.256972 4.20811 0.258012 4.36659 0.356414 4.47121C0.357451 4.47225 0.359518 4.47431 0.358482 4.47535C0.421665 4.53853 0.505573 4.55407 0.590511 4.56029L0.588438 4.56029C0.592582 4.56029 0.597759 4.56132 0.601904 4.56133L0.602643 4.56137C0.603032 4.56141 0.603389 4.56148 0.603747 4.56156C0.604897 4.56178 0.606045 4.56201 0.608116 4.56132C0.610277 4.5606 0.612446 4.56089 0.61426 4.56112C0.615022 4.56123 0.6158 4.56133 0.616407 4.56133L0.612263 4.56132C0.798823 4.5733 0.987502 4.57185 1.17539 4.5704L1.17554 4.5704L1.19622 4.57025C1.22879 4.56999 1.26133 4.56976 1.29384 4.56961C1.37499 4.56961 1.45574 4.56879 1.53634 4.56797L1.53676 4.56797C1.63709 4.56695 1.7372 4.56593 1.83764 4.5665C2.24265 4.56961 2.64662 4.57376 3.05163 4.58308C3.26516 4.58753 3.47854 4.59342 3.69194 4.59931L3.69276 4.59933C4.02463 4.60847 4.35657 4.61763 4.68927 4.6214C5.24033 4.62762 5.79139 4.63383 6.34141 4.63487L6.50163 4.63541H6.50292C7.0414 4.63722 7.57911 4.63902 8.11681 4.64937C8.42342 4.65559 8.73002 4.66387 9.03766 4.67319C9.19599 4.67901 9.3539 4.68684 9.51192 4.69468C9.60719 4.6994 9.7025 4.70412 9.79795 4.70841C10.2413 4.73948 10.6846 4.77263 11.1248 4.81717C11.2812 4.83295 11.437 4.84922 11.5927 4.86703C11.4584 4.9132 11.3255 4.96275 11.1953 5.01813C10.899 5.14449 10.6163 5.30091 10.3573 5.49357C10.3397 5.50638 10.3218 5.51902 10.3038 5.53171C10.2592 5.56314 10.2142 5.59487 10.1729 5.63029C10.1424 5.65567 10.1123 5.68105 10.0823 5.70642C10.0522 5.7318 10.0222 5.75718 9.99165 5.78256C9.88185 5.87578 9.7731 5.97419 9.67159 6.0757C9.52761 6.21968 9.39295 6.37091 9.26658 6.53043C9.14642 6.68166 9.02834 6.83289 8.92579 6.99758C8.81806 7.16953 8.72277 7.34976 8.6399 7.53621C8.56946 7.69572 8.50421 7.85836 8.46277 8.02823C8.41823 8.20536 8.3996 8.38766 8.41513 8.571C8.41865 8.60742 8.42174 8.64399 8.42482 8.6806ZM9.83256 6.65993C9.83326 6.65891 9.83386 6.65786 9.83421 6.6568C9.83213 6.65887 9.82903 6.66198 9.82799 6.66508C9.82951 6.66336 9.83103 6.66164 9.83256 6.65993Z" fill="black"/>
</svg>
