<svg width="14" height="10" viewBox="0 0 14 10" fill="none" xmlns="http://www.w3.org/2000/svg">
<path fill-rule="evenodd" clip-rule="evenodd" d="M8.92482 8.66302C8.92989 8.72323 8.93497 8.78355 8.94206 8.84345C8.94827 8.90146 8.97417 8.95222 9.01664 8.99261C9.07258 9.04855 9.15337 9.07962 9.23416 9.06926C9.37503 9.05062 9.47343 8.91907 9.4579 8.77923C9.4465 8.67668 9.43718 8.57414 9.42993 8.47159C9.42827 8.43828 9.42928 8.40496 9.43029 8.37218C9.43053 8.3642 9.43077 8.35624 9.43097 8.34833C9.43511 8.30483 9.43926 8.26132 9.44754 8.21782C9.46515 8.13806 9.48691 8.06244 9.51177 7.98579C9.55838 7.85217 9.61534 7.72269 9.67646 7.59529C9.74482 7.46063 9.81837 7.32908 9.90019 7.20167C10.0297 7.00797 10.1768 6.82567 10.327 6.64854L10.328 6.64751C10.3294 6.64614 10.3312 6.64432 10.3326 6.64235C10.4712 6.4859 10.6239 6.3435 10.7775 6.2021C10.9495 6.05916 11.1194 5.91828 11.3027 5.79502C11.4343 5.70905 11.5699 5.63136 11.7098 5.56196C11.9314 5.45631 12.1614 5.37552 12.3934 5.29472C12.5633 5.24086 12.7332 5.18699 12.9031 5.1352C12.9251 5.12846 12.9471 5.12165 12.9692 5.11484C13.0997 5.07453 13.2312 5.03393 13.365 5.00469C13.3749 5.0061 13.3848 5.00751 13.3944 5.0086C13.3988 5.00911 13.4032 5.00954 13.4075 5.00987C13.5318 5.01816 13.6375 4.98087 13.7037 4.869C13.7483 4.79131 13.7472 4.69083 13.7027 4.61314C13.6623 4.5396 13.5919 4.49817 13.5111 4.48367C13.4748 4.47642 13.4386 4.47538 13.4023 4.47642C13.3775 4.46813 13.3516 4.46089 13.3267 4.4526C13.0542 4.34823 12.7895 4.22405 12.526 4.1004L12.5084 4.09213C12.3334 4.00409 12.1635 3.91086 11.9998 3.8052C11.8714 3.71819 11.7491 3.6229 11.6311 3.52139C11.3877 3.30511 11.1651 3.06677 10.9423 2.8283C10.892 2.7744 10.8416 2.7205 10.791 2.66684C10.5911 2.45242 10.3922 2.23697 10.1933 2.02152C10.0545 1.862 9.92195 1.70041 9.80387 1.52639C9.75207 1.44559 9.70546 1.36376 9.66196 1.27883C9.63295 1.21461 9.60602 1.15038 9.5822 1.08306C9.56977 1.03955 9.55838 0.997085 9.54905 0.952544C9.54387 0.920434 9.53973 0.887288 9.53662 0.853107C9.53663 0.847669 9.53651 0.842116 9.5364 0.836488C9.53617 0.824974 9.53593 0.813148 9.53662 0.801316C9.5387 0.776457 9.54181 0.752635 9.54595 0.727772C9.54738 0.720641 9.54929 0.713994 9.55136 0.706822C9.5523 0.703583 9.55326 0.700239 9.55423 0.696692C9.56252 0.675976 9.57184 0.654225 9.58116 0.634545C9.65885 0.471923 9.51487 0.274079 9.34085 0.278221C9.28181 0.27926 9.22484 0.296862 9.17822 0.333118C9.13368 0.367302 9.10365 0.413914 9.08811 0.464669C8.92756 0.832387 9.05911 1.26225 9.24038 1.59683C9.41025 1.90965 9.63917 2.18828 9.87948 2.44931C10.0866 2.67305 10.2928 2.89575 10.502 3.11741C10.5455 3.16358 10.5888 3.21002 10.6321 3.25651C10.9186 3.56357 11.207 3.8727 11.5461 4.12009C11.6314 4.18221 11.7188 4.24073 11.8079 4.29614C11.7147 4.28631 11.6215 4.27689 11.5285 4.26822C11.2499 4.24232 10.9712 4.2185 10.6916 4.19778C10.3787 4.17707 10.068 4.16049 9.75518 4.14599C9.23105 4.12113 8.70485 4.11077 8.18073 4.10663C7.77848 4.10274 7.37612 4.10066 6.97371 4.09859C6.19585 4.09457 5.41784 4.09055 4.64028 4.07348C4.44398 4.06933 4.24859 4.06427 4.05321 4.0592C3.9558 4.05667 3.85839 4.05415 3.76087 4.05173C3.69064 4.05006 3.6202 4.04817 3.54962 4.04627L3.54914 4.04626C3.35755 4.0411 3.16504 4.03592 2.97364 4.03516L2.97034 4.03512L2.96876 4.03511C2.69902 4.03306 2.43132 4.03103 2.16259 4.03205C2.02483 4.03309 1.88705 4.03412 1.75033 4.03412C1.69275 4.03381 1.63508 4.03396 1.57736 4.0341C1.4388 4.03445 1.29987 4.03479 1.16094 4.02894C1.15473 4.02894 1.14956 4.02791 1.14334 4.02791C1.04908 3.98958 0.936171 4.00719 0.860555 4.0828L0.856411 4.08695C0.756972 4.19053 0.758012 4.34902 0.856414 4.45363C0.857451 4.45467 0.859518 4.45674 0.858482 4.45777C0.921665 4.52096 1.00557 4.5365 1.09051 4.54271L1.08844 4.54271C1.09258 4.54271 1.09776 4.54374 1.1019 4.54375L1.10264 4.54379C1.10303 4.54383 1.10339 4.54391 1.10375 4.54398C1.1049 4.54421 1.10604 4.54444 1.10812 4.54374C1.11028 4.54302 1.11245 4.54331 1.11426 4.54354C1.11502 4.54365 1.1158 4.54375 1.11641 4.54375L1.11226 4.54374C1.29882 4.55573 1.4875 4.55427 1.67539 4.55282L1.67554 4.55282L1.69622 4.55267C1.72879 4.55242 1.76133 4.55218 1.79384 4.55203C1.87499 4.55203 1.95574 4.55121 2.03634 4.55039L2.03676 4.55039C2.13709 4.54937 2.2372 4.54835 2.33764 4.54893C2.74265 4.55203 3.14662 4.55618 3.55163 4.5655C3.76516 4.56995 3.97854 4.57584 4.19194 4.58173L4.19276 4.58175C4.52463 4.59089 4.85657 4.60005 5.18927 4.60383C5.74033 4.61004 6.29139 4.61626 6.84141 4.61729L7.00163 4.61783H7.00292C7.5414 4.61964 8.07911 4.62144 8.61681 4.63179C8.92342 4.63801 9.23002 4.64629 9.53766 4.65562C9.69599 4.66144 9.8539 4.66926 10.0119 4.6771C10.1072 4.68182 10.2025 4.68654 10.298 4.69083C10.7413 4.7219 11.1846 4.75505 11.6248 4.79959C11.7812 4.81537 11.937 4.83165 12.0927 4.84945C11.9584 4.89563 11.8255 4.94517 11.6953 5.00055C11.399 5.12692 11.1163 5.28333 10.8573 5.47599C10.8397 5.4888 10.8218 5.50144 10.8038 5.51413C10.7592 5.54556 10.7142 5.5773 10.6729 5.61272C10.6424 5.63809 10.6123 5.66347 10.5823 5.68885C10.5522 5.71423 10.5222 5.7396 10.4916 5.76498C10.3819 5.8582 10.2731 5.95661 10.1716 6.05812C10.0276 6.2021 9.89295 6.35334 9.76658 6.51285C9.64642 6.66408 9.52834 6.81531 9.42579 6.98001C9.31806 7.15195 9.22277 7.33218 9.1399 7.51863C9.06946 7.67815 9.00421 7.84078 8.96277 8.01065C8.91823 8.18778 8.8996 8.37009 8.91513 8.55342C8.91865 8.58984 8.92174 8.62641 8.92482 8.66302ZM10.3326 6.64235C10.3333 6.64134 10.3339 6.64028 10.3342 6.63922C10.3321 6.64129 10.329 6.6444 10.328 6.64751C10.3295 6.64578 10.331 6.64406 10.3326 6.64235Z" fill="white"/>
</svg>
