<svg width="29" height="30" viewBox="0 0 29 30" fill="none" xmlns="http://www.w3.org/2000/svg">
<path d="M7.65891 18.5529L11.1069 15.1049L12.0496 16.0489L8.60157 19.4955C8.22567 19.8698 8.01386 20.3781 8.01274 20.9086C8.01161 21.4391 8.22126 21.9483 8.59557 22.3242C8.96988 22.7001 9.47819 22.9119 10.0087 22.913C10.5391 22.9142 11.0483 22.7045 11.4242 22.3302L14.8989 18.8969L15.8402 19.8395L12.3602 23.2795C11.7327 23.8994 10.8851 24.2453 10.003 24.2414C9.12098 24.2375 8.27643 23.8841 7.6544 23.2588C7.03237 22.6334 6.68357 21.7869 6.68441 20.9049C6.68526 20.0228 7.03568 19.1771 7.65891 18.5529ZM12.9442 26.4662C12.3896 27.0344 11.7278 27.4869 10.997 27.7974C10.2662 28.1079 9.48109 28.2703 8.68709 28.2752C7.8931 28.28 7.10604 28.1272 6.37154 27.8256C5.63703 27.524 4.9697 27.0797 4.4082 26.5182C3.84671 25.9568 3.40223 25.2896 3.10053 24.5551C2.79883 23.8207 2.6459 23.0336 2.65062 22.2396C2.65533 21.4456 2.8176 20.6605 3.128 19.9297C3.43841 19.1988 3.89078 18.5369 4.45891 17.9822L9.24557 13.2449L8.30424 12.3022L3.52157 17.0355C2.82592 17.7132 2.2718 18.5223 1.89137 19.4158C1.51094 20.3093 1.31177 21.2695 1.30544 22.2407C1.29911 23.2118 1.48573 24.1745 1.85448 25.073C2.22322 25.9714 2.76675 26.7876 3.4535 27.4743C4.14026 28.1609 4.95656 28.7044 5.85503 29.073C6.7535 29.4416 7.71625 29.6281 8.68738 29.6217C9.65851 29.6152 10.6187 29.4159 11.5122 29.0354C12.4057 28.6548 13.2147 28.1006 13.8922 27.4049L18.6242 22.6222L17.6802 21.6782L12.9442 26.4662ZM28.4882 27.7729L27.5456 28.7142L0.878906 2.04754L1.82157 1.10487L10.6736 9.9582L18.9296 1.78887C19.4253 1.28768 20.0155 0.889731 20.666 0.618048C21.3165 0.346365 22.0144 0.206335 22.7193 0.206055C23.4242 0.205775 24.1222 0.345251 24.773 0.616418C25.4237 0.887584 26.0141 1.28506 26.5103 1.78586C27.0064 2.28666 27.3983 2.88085 27.6634 3.53407C27.9284 4.18728 28.0614 4.88657 28.0545 5.59148C28.0476 6.29639 27.901 6.99294 27.6233 7.64085C27.3455 8.28877 26.9421 8.87519 26.4362 9.3662L18.2109 17.4955L20.0242 19.3089L24.9176 14.3622L25.8669 15.2982L20.9669 20.2515L28.4882 27.7729ZM11.6162 10.8995L13.4642 12.7475L18.3256 7.88487L19.2682 8.82754L14.4069 13.6902L17.2682 16.5515L25.4976 8.4182C26.2513 7.67153 26.6776 6.65602 26.6826 5.59506C26.6876 4.5341 26.2709 3.51462 25.5242 2.76087C25.1545 2.38765 24.7149 2.09091 24.2305 1.88759C23.7461 1.68427 23.2264 1.57834 22.7011 1.57587C21.6401 1.57086 20.6206 1.98753 19.8669 2.7342L11.6162 10.8995Z" fill="#FDFDFD"/>
</svg>
