<svg width="17" height="17" viewBox="0 0 17 17" fill="none" xmlns="http://www.w3.org/2000/svg">
<path id="Vector" d="M0.965172 0.470703H15.1387C15.6192 0.470703 16.0519 0.903489 16.0519 1.38393V15.5575C16.0519 16.0379 15.6192 16.4707 15.1387 16.4707H0.965172C0.484727 16.4707 0.0519409 16.0379 0.0519409 15.5575V1.38393C0.0519409 0.903489 0.484727 0.470703 0.965172 0.470703ZM11.4143 9.45466H13.6243L13.7204 7.34069H11.4143V5.77944C11.4143 5.17907 11.5342 4.84238 12.3029 4.84238H13.6482L13.6966 2.87216C13.6966 2.87216 13.0962 2.77608 12.2314 2.77608C10.1175 2.77608 9.18041 4.09749 9.18041 5.515V7.34069H7.61916V9.45466H9.18041V15.3161H11.4143V9.45466Z" fill="#0D0E0E"/>
</svg>
