<svg width="39" height="38" viewBox="0 0 39 38" fill="none" xmlns="http://www.w3.org/2000/svg">
<path d="M19.9141 16.6025C21.2257 16.6025 22.2891 15.5672 22.2891 14.29C22.2891 13.0129 21.2257 11.9775 19.9141 11.9775C18.6024 11.9775 17.5391 13.0129 17.5391 14.29C17.5391 15.5672 18.6024 16.6025 19.9141 16.6025Z" stroke="white" stroke-linecap="round"/>
<path d="M25.774 13.1338C26.0889 12.6026 26.6076 12.2151 27.2161 12.0563C27.8244 11.8976 28.4728 11.9807 29.0182 12.2874C29.5637 12.594 29.9618 13.0991 30.1248 13.6915C30.2879 14.2839 30.2026 14.9151 29.8875 15.4463C29.5726 15.9774 29.0539 16.365 28.4454 16.5238C27.8371 16.6826 27.1887 16.5995 26.6432 16.2927C26.0978 15.986 25.6997 15.481 25.5367 14.8886C25.3736 14.2961 25.4589 13.6649 25.774 13.1338Z" stroke="white"/>
<path d="M9.94063 13.1338C10.2556 12.6026 10.7743 12.2151 11.3827 12.0563C11.9912 11.8976 12.6394 11.9807 13.1849 12.2874C13.7304 12.594 14.1285 13.0991 14.2915 13.6915C14.4545 14.2839 14.3692 14.9151 14.0543 15.4463C13.7393 15.9774 13.2206 16.365 12.6121 16.5238C12.0037 16.6826 11.3554 16.5995 10.8099 16.2927C10.2644 15.986 9.8664 15.481 9.70336 14.8886C9.54034 14.2961 9.62569 13.6649 9.94063 13.1338Z" stroke="white"/>
<path d="M23.239 20.7425L22.7788 20.1154L21.9358 20.7017L22.7384 21.3396L23.239 20.7425ZM31.7889 25.0817H23.8724V26.6234H31.7889V25.0817ZM32.3869 24.5094C32.4243 24.661 32.3839 24.7839 32.2908 24.8839C32.1891 24.9929 32.0126 25.0817 31.7889 25.0817V26.6234C33.0551 26.6234 34.2763 25.5706 33.9267 24.1501L32.3869 24.5094ZM27.039 20.4567C28.9802 20.4567 30.1891 21.0868 30.9692 21.8624C31.7707 22.6591 32.1809 23.6725 32.3869 24.5094L33.9267 24.1501C33.6832 23.1609 33.1751 21.8522 32.1003 20.7837C31.0042 19.6937 29.3789 18.915 27.039 18.915V20.4567ZM23.6991 21.3697C24.4558 20.8434 25.519 20.4567 27.039 20.4567V18.915C25.2252 18.915 23.832 19.3828 22.7788 20.1154L23.6991 21.3697ZM22.7384 21.3396C23.7723 22.1616 24.2655 23.4377 24.4916 24.4843L26.0411 24.1672C25.7857 22.9847 25.1864 21.2955 23.7397 20.1454L22.7384 21.3396ZM24.4916 24.4843C24.5258 24.6431 24.4808 24.7749 24.3814 24.8804C24.2748 24.9934 24.0956 25.0817 23.8724 25.0817V26.6234C25.145 26.6234 26.3447 25.5741 26.0411 24.1672L24.4916 24.4843Z" fill="white"/>
<path d="M16.589 20.7425L17.0897 21.3396L17.8923 20.7017L17.0493 20.1152L16.589 20.7425ZM12.7891 20.4567C14.309 20.4567 15.3722 20.8434 16.1288 21.3697L17.0493 20.1152C15.9961 19.3826 14.6029 18.915 12.7891 18.915V20.4567ZM7.4411 24.5094C7.64712 23.6725 8.05746 22.6591 8.85891 21.8624C9.63894 21.0868 10.8479 20.4567 12.7891 20.4567V18.915C10.4492 18.915 8.82395 19.6937 7.72771 20.7837C6.6529 21.8522 6.14485 23.1609 5.90137 24.1501L7.4411 24.5094ZM8.03909 25.0817C7.81545 25.0817 7.63889 24.9929 7.53728 24.8839C7.44418 24.7839 7.40376 24.661 7.4411 24.5094L5.90137 24.1501C5.55169 25.5706 6.77299 26.6234 8.03909 26.6234V25.0817ZM15.9557 25.0817H8.03909V26.6234H15.9557V25.0817ZM15.9557 25.0817C15.7324 25.0817 15.5531 24.9934 15.4465 24.8804C15.3472 24.7749 15.3022 24.6431 15.3365 24.4843L13.787 24.1672C13.4833 25.5741 14.6829 26.6234 15.9557 26.6234V25.0817ZM15.3365 24.4843C15.5624 23.4377 16.0557 22.1616 17.0897 21.3396L16.0883 20.1454C14.6416 21.2955 14.0423 22.9847 13.787 24.1672L15.3365 24.4843Z" fill="white"/>
<path d="M19.9139 19.6855C23.6572 19.6855 24.8719 22.4992 25.2662 24.3255C25.4461 25.1586 24.7467 25.8522 23.8722 25.8522H15.9556C15.0811 25.8522 14.3817 25.1586 14.5616 24.3255C14.9558 22.4992 16.1706 19.6855 19.9139 19.6855Z" stroke="white" stroke-linecap="round"/>
<path d="M30.2056 33.5605H32.5806C33.8922 33.5605 34.9556 32.5252 34.9556 31.248V28.9355" stroke="white" stroke-linecap="round"/>
<path d="M30.2056 4.26953H32.5806C33.8922 4.26953 34.9556 5.30487 34.9556 6.58203V8.89453" stroke="white" stroke-linecap="round"/>
<path d="M9.62256 33.5605H7.24756C5.93588 33.5605 4.87256 32.5252 4.87256 31.248V28.9355" stroke="white" stroke-linecap="round"/>
<path d="M9.62256 4.26953H7.24756C5.93588 4.26953 4.87256 5.30487 4.87256 6.58203V8.89453" stroke="white" stroke-linecap="round"/>
</svg>
