<svg width="17" height="17" viewBox="0 0 17 17" fill="none" xmlns="http://www.w3.org/2000/svg">
<path id="Vector" fill-rule="evenodd" clip-rule="evenodd" d="M2.53154 0.956055H14.4241C15.5538 0.956055 16.478 1.87989 16.478 3.00957V14.9021C16.478 16.0318 15.5538 16.9561 14.4241 16.9561H2.53154C1.40186 16.9561 0.478027 16.0318 0.478027 14.9021V3.00957C0.478027 1.87989 1.40186 0.956055 2.53154 0.956055ZM12.1331 2.7334C11.737 2.7334 11.4128 3.05763 11.4128 3.45371V5.17793C11.4128 5.57401 11.737 5.89824 12.1331 5.89824H13.9417C14.3378 5.89824 14.662 5.57404 14.662 5.17793V3.45371C14.662 3.05763 14.3378 2.7334 13.9417 2.7334H12.1331ZM14.6694 7.72208H13.2612C13.3944 8.15721 13.4663 8.61777 13.4663 9.09514C13.4663 11.7565 11.2397 13.9139 8.49287 13.9139C5.74638 13.9139 3.51981 11.7565 3.51981 9.09514C3.51981 8.6178 3.59167 8.15724 3.7249 7.72208H2.25575V14.4807C2.25575 14.8307 2.54168 15.117 2.89171 15.117H14.0335C14.3831 15.117 14.6695 14.8307 14.6695 14.4807V7.72208H14.6694ZM8.4929 5.80762C6.71828 5.80762 5.27959 7.20175 5.27959 8.9213C5.27959 10.6408 6.71828 12.035 8.4929 12.035C10.2679 12.035 11.7066 10.6408 11.7066 8.9213C11.7066 7.20175 10.2679 5.80762 8.4929 5.80762Z" fill="#FDFDFD"/>
</svg>
