<svg width="1406" height="155" viewBox="0 0 1406 155" fill="none" xmlns="http://www.w3.org/2000/svg">
<g opacity="0.1">
<path d="M31.6652 6.67478V130.779H0.294067V6.67478H31.6652Z" fill="#FFC557"/>
<path d="M59.0478 37.509C64.5193 34.3898 70.1952 32.0376 76.0757 30.4524C81.7005 28.9695 87.4787 28.2281 93.4104 28.2281C99.2909 28.2281 105.018 28.9695 110.592 30.4524C121.534 33.4182 128.387 38.7362 131.148 46.4065C132.989 51.4177 133.96 58.7043 134.062 68.2665V130.779H106.833V113.061L104.532 116.972C97.7312 128.017 88.6037 133.514 77.1495 133.463C73.2633 133.463 69.4282 132.875 65.6442 131.699C52.3492 127.762 45.804 119.222 46.0085 106.081C45.9062 96.5696 49.3578 89.3085 56.3633 84.2973C60.7097 81.1781 68.5078 78.3912 79.7574 75.9367L92.1064 73.2522C94.7654 72.6897 97.1176 71.9482 99.163 71.0278C102.691 69.4426 104.43 66.8348 104.379 63.2042C104.481 56.5567 99.2142 53.1818 88.5781 53.0795C85.1521 53.1307 81.7005 53.5653 78.2234 54.3835C74.7462 55.2016 71.5247 56.3522 68.5589 57.8351C64.059 60.085 59.5336 62.9485 54.9826 66.4257L51.1475 69.4171L50.6106 42.8782L59.0478 37.509ZM105.606 84.5274L102.231 86.0614C99.9812 87.0841 97.4756 88.0301 94.7143 88.8994L87.0441 91.2772C78.7603 93.7828 74.5672 97.6179 74.465 102.782C74.465 108.714 77.891 111.757 84.743 111.91C87.1975 112.012 89.4474 111.578 91.4928 110.606C94.1007 109.532 96.504 107.717 98.7028 105.16C103.049 100.251 105.35 94.2685 105.606 87.212V84.5274Z" fill="#FFC557"/>
<path d="M183.535 6.67478V48.2473L185.913 43.6452C192.049 33.316 201.535 28.1769 214.37 28.2281C226.949 28.2792 236.306 33.4694 242.442 43.7986C247.3 51.8779 249.755 62.744 249.806 76.397C249.755 91.6351 246.917 104.138 241.292 113.904C233.775 126.841 223.293 133.361 209.844 133.463C201.407 133.514 194.299 130.676 188.521 124.949C186.782 123.313 185.248 121.293 183.919 118.89L180.467 112.677V130.779H152.164V6.67478H183.535ZM181.464 82.303C181.464 86.1893 181.95 89.8454 182.922 93.2714C183.586 95.777 184.737 97.9758 186.373 99.8678C189.441 103.754 193.941 105.723 199.873 105.774C208.975 105.62 214.676 100.942 216.977 91.7374C217.898 88.1068 218.384 84.2461 218.435 80.1554C218.281 65.6842 212.35 58.3975 200.64 58.2953C191.333 58.3464 185.453 62.6673 182.998 71.2579C181.925 74.7862 181.413 78.4679 181.464 82.303Z" fill="#FFC557"/>
<path d="M262.155 80.3088C262.257 62.8718 266.578 49.7558 275.118 40.9606C279.873 36.0005 285.293 32.6512 291.378 30.9126C297.463 29.1229 304.009 28.2281 311.014 28.2281C323.593 28.3303 333.028 30.0945 339.317 33.5205C347.806 38.1738 353.66 45.6394 356.882 55.9175C359.132 63.0764 360.257 70.6443 360.257 78.6213C360.257 87.3654 358.953 95.598 356.345 103.319C349.698 123.364 334.587 133.412 311.014 133.463C294.191 133.412 281.74 128.478 273.66 118.66C270.285 114.671 267.754 110.12 266.067 105.007C263.408 97.4389 262.104 89.2062 262.155 80.3088ZM290.611 82.0729C290.663 91.1238 292.452 97.848 295.98 102.246C299.509 106.592 304.546 108.714 311.091 108.612C324.795 108.561 331.698 99.3053 331.8 80.8457C331.8 77.0106 331.263 73.3289 330.19 69.8006C329.474 67.6018 328.374 65.4797 326.891 63.4343C325.255 61.2355 323.184 59.6503 320.679 58.6788C317.917 57.605 314.798 57.0425 311.321 56.9913C304.162 56.9402 298.767 59.4458 295.137 64.5081C292.069 68.7523 290.56 74.6072 290.611 82.0729Z" fill="#FFC557"/>
<path d="M406.278 81.6894C406.227 89.4107 406.738 94.3708 407.812 96.5696C410.062 101.223 414.23 103.498 420.315 103.396C431.155 103.294 436.626 96.0583 436.729 81.6894V30.9126H468.1V130.779H438.493V105.62L435.885 113.291C432.357 122.035 426.758 127.966 419.087 131.086C415.252 132.722 410.957 133.514 406.201 133.463C397.304 133.514 390.017 130.881 384.341 125.563C378.972 120.552 375.955 113.418 375.29 104.163C374.984 100.942 374.856 97.4133 374.907 93.5782V30.9126H406.278V81.6894Z" fill="#FFC557"/>
<path d="M515.348 30.9126V59.5992C516.218 55.8664 517.113 52.6705 518.033 50.0114C519.874 44.3866 522.814 39.5033 526.854 35.3614C531.456 30.6058 536.518 28.2281 542.041 28.2281C544.853 28.2792 547.205 28.7138 549.097 29.532L553.546 31.603L556 32.6768L554.773 67.0393L552.396 65.0451C549.174 62.6929 545.313 61.4912 540.813 61.4401C533.194 61.4912 527.339 64.8405 523.249 71.488C519.925 76.7549 518.263 83.5047 518.263 91.7374V130.779H486.892V30.9126H515.348Z" fill="#FFC557"/>
<path d="M619.817 99.1775L623.191 100.942C629.992 104.419 635.873 106.643 640.833 107.615C644.003 108.331 647.148 108.663 650.267 108.612C659.472 108.612 664.074 106.055 664.074 100.942C663.971 98.1803 662.233 96.2628 658.858 95.189C656.557 94.4219 653.975 93.7061 651.111 93.0413L639.989 90.28C635.387 89.0528 631.45 87.3142 628.177 85.0643C620.609 79.7974 616.825 71.8971 616.825 61.3634C616.876 50.3183 620.89 41.9833 628.867 36.3585C636.384 30.9893 645.87 28.2792 657.324 28.2281C668.318 28.3815 677.241 30.5803 684.093 34.8244L688.695 38.1226V64.5081L682.482 61.2867C676.448 58.4742 669.417 57.0425 661.389 56.9913C650.446 57.1959 645.077 59.318 645.282 63.3576C645.231 65.8121 647.404 67.4228 651.801 68.1898C653.438 68.5478 656.94 69.4171 662.31 70.7977L673.892 74.0959C678.289 75.5277 681.92 77.5219 684.783 80.0787C689.897 84.9365 692.479 91.405 692.53 99.4843C692.428 109.66 689.053 117.816 682.405 123.952C679.235 126.918 675.477 129.168 671.13 130.702C665.915 132.594 660.443 133.514 654.716 133.463C646.279 133.566 637.1 131.418 627.18 127.02L619.817 123.492V99.1775Z" fill="#FFC557"/>
<path d="M737.784 81.6894C737.733 89.4107 738.245 94.3708 739.318 96.5696C741.568 101.223 745.736 103.498 751.821 103.396C762.661 103.294 768.133 96.0583 768.235 81.6894V30.9126H799.606V130.779H769.999V105.62L767.391 113.291C763.863 122.035 758.264 127.966 750.594 131.086C746.758 132.722 742.463 133.514 737.708 133.463C728.81 133.514 721.523 130.881 715.848 125.563C710.478 120.552 707.461 113.418 706.797 104.163C706.49 100.942 706.362 97.4133 706.413 93.5782V30.9126H737.784V81.6894Z" fill="#FFC557"/>
<path d="M818.015 30.9126H845.167V53.6931C849.207 44.9491 853.477 38.8129 857.977 35.2847C863.755 30.6825 870.837 28.3303 879.223 28.2281C891.546 28.3303 900.981 33.316 907.526 43.185C912.997 51.4177 915.708 62.0281 915.656 75.0163C915.656 89.692 913.049 102.297 907.833 112.83C900.981 126.535 890.856 133.412 877.459 133.463C871.118 133.514 865.57 131.904 860.814 128.631C857.491 126.381 853.681 121.984 849.386 115.438V154.173H818.015V30.9126ZM846.011 82.8399C846.062 89.9988 847.545 95.3679 850.46 98.9474C854.141 103.549 859.101 105.825 865.34 105.774C877.919 105.672 884.234 97.1832 884.285 80.3088C884.234 73.9169 882.751 68.829 879.837 65.0451C876.359 60.4941 871.706 58.2441 865.877 58.2953C859.127 58.2953 853.962 60.8009 850.383 65.8121C847.366 70.1074 845.909 75.7833 846.011 82.8399Z" fill="#FFC557"/>
<path d="M931.534 30.9126H958.686V53.6931C962.726 44.9491 966.996 38.8129 971.496 35.2847C977.274 30.6825 984.356 28.3303 992.742 28.2281C1005.07 28.3303 1014.5 33.316 1021.05 43.185C1026.52 51.4177 1029.23 62.0281 1029.18 75.0163C1029.18 89.692 1026.57 102.297 1021.35 112.83C1014.5 126.535 1004.38 133.412 990.978 133.463C984.637 133.514 979.089 131.904 974.333 128.631C971.01 126.381 967.2 121.984 962.905 115.438V154.173H931.534V30.9126ZM959.53 82.8399C959.581 89.9988 961.064 95.3679 963.979 98.9474C967.66 103.549 972.62 105.825 978.859 105.774C991.438 105.672 997.753 97.1832 997.804 80.3088C997.753 73.9169 996.27 68.829 993.356 65.0451C989.878 60.4941 985.225 58.2441 979.396 58.2953C972.646 58.2953 967.481 60.8009 963.902 65.8121C960.885 70.1074 959.428 75.7833 959.53 82.8399Z" fill="#FFC557"/>
<path d="M1076.35 6.67478V130.779H1044.98V6.67478H1076.35Z" fill="#FFC557"/>
<path d="M1095.75 30.9126L1101.35 32.6001C1104.47 33.3671 1107.85 33.7506 1111.48 33.7506C1115.11 33.8017 1118.48 33.4182 1121.6 32.6001L1127.12 30.9126V130.779H1095.75V30.9126ZM1111.55 0.461914C1123.83 0.666453 1129.94 4.68053 1129.89 12.5041C1129.89 18.3846 1126.61 22.0663 1120.07 23.5492C1117.41 24.2651 1114.57 24.5975 1111.55 24.5464C1099.13 24.7509 1092.94 20.7368 1092.99 12.5041C1092.89 4.68053 1099.08 0.666453 1111.55 0.461914Z" fill="#FFC557"/>
<path d="M1173.07 95.0356C1175.22 106.183 1183.7 111.808 1198.53 111.91C1208.3 112.012 1216.89 109.123 1224.31 103.243L1230.83 97.6434V119.12L1226.3 122.725C1216.64 129.884 1205.33 133.463 1192.4 133.463C1169.34 133.412 1154.46 123.543 1147.76 103.856C1145.2 96.4929 1143.95 88.7971 1144 80.769C1143.95 61.798 1149.27 47.7871 1159.95 38.7362C1168.13 31.7819 1178.74 28.2792 1191.78 28.2281C1198.94 28.1769 1205.33 29.1485 1210.96 31.1427C1225.69 36.3073 1234.02 48.9121 1235.96 68.9569C1236.17 71.1045 1236.27 74.9141 1236.27 80.3855L1235.43 91.0471H1172.45L1173.07 95.0356ZM1172.45 69.4938H1217.1L1216.71 66.4257C1215.54 60.2895 1211.85 56.3522 1205.67 54.6136C1202.19 53.5909 1198.43 53.0795 1194.39 53.0795C1182.32 53.2329 1175.19 57.4515 1172.99 65.7354L1172.45 69.4938Z" fill="#FFC557"/>
<path d="M1280.68 30.9126V59.5992C1281.55 55.8664 1282.45 52.6705 1283.37 50.0114C1285.21 44.3866 1288.15 39.5033 1292.19 35.3614C1296.79 30.6058 1301.85 28.2281 1307.37 28.2281C1310.19 28.2792 1312.54 28.7138 1314.43 29.532L1318.88 31.603L1321.33 32.6768L1320.11 67.0393L1317.73 65.0451C1314.51 62.6929 1310.65 61.4912 1306.15 61.4401C1298.53 61.4912 1292.67 64.8405 1288.58 71.488C1285.26 76.7549 1283.6 83.5047 1283.6 91.7374V130.779H1252.23V30.9126H1280.68Z" fill="#FFC557"/>
<path d="M1332.99 99.1775L1336.37 100.942C1343.17 104.419 1349.05 106.643 1354.01 107.615C1357.18 108.331 1360.32 108.663 1363.44 108.612C1372.65 108.612 1377.25 106.055 1377.25 100.942C1377.15 98.1803 1375.41 96.2628 1372.03 95.189C1369.73 94.4219 1367.15 93.7061 1364.29 93.0413L1353.16 90.28C1348.56 89.0528 1344.63 87.3142 1341.35 85.0643C1333.78 79.7974 1330 71.8971 1330 61.3634C1330.05 50.3183 1334.07 41.9833 1342.04 36.3585C1349.56 30.9893 1359.05 28.2792 1370.5 28.2281C1381.49 28.3815 1390.42 30.5803 1397.27 34.8244L1401.87 38.1226V64.5081L1395.66 61.2867C1389.62 58.4742 1382.59 57.0425 1374.56 56.9913C1363.62 57.1959 1358.25 59.318 1358.46 63.3576C1358.41 65.8121 1360.58 67.4228 1364.98 68.1898C1366.61 68.5478 1370.12 69.4171 1375.49 70.7977L1387.07 74.0959C1391.46 75.5277 1395.1 77.5219 1397.96 80.0787C1403.07 84.9365 1405.65 91.405 1405.71 99.4843C1405.6 109.66 1402.23 117.816 1395.58 123.952C1392.41 126.918 1388.65 129.168 1384.31 130.702C1379.09 132.594 1373.62 133.514 1367.89 133.463C1359.45 133.566 1350.28 131.418 1340.36 127.02L1332.99 123.492V99.1775Z" fill="#FFC557"/>
</g>
</svg>
