<svg width="32" height="32" viewBox="0 0 32 32" fill="none" xmlns="http://www.w3.org/2000/svg">
<path fill-rule="evenodd" clip-rule="evenodd" d="M15.6838 4.25977C9.08511 4.25977 3.73584 9.60903 3.73584 16.2077C3.73584 18.1208 4.18473 19.9261 4.98204 21.5269C5.30204 22.1694 5.42526 22.9377 5.22336 23.6922L4.45403 26.5675C4.31274 27.0955 4.79586 27.5787 5.32393 27.4374L8.19923 26.6681C8.95382 26.4662 9.72208 26.5895 10.3646 26.9094C11.9653 27.7067 13.7707 28.1556 15.6838 28.1556C22.2824 28.1556 27.6317 22.8063 27.6317 16.2077C27.6317 9.60903 22.2824 4.25977 15.6838 4.25977ZM1.79834 16.2077C1.79834 8.53898 8.01505 2.32227 15.6838 2.32227C23.3525 2.32227 29.5692 8.53898 29.5692 16.2077C29.5692 23.8764 23.3525 30.0931 15.6838 30.0931C13.4643 30.0931 11.3638 29.5717 9.50074 28.6437C9.22272 28.5053 8.93885 28.4758 8.70002 28.5397L5.82472 29.3091C3.85644 29.8357 2.05573 28.035 2.58238 26.0667L3.3517 23.1915C3.41561 22.9526 3.38622 22.6687 3.24776 22.3908C2.3198 20.5277 1.79834 18.4272 1.79834 16.2077ZM15.6838 10.0723C16.2188 10.0723 16.6525 10.506 16.6525 11.041V11.0542C18.0589 11.4085 19.2358 12.5174 19.2358 14.0549C19.2358 14.5899 18.8021 15.0236 18.2671 15.0236C17.7321 15.0236 17.2983 14.5899 17.2983 14.0549C17.2983 13.5589 16.7483 12.8709 15.6838 12.8709C14.6192 12.8709 14.0692 13.5589 14.0692 14.0549C14.0692 14.551 14.6192 15.2389 15.6838 15.2389C17.4726 15.2389 19.2358 16.4787 19.2358 18.3605C19.2358 19.898 18.0589 21.0069 16.6525 21.3612V21.3743C16.6525 21.9094 16.2188 22.3431 15.6838 22.3431C15.1487 22.3431 14.715 21.9094 14.715 21.3743V21.3612C13.3086 21.0069 12.1317 19.898 12.1317 18.3605C12.1317 17.8255 12.5654 17.3918 13.1004 17.3918C13.6354 17.3918 14.0692 17.8255 14.0692 18.3605C14.0692 18.8565 14.6192 19.5444 15.6838 19.5444C16.7483 19.5444 17.2983 18.8565 17.2983 18.3605C17.2983 17.8644 16.7483 17.1764 15.6838 17.1764C13.8949 17.1764 12.1317 15.9368 12.1317 14.0549C12.1317 12.5174 13.3086 11.4085 14.715 11.0542V11.041C14.715 10.506 15.1487 10.0723 15.6838 10.0723Z" fill="white"/>
</svg>
