<?xml version="1.0" encoding="utf-8"?>
<!-- Generator: Adobe Illustrator 23.0.1, SVG Export Plug-In . SVG Version: 6.00 Build 0)  -->
<svg version="1.1" id="Layer_1" xmlns="http://www.w3.org/2000/svg" xmlns:xlink="http://www.w3.org/1999/xlink" x="0px" y="0px" viewBox="0 0 759 487" style="enable-background:new 0 0 759 487;" xml:space="preserve">
    <style type="text/css">
        .st0 {
            fill: #31271D;
        }
    </style>
    <path class="st0" d="M441.7,142l-8.5,4.7C394.8,83,339.5,45.1,265.4,37.6c-65.8-6.6-123.3,14.2-170.6,60.3
	C10.1,180.1,8,315.3,90.1,400.1c3.8,3.9,7.8,7.7,11.9,11.3c51,45.3,111.2,62.8,178.5,51.6S398,414.7,433.1,355.9l8.1,4.6
	C406.5,428.7,323.7,483.6,228.3,476C110.5,466.6,31.9,374.9,21.2,277C8.4,158.7,85.6,60.4,186.8,33.8C291.6,6.2,394.8,56,441.7,142z
	" />
</svg>