<svg width="49" height="49" viewBox="0 0 49 49" fill="none" xmlns="http://www.w3.org/2000/svg">
<path d="M23.4718 9.32816C23.9348 8.2894 24.1664 7.77002 24.4888 7.61008C24.7688 7.47112 25.0976 7.47112 25.3776 7.61008C25.7 7.77002 25.9316 8.2894 26.3946 9.32816L30.0826 17.602C30.2196 17.9091 30.288 18.0626 30.394 18.1802C30.4876 18.2843 30.6022 18.3675 30.73 18.4244C30.8746 18.4888 31.0418 18.5065 31.3762 18.5418L40.3848 19.4926C41.5158 19.6119 42.0812 19.6716 42.333 19.9288C42.5516 20.1522 42.6532 20.465 42.6076 20.7743C42.5552 21.1303 42.1328 21.5109 41.288 22.2723L34.5586 28.3367C34.309 28.5617 34.184 28.6743 34.105 28.8113C34.035 28.9327 33.9912 29.0673 33.9766 29.2065C33.96 29.3639 33.9948 29.5283 34.0646 29.8573L35.9442 38.7187C36.1802 39.8313 36.2982 40.3875 36.1314 40.7063C35.9864 40.9835 35.7204 41.1767 35.4122 41.2289C35.0574 41.2889 34.5648 41.0049 33.5796 40.4367L25.7326 35.9107C25.4414 35.7427 25.2958 35.6589 25.141 35.6259C25.004 35.5969 24.8624 35.5969 24.7254 35.6259C24.5706 35.6589 24.425 35.7427 24.1338 35.9107L16.2868 40.4367C15.3017 41.0049 14.8091 41.2889 14.4543 41.2289C14.1461 41.1767 13.88 40.9835 13.7351 40.7063C13.5683 40.3875 13.6863 39.8313 13.9223 38.7187L15.8018 29.8573C15.8716 29.5283 15.9064 29.3639 15.8899 29.2065C15.8752 29.0673 15.8315 28.9327 15.7615 28.8113C15.6824 28.6743 15.5575 28.5617 15.3078 28.3367L8.57851 22.2723C7.73369 21.5109 7.31127 21.1303 7.25875 20.7743C7.21315 20.465 7.31477 20.1522 7.53345 19.9288C7.78521 19.6716 8.35071 19.6119 9.48171 19.4926L18.4903 18.5418C18.8247 18.5065 18.9918 18.4888 19.1364 18.4244C19.2643 18.3675 19.3788 18.2843 19.4725 18.1802C19.5784 18.0626 19.6469 17.9091 19.7838 17.602L23.4718 9.32816Z" fill="#F8B80E"/>
</svg>
