<svg width="186" height="956" viewBox="0 0 186 956" fill="none" xmlns="http://www.w3.org/2000/svg">
<g opacity="0.05">
<path d="M120.128 952.375L122.265 948.285C126.479 940.043 129.175 932.917 130.352 926.906C131.22 923.064 131.622 919.253 131.56 915.473C131.56 904.319 128.462 898.742 122.265 898.742C118.919 898.866 116.595 900.973 115.294 905.063C114.365 907.851 113.497 910.981 112.691 914.451L109.345 927.929C107.858 933.506 105.751 938.277 103.025 942.243C96.642 951.414 87.068 956 74.3028 956C60.9178 955.938 50.8172 951.074 44.0008 941.407C37.4942 932.298 34.2099 920.803 34.148 906.922C34.3339 893.599 36.9985 882.786 42.1418 874.482L46.1386 868.905L78.1137 868.905L74.2098 876.434C70.8016 883.746 69.0665 892.267 69.0046 901.996C69.2524 915.257 71.8241 921.763 76.7195 921.515C79.6939 921.577 81.6459 918.944 82.5754 913.614C83.0092 911.631 84.0626 907.387 85.7357 900.88L89.7326 886.845C91.4677 881.515 93.8844 877.116 96.9828 873.646C102.87 867.449 110.709 864.319 120.499 864.257C132.831 864.381 142.715 868.471 150.151 876.527C153.745 880.369 156.471 884.924 158.33 890.191C160.623 896.511 161.739 903.142 161.677 910.082C161.801 920.307 159.198 931.43 153.869 943.452L149.593 952.375L120.128 952.375Z" fill="black"/>
<path d="M98.9347 809.416C108.292 809.478 114.303 808.859 116.967 807.557C122.606 804.831 125.364 799.781 125.24 792.406C125.116 779.269 116.348 772.639 98.9347 772.515L37.4012 772.515L37.4012 734.498L158.423 734.498L158.423 770.377L127.935 770.377L137.231 773.537C147.827 777.813 155.015 784.599 158.795 793.894C160.778 798.541 161.739 803.746 161.677 809.509C161.739 820.292 158.547 829.122 152.103 836C146.03 842.507 137.385 846.163 126.169 846.969C122.265 847.34 117.99 847.495 113.342 847.433L37.4013 847.433L37.4013 809.416L98.9347 809.416Z" fill="black"/>
<path d="M37.4012 712.19L37.4012 679.285L65.0077 679.285C54.4113 674.39 46.9752 669.216 42.6994 663.762C37.1224 656.76 34.2719 648.178 34.148 638.015C34.2719 623.081 40.3137 611.648 52.2734 603.716C62.2501 597.086 75.1083 593.801 90.848 593.863C108.633 593.863 123.908 597.024 136.673 603.344C153.28 611.648 161.615 623.917 161.677 640.153C161.739 647.837 159.787 654.56 155.821 660.323C153.094 664.351 147.765 668.968 139.833 674.173L186.773 674.173L186.773 712.19L37.4012 712.19ZM100.329 678.263C109.004 678.201 115.511 676.404 119.849 672.872C125.426 668.41 128.183 662.399 128.121 654.839C127.997 639.595 117.711 631.942 97.2616 631.88C89.5157 631.942 83.35 633.739 78.7644 637.271C73.2493 641.485 70.5227 647.124 70.5847 654.188C70.5847 662.368 73.6211 668.627 79.6939 672.965C84.8991 676.621 91.7775 678.387 100.329 678.263Z" fill="black"/>
<path d="M37.4012 574.622L37.4012 541.718L65.0076 541.718C54.4112 536.822 46.9752 531.648 42.6994 526.195C37.1224 519.193 34.2719 510.61 34.148 500.448C34.2719 485.514 40.3137 474.081 52.2734 466.149C62.2501 459.518 75.1083 456.234 90.848 456.296C108.633 456.296 123.908 459.456 136.673 465.777C153.28 474.081 161.615 486.35 161.677 502.586C161.739 510.269 159.787 516.993 155.821 522.756C153.094 526.784 147.765 531.4 139.833 536.606L186.773 536.606L186.773 574.622L37.4012 574.622ZM100.329 540.695C109.004 540.633 115.511 538.836 119.849 535.304C125.426 530.843 128.183 524.832 128.121 517.272C127.997 502.028 117.711 494.375 97.2616 494.313C89.5157 494.375 83.35 496.172 78.7644 499.704C73.2493 503.918 70.5227 509.557 70.5847 516.621C70.5847 524.801 73.6211 531.059 79.6939 535.397C84.8991 539.053 91.7775 540.819 100.329 540.695Z" fill="black"/>
<path d="M8.02875 399.131L158.423 399.131L158.423 437.148L8.02875 437.148L8.02875 399.131Z" fill="black"/>
<path d="M37.4012 375.615L39.4462 368.829C40.3757 365.049 40.8404 360.959 40.8404 356.56C40.9024 352.16 40.4376 348.07 39.4462 344.29L37.4012 337.598L158.423 337.598L158.423 375.615L37.4012 375.615ZM0.49973 356.467C0.747598 341.595 5.61203 334.19 15.093 334.251C22.2193 334.251 26.6809 338.217 28.4779 346.149C29.3455 349.371 29.7483 352.811 29.6863 356.467C29.9342 371.525 25.0697 379.023 15.093 378.961C5.61203 379.085 0.747599 371.587 0.49973 356.467Z" fill="black"/>
<path d="M115.108 281.92C128.617 279.317 135.433 269.031 135.557 251.06C135.681 239.225 132.18 228.814 125.054 219.829L118.268 211.928L144.295 211.928L148.663 217.412C157.339 229.124 161.677 242.819 161.677 258.496C161.615 286.444 149.655 304.476 125.798 312.594C116.874 315.692 107.548 317.21 97.8193 317.148C74.8295 317.21 57.8504 310.766 46.8822 297.815C38.4547 287.9 34.2099 275.042 34.1479 259.24C34.086 250.565 35.2634 242.819 37.6801 236.002C43.9388 218.156 59.2137 208.055 83.5049 205.7C86.1075 205.453 90.7241 205.329 97.3545 205.329L110.275 206.351L110.275 282.664L115.108 281.92ZM84.1555 282.664L84.1555 228.566L80.4375 229.031C73.0014 230.456 68.2299 234.918 66.1231 242.416C64.8837 246.63 64.264 251.184 64.264 256.08C64.4499 270.704 69.5622 279.348 79.6009 282.013L84.1555 282.664Z" fill="black"/>
<path d="M37.4012 151.51L72.1649 151.51C67.6412 150.457 63.7683 149.372 60.546 148.257C53.7296 146.026 47.8117 142.463 42.7924 137.567C37.0294 131.99 34.1479 125.856 34.1479 119.163C34.2099 115.755 34.7366 112.904 35.7281 110.612L38.2378 105.22L39.5391 102.246L81.1811 103.733L78.7644 106.615C75.9139 110.519 74.4576 115.197 74.3957 120.65C74.4576 129.883 78.5165 136.979 86.5722 141.936C92.9549 145.964 101.135 147.978 111.111 147.978L158.423 147.978L158.423 185.995L37.4012 185.995L37.4012 151.51Z" fill="black"/>
<path d="M120.128 88.1175L122.265 84.0276C126.479 75.786 129.175 68.6597 130.352 62.6489C131.22 58.8069 131.622 54.996 131.56 51.2159C131.56 40.0618 128.462 34.4848 122.265 34.4848C118.919 34.6088 116.595 36.7156 115.294 40.8055C114.365 43.594 113.497 46.7233 112.691 50.1935L109.345 63.6714C107.858 69.2484 105.751 74.02 103.025 77.9858C96.6419 87.157 87.068 91.7425 74.3027 91.7426C60.9178 91.6806 50.8171 86.8162 44.0007 77.1493C37.4942 68.0401 34.2099 56.5452 34.1479 42.6645C34.3338 29.3416 36.9984 18.5282 42.1417 10.2246L46.1386 4.64758L78.1137 4.64758L74.2098 12.1766C70.8016 19.4887 69.0665 28.0092 69.0045 37.7381C69.2524 50.9991 71.824 57.5056 76.7194 57.2577C79.6939 57.3197 81.6458 54.6861 82.5753 49.3569C83.0091 47.374 84.0626 43.1293 85.7357 36.6227L89.7326 22.5871C91.4676 17.2579 93.8844 12.8582 96.9827 9.38806C102.87 3.19134 110.708 0.0619459 120.499 -5.24535e-06C132.831 0.123957 142.715 4.2138 150.151 12.2695C153.745 16.1115 156.471 20.6661 158.33 25.9333C160.623 32.254 161.739 38.8845 161.677 45.8248C161.8 56.0494 159.198 67.1725 153.869 79.1942L149.593 88.1175L120.128 88.1175Z" fill="black"/>
</g>
</svg>
