<svg width="33" height="33" viewBox="0 0 33 33" fill="none" xmlns="http://www.w3.org/2000/svg">
<g clip-path="url(#clip0_184_3456)">
<path d="M31.5809 16.2077C31.5809 16.6803 31.5585 17.1478 31.5148 17.609C30.7593 16.8531 29.8748 16.2263 28.897 15.7643C28.6638 9.34737 23.3882 4.21679 16.9142 4.21679C10.2918 4.21679 4.92333 9.58529 4.92333 16.2077C4.92333 22.6817 10.0539 27.9573 16.4709 28.1905C16.9329 29.1682 17.5597 30.0527 18.3156 30.8082C17.8544 30.8519 17.3869 30.8743 16.9142 30.8743C8.81405 30.8743 2.24756 24.3078 2.24756 16.2077C2.24756 8.10751 8.81405 1.54102 16.9142 1.54102C25.0144 1.54102 31.5809 8.10751 31.5809 16.2077Z" fill="white"/>
<path d="M18.2472 16.0499L19.3707 16.6986C18.6268 17.2486 17.9675 17.9066 17.416 18.6493L16.2704 17.9878C16.0388 17.8541 15.8626 17.6614 15.7495 17.4397C15.5806 17.1782 15.5806 16.8306 15.5806 16.8306V8.20833C15.5806 7.47195 16.1775 6.875 16.9139 6.875C17.6503 6.875 18.2472 7.47196 18.2472 8.20833V16.0499Z" fill="white"/>
<path d="M21.3046 23.8178C21.8252 23.2972 22.6695 23.2972 23.1902 23.8178L24.045 24.6726L26.5771 22.1405C27.0979 21.6198 27.942 21.6198 28.4627 22.1405C28.9835 22.6613 28.9835 23.5054 28.4627 24.0262L25.0758 27.4132C24.9606 27.5284 24.8296 27.6181 24.6898 27.6822C24.1791 27.9809 23.5123 27.9113 23.0744 27.4733L21.3046 25.7034C20.7839 25.1828 20.7839 24.3385 21.3046 23.8178Z" fill="white"/>
<path fill-rule="evenodd" clip-rule="evenodd" d="M24.9141 32.208C29.3323 32.208 32.9141 28.6263 32.9141 24.208C32.9141 19.7897 29.3323 16.208 24.9141 16.208C20.4958 16.208 16.9141 19.7897 16.9141 24.208C16.9141 28.6263 20.4958 32.208 24.9141 32.208ZM24.9141 29.5655C21.9553 29.5655 19.5566 27.1668 19.5566 24.208C19.5566 21.2492 21.9553 18.8505 24.9141 18.8505C27.8729 18.8505 30.2715 21.2492 30.2715 24.208C30.2715 27.1668 27.8729 29.5655 24.9141 29.5655Z" fill="white"/>
</g>
<defs>
<clipPath id="clip0_184_3456">
<rect width="32" height="32" fill="white" transform="translate(0.914062 0.208008)"/>
</clipPath>
</defs>
</svg>
