<svg width="1127" height="246" viewBox="0 0 1127 246" fill="none" xmlns="http://www.w3.org/2000/svg">
<g opacity="0.02">
<path d="M7.92468 210.822C15.0897 210.904 19.8528 208.583 22.214 203.861C23.9239 200.36 24.7788 194.782 24.7788 187.129V48.8761L33.5722 51.563C38.4575 52.8657 43.8313 53.4764 49.6936 53.3949C55.393 53.3949 60.7668 52.7843 65.8149 51.563L74.7305 48.8761V185.785C74.6491 194.579 74.3641 201.907 73.8756 207.769C73.1428 215.829 70.9037 222.669 67.1583 228.287C59.6676 239.523 46.8845 245.141 28.8091 245.141C22.8654 245.222 17.2881 244.734 12.0771 243.675L0.352539 240.866V210.334L7.92468 210.822ZM49.8157 0.389978C57.4693 0.308557 63.8608 1.57058 68.9903 4.17605C75.7482 7.59572 79.1272 12.7252 79.1272 19.5646C79.0458 28.8466 73.8348 34.7089 63.4944 37.1515C59.2605 38.2914 54.701 38.8206 49.8157 38.7392C30.1119 39.0649 20.3006 32.6733 20.3821 19.5646C20.3006 10.2826 25.5116 4.42031 36.0149 1.97768C40.1673 0.837793 44.7676 0.308557 49.8157 0.389978Z" fill="black"/>
<path d="M98.9125 127.529C99.0753 99.7641 105.955 78.8797 119.553 64.8753C127.125 56.9775 135.755 51.6444 145.444 48.8761C155.134 46.0264 165.555 44.6015 176.71 44.6015C196.74 44.7643 211.762 47.5733 221.777 53.0285C235.292 60.4378 244.615 72.3253 249.745 88.6909C253.327 100.09 255.118 112.14 255.118 124.842C255.118 138.765 253.042 151.873 248.89 164.168C238.305 196.085 214.245 212.084 176.71 212.166C149.923 212.084 130.097 204.227 117.232 188.594C111.858 182.243 107.828 174.997 105.141 166.855C100.907 154.805 98.831 141.696 98.9125 127.529ZM144.223 130.338C144.305 144.749 147.154 155.456 152.772 162.458C158.39 169.379 166.41 172.758 176.832 172.595C198.653 172.514 209.645 157.776 209.808 128.384C209.808 122.277 208.953 116.415 207.243 110.797C206.103 107.296 204.352 103.917 201.991 100.66C199.386 97.1586 196.088 94.6346 192.099 93.0876C187.702 91.3778 182.735 90.4821 177.199 90.4007C165.8 90.3193 157.21 94.3089 151.429 102.37C146.544 109.127 144.142 118.45 144.223 130.338Z" fill="black"/>
<path d="M330.595 10.2826V76.4777L334.382 69.1499C344.152 52.7029 359.256 44.5201 379.692 44.6015C399.722 44.6829 414.622 52.9471 424.392 69.3941C432.127 82.2586 436.035 99.5605 436.117 121.3C436.035 145.563 431.517 165.471 422.56 181.022C410.591 201.622 393.9 212.003 372.486 212.166C359.052 212.247 347.735 207.728 338.534 198.609C335.766 196.004 333.323 192.787 331.206 188.961L325.71 179.068V207.891H280.644V10.2826H330.595ZM327.298 130.704C327.298 136.892 328.071 142.714 329.618 148.169C330.677 152.158 332.509 155.66 335.114 158.672C340 164.86 347.165 167.995 356.609 168.076C371.102 167.832 380.181 160.382 383.845 145.726C385.31 139.945 386.084 133.798 386.165 127.284C385.921 104.242 376.476 92.6398 357.831 92.4769C343.012 92.5584 333.649 99.4384 329.741 113.117C328.031 118.735 327.216 124.597 327.298 130.704Z" fill="black"/>
<path d="M543.837 48.8761H587.071V85.1491C593.503 71.2261 600.302 61.4556 607.467 55.8376C616.668 48.5097 627.944 44.7643 641.297 44.6015C660.92 44.7643 675.942 52.7029 686.364 68.4171C695.076 81.5258 699.391 98.4207 699.31 119.102C699.31 142.469 695.157 162.54 686.852 179.312C675.942 201.133 659.821 212.084 638.488 212.166C628.392 212.247 619.558 209.682 611.986 204.471C606.694 200.889 600.628 193.887 593.788 183.465V245.141H543.837V48.8761ZM588.415 131.559C588.496 142.958 590.857 151.507 595.498 157.206C601.36 164.534 609.258 168.158 619.192 168.076C639.221 167.913 649.277 154.397 649.358 127.529C649.277 117.351 646.915 109.25 642.274 103.224C636.738 95.978 629.328 92.3955 620.047 92.4769C609.299 92.4769 601.076 96.4666 595.376 104.446C590.572 111.285 588.252 120.323 588.415 131.559Z" fill="black"/>
<path d="M719.583 127.529C719.746 99.7641 726.626 78.8797 740.224 64.8753C747.796 56.9775 756.426 51.6444 766.116 48.8761C775.805 46.0264 786.227 44.6015 797.381 44.6015C817.411 44.7643 832.433 47.5733 842.448 53.0285C855.963 60.4378 865.286 72.3253 870.416 88.6909C873.998 100.09 875.789 112.14 875.789 124.842C875.789 138.765 873.713 151.873 869.561 164.168C858.976 196.085 834.916 212.084 797.381 212.166C770.594 212.084 750.768 204.227 737.903 188.594C732.529 182.243 728.499 174.997 725.812 166.855C721.578 154.805 719.502 141.696 719.583 127.529ZM764.894 130.338C764.976 144.749 767.825 155.456 773.443 162.458C779.061 169.379 787.081 172.758 797.503 172.595C819.324 172.514 830.316 157.776 830.479 128.384C830.479 122.277 829.624 116.415 827.914 110.797C826.774 107.296 825.023 103.917 822.662 100.66C820.057 97.1586 816.759 94.6346 812.77 93.0876C808.373 91.3778 803.406 90.4821 797.87 90.4007C786.471 90.3193 777.881 94.3089 772.1 102.37C767.215 109.127 764.813 118.45 764.894 130.338Z" fill="black"/>
<path d="M895.697 127.529C895.86 99.7641 902.74 78.8797 916.337 64.8753C923.909 56.9775 932.54 51.6444 942.229 48.8761C951.918 46.0264 962.34 44.6015 973.494 44.6015C993.524 44.7643 1008.55 47.5733 1018.56 53.0285C1032.08 60.4378 1041.4 72.3253 1046.53 88.6909C1050.11 100.09 1051.9 112.14 1051.9 124.842C1051.9 138.765 1049.83 151.873 1045.67 164.168C1035.09 196.085 1011.03 212.084 973.494 212.166C946.707 212.084 926.881 204.227 914.016 188.594C908.643 182.243 904.612 174.997 901.925 166.855C897.692 154.805 895.615 141.696 895.697 127.529ZM941.008 130.338C941.089 144.749 943.939 155.456 949.557 162.458C955.175 169.379 963.195 172.758 973.617 172.595C995.437 172.514 1006.43 157.776 1006.59 128.384C1006.59 122.277 1005.74 116.415 1004.03 110.797C1002.89 107.296 1001.14 103.917 998.776 100.66C996.17 97.1586 992.873 94.6346 988.883 93.0876C984.486 91.3778 979.52 90.4821 973.983 90.4007C962.584 90.3193 953.994 94.3089 948.213 102.37C943.328 109.127 940.926 118.45 941.008 130.338Z" fill="black"/>
<path d="M1126.65 10.2826V207.891H1076.7V10.2826H1126.65Z" fill="black"/>
</g>
</svg>
