<svg width="11" height="15" viewBox="0 0 11 15" fill="none" xmlns="http://www.w3.org/2000/svg">
<path fill-rule="evenodd" clip-rule="evenodd" d="M1.10021 9.13865C1.0338 9.14424 0.967278 9.14985 0.901208 9.15766C0.837233 9.16451 0.781249 9.19308 0.7367 9.23992C0.675005 9.30161 0.640734 9.39072 0.652162 9.47982C0.672721 9.63519 0.817814 9.74372 0.972041 9.72658C1.08514 9.71402 1.19823 9.70374 1.31134 9.69574C1.34808 9.69391 1.38483 9.69503 1.42098 9.69613C1.42978 9.6964 1.43855 9.69666 1.44728 9.69688C1.49526 9.70146 1.54325 9.70603 1.59123 9.71517C1.67919 9.73459 1.76259 9.75858 1.84713 9.786C1.99449 9.83741 2.1373 9.90023 2.27782 9.96764C2.42633 10.043 2.57142 10.1242 2.71194 10.2144C2.92557 10.3572 3.12663 10.5194 3.32199 10.6851L3.32313 10.6862C3.32464 10.6877 3.32664 10.6897 3.32882 10.6913C3.50136 10.8441 3.65842 11.0125 3.81437 11.182C3.97202 11.3717 4.12739 11.559 4.26334 11.7612C4.35816 11.9063 4.44384 12.056 4.52038 12.2102C4.63691 12.4547 4.72601 12.7083 4.81512 12.9642C4.87453 13.1516 4.93394 13.3389 4.99106 13.5263C4.99849 13.5505 5.006 13.5749 5.01351 13.5992C5.05797 13.7432 5.10275 13.8882 5.135 14.0358C5.13344 14.0467 5.13189 14.0576 5.13069 14.0681C5.13013 14.0731 5.12965 14.0779 5.12929 14.0826C5.12015 14.2197 5.16127 14.3362 5.28466 14.4094C5.37033 14.4585 5.48115 14.4573 5.56684 14.4082C5.64795 14.3637 5.69364 14.286 5.70964 14.1969C5.71763 14.1569 5.71878 14.1169 5.71763 14.0769C5.72677 14.0495 5.73477 14.0209 5.74391 13.9935C5.85901 13.6929 5.99597 13.4011 6.13235 13.1105L6.14147 13.091C6.23857 12.8979 6.3414 12.7106 6.45792 12.5301C6.55388 12.3884 6.65899 12.2536 6.77094 12.1234C7.00948 11.855 7.27234 11.6095 7.53535 11.3638C7.5948 11.3082 7.65425 11.2527 7.71343 11.1969C7.94991 10.9764 8.18754 10.757 8.42516 10.5377C8.60109 10.3846 8.77931 10.2384 8.97124 10.1082C9.06035 10.051 9.1506 9.99962 9.24427 9.95164C9.31511 9.91965 9.38594 9.88995 9.46019 9.86367C9.50818 9.84996 9.55501 9.8374 9.60414 9.82712C9.63955 9.82141 9.67611 9.81684 9.7138 9.81341C9.7198 9.81342 9.72593 9.81329 9.73213 9.81317C9.74483 9.81291 9.75788 9.81265 9.77093 9.81341C9.79834 9.8157 9.82462 9.81913 9.85204 9.8237C9.8599 9.82527 9.86723 9.82739 9.87514 9.82966C9.87872 9.8307 9.8824 9.83176 9.88632 9.83283C9.90916 9.84197 9.93315 9.85225 9.95486 9.86253C10.1342 9.94822 10.3524 9.78942 10.3478 9.59749C10.3467 9.53238 10.3273 9.46954 10.2873 9.41813C10.2496 9.36901 10.1982 9.33588 10.1422 9.31874C9.73666 9.14167 9.26255 9.28676 8.89355 9.48668C8.54854 9.67404 8.24123 9.92652 7.95334 10.1916C7.70658 10.42 7.46097 10.6474 7.21649 10.8781C7.16557 10.9261 7.11435 10.9738 7.06308 11.0217C6.72442 11.3376 6.38348 11.6556 6.11063 12.0297C6.04212 12.1238 5.97757 12.2202 5.91646 12.3184C5.9273 12.2156 5.9377 12.1129 5.94726 12.0103C5.97582 11.703 6.0021 11.3957 6.02495 11.0872C6.04779 10.7422 6.06607 10.3995 6.08207 10.0545C6.10949 9.47639 6.12091 8.89605 6.12548 8.31799C6.12977 7.87435 6.13206 7.43058 6.13435 6.98676C6.13878 6.12886 6.14322 5.27078 6.16204 4.41321C6.16661 4.1967 6.1722 3.98121 6.17779 3.76572C6.18058 3.65829 6.18336 3.55086 6.18602 3.4433C6.18787 3.36585 6.18995 3.28815 6.19205 3.21032L6.19206 3.20978C6.19775 2.99848 6.20347 2.78616 6.2043 2.57506L6.20434 2.57142L6.20435 2.56967C6.20662 2.27218 6.20886 1.97694 6.20773 1.68055C6.20659 1.52861 6.20545 1.37666 6.20545 1.22586C6.20579 1.16236 6.20563 1.09876 6.20547 1.03509C6.20509 0.882273 6.20471 0.72905 6.21116 0.575828C6.21116 0.56897 6.2123 0.563269 6.2123 0.556412C6.25457 0.452451 6.23515 0.327925 6.15176 0.244527L6.14718 0.239957C6.03294 0.130286 5.85815 0.131433 5.74277 0.23996C5.74162 0.241104 5.73934 0.243384 5.7382 0.24224C5.66851 0.311926 5.65138 0.404468 5.64452 0.498147L5.64452 0.49586C5.64452 0.500431 5.64338 0.506142 5.64338 0.510712L5.64333 0.511528C5.64328 0.511957 5.6432 0.512351 5.64312 0.512745C5.64287 0.514014 5.64262 0.515279 5.64338 0.517563C5.64418 0.519948 5.64386 0.52234 5.6436 0.52434C5.64348 0.525181 5.64338 0.526038 5.64338 0.526708L5.64338 0.522137C5.63017 0.727896 5.63177 0.935991 5.63337 1.14321L5.63337 1.14338L5.63354 1.16618C5.63382 1.20211 5.63408 1.238 5.63424 1.27385C5.63424 1.36335 5.63515 1.45241 5.63605 1.54131L5.63605 1.54177C5.63718 1.65242 5.63831 1.76284 5.63767 1.87361C5.63424 2.3203 5.62967 2.76584 5.61939 3.21253C5.61448 3.44804 5.60798 3.68337 5.60149 3.91873L5.60147 3.91963C5.59138 4.28566 5.58128 4.65175 5.57712 5.01869C5.57026 5.62646 5.56341 6.23422 5.56227 6.84084L5.56167 7.01755L5.56167 7.01897C5.55968 7.61287 5.55769 8.20591 5.54627 8.79895C5.53942 9.1371 5.53028 9.47525 5.52 9.81456C5.51358 9.98918 5.50495 10.1633 5.4963 10.3376C5.4911 10.4427 5.48589 10.5478 5.48116 10.6531C5.44689 11.142 5.41033 11.631 5.3612 12.1165C5.3438 12.289 5.32585 12.4608 5.30621 12.6326C5.25529 12.4844 5.20065 12.3378 5.13957 12.1942C5.0002 11.8675 4.82769 11.5556 4.6152 11.27C4.60107 11.2506 4.58713 11.2308 4.57314 11.211C4.53847 11.1619 4.50347 11.1122 4.46441 11.0666C4.43642 11.0329 4.40843 10.9998 4.38044 10.9667C4.35245 10.9335 4.32446 10.9004 4.29647 10.8667C4.19366 10.7456 4.08512 10.6257 3.97316 10.5137C3.81437 10.3549 3.64757 10.2064 3.47164 10.067C3.30485 9.93451 3.13806 9.80427 2.95641 9.69117C2.76677 9.57236 2.568 9.46726 2.36236 9.37586C2.18643 9.29818 2.00706 9.22621 1.81971 9.18051C1.62435 9.13139 1.42329 9.11083 1.22108 9.12796C1.18092 9.13185 1.14058 9.13525 1.10021 9.13865ZM3.32882 10.6913C3.32993 10.692 3.3311 10.6927 3.33227 10.6931C3.32998 10.6908 3.32656 10.6874 3.32313 10.6862C3.32503 10.6879 3.32693 10.6896 3.32882 10.6913Z" fill="#FDFDFD"/>
</svg>
