<svg width="1344" height="246" viewBox="0 0 1344 246" fill="none" xmlns="http://www.w3.org/2000/svg">
<g opacity="0.1">
<path d="M8.08356 211.299C15.2474 211.38 20.0097 209.06 22.3705 204.338C24.0801 200.838 24.9349 195.261 24.9349 187.609V49.3797L33.7268 52.0661C38.6113 53.3686 43.9841 53.9792 49.8455 53.8978C55.544 53.8978 60.9168 53.2872 65.9641 52.0661L74.8782 49.3797V186.266C74.7968 195.058 74.5118 202.384 74.0234 208.246C73.2907 216.305 71.052 223.143 67.3073 228.76C59.8178 239.995 47.0369 245.612 28.9645 245.612C23.0218 245.693 17.4454 245.205 12.2353 244.146L0.512695 241.338V210.81L8.08356 211.299ZM49.9676 0.901695C57.6198 0.820288 64.0103 2.0821 69.139 4.68713C75.8958 8.10623 79.2742 13.2349 79.2742 20.0731C79.1927 29.3535 73.9827 35.2148 63.644 37.657C59.4108 38.7967 54.852 39.3259 49.9676 39.2445C30.267 39.5701 20.4575 33.1796 20.5389 20.0731C20.4575 10.7927 25.6675 4.93135 36.169 2.48914C40.3208 1.34943 44.9203 0.820288 49.9676 0.901695Z" fill="#FFC557"/>
<path d="M99.0561 128.019C99.2189 100.259 106.098 79.3782 119.693 65.3762C127.264 57.4797 135.893 52.1475 145.58 49.3797C155.268 46.5304 165.688 45.1058 176.841 45.1058C196.867 45.2686 211.886 48.0772 221.9 53.5314C235.413 60.9395 244.734 72.8249 249.863 89.1878C253.445 100.585 255.236 112.633 255.236 125.333C255.236 139.253 253.16 152.36 249.008 164.652C238.425 196.564 214.369 212.56 176.841 212.642C150.058 212.56 130.235 204.705 117.373 189.074C112 182.725 107.97 175.479 105.284 167.339C101.051 155.29 98.9747 142.184 99.0561 128.019ZM144.359 130.828C144.441 145.237 147.29 155.942 152.907 162.943C158.524 169.862 166.543 173.241 176.963 173.078C198.78 172.997 209.77 158.262 209.933 128.874C209.933 122.768 209.078 116.907 207.368 111.29C206.229 107.789 204.478 104.411 202.118 101.155C199.513 97.6541 196.216 95.1305 192.227 93.5838C187.831 91.8742 182.865 90.9788 177.329 90.8973C165.932 90.8159 157.344 94.8049 151.564 102.864C146.679 109.621 144.278 118.942 144.359 130.828Z" fill="#FFC557"/>
<path d="M330.7 10.7927V76.9767L334.486 69.6501C344.255 53.2058 359.356 45.0244 379.789 45.1058C399.815 45.1872 414.712 53.45 424.481 69.8943C432.215 82.7566 436.123 100.056 436.204 121.791C436.123 146.051 431.604 165.955 422.65 181.504C410.683 202.1 393.994 212.479 372.584 212.642C359.152 212.723 347.836 208.205 338.637 199.088C335.87 196.482 333.427 193.267 331.311 189.441L325.816 179.55V208.368H280.757V10.7927H330.7ZM327.403 131.194C327.403 137.381 328.177 143.201 329.723 148.656C330.782 152.645 332.613 156.145 335.218 159.157C340.103 165.344 347.267 168.478 356.71 168.56C371.2 168.316 380.277 160.867 383.941 146.214C385.406 140.434 386.179 134.287 386.261 127.775C386.016 104.737 376.573 93.136 357.931 92.9732C343.115 93.0546 333.753 99.9335 329.845 113.61C328.136 119.227 327.322 125.088 327.403 131.194Z" fill="#FFC557"/>
<path d="M594.46 10.7927V76.9767L598.245 69.6501C608.014 53.2058 623.115 45.0244 643.548 45.1058C663.574 45.1872 678.472 53.45 688.241 69.8943C695.974 82.7566 699.882 100.056 699.963 121.791C699.882 146.051 695.364 165.955 686.409 181.504C674.442 202.1 657.754 212.479 636.344 212.642C622.911 212.723 611.596 208.205 602.397 199.088C599.629 196.482 597.187 193.267 595.07 189.441L589.575 179.55V208.368H544.516V10.7927H594.46ZM591.163 131.194C591.163 137.381 591.936 143.201 593.483 148.656C594.541 152.645 596.373 156.145 598.978 159.157C603.862 165.344 611.026 168.478 620.469 168.56C634.96 168.316 644.036 160.867 647.7 146.214C649.165 140.434 649.939 134.287 650.02 127.775C649.776 104.737 640.333 93.136 621.69 92.9732C606.874 93.0546 597.512 99.9335 593.605 113.61C591.895 119.227 591.081 125.088 591.163 131.194Z" fill="#FFC557"/>
<path d="M719.623 128.019C719.786 100.259 726.665 79.3782 740.26 65.3762C747.831 57.4797 756.46 52.1475 766.147 49.3797C775.835 46.5304 786.255 45.1058 797.408 45.1058C817.434 45.2686 832.453 48.0772 842.467 53.5314C855.98 60.9395 865.301 72.8249 870.43 89.1878C874.012 100.585 875.803 112.633 875.803 125.333C875.803 139.253 873.727 152.36 869.575 164.652C858.992 196.564 834.936 212.56 797.408 212.642C770.625 212.56 750.802 204.705 737.94 189.074C732.567 182.725 728.537 175.479 725.851 167.339C721.618 155.29 719.542 142.184 719.623 128.019ZM764.926 130.828C765.008 145.237 767.857 155.942 773.474 162.943C779.091 169.862 787.11 173.241 797.53 173.078C819.347 172.997 830.337 158.262 830.5 128.874C830.5 122.768 829.645 116.907 827.935 111.29C826.796 107.789 825.045 104.411 822.685 101.155C820.08 97.6541 816.783 95.1305 812.794 93.5838C808.398 91.8742 803.432 90.9788 797.896 90.8973C786.499 90.8159 777.911 94.8049 772.131 102.864C767.246 109.621 764.845 118.942 764.926 130.828Z" fill="#FFC557"/>
<path d="M915.245 59.8812C923.955 54.9154 932.991 51.1706 942.353 48.647C951.308 46.2862 960.507 45.1058 969.95 45.1058C979.312 45.1058 988.43 46.2862 997.303 48.647C1014.72 53.3686 1025.63 61.835 1030.03 74.0461C1032.96 82.024 1034.51 93.6245 1034.67 108.848V208.368H991.32V180.16L987.656 186.388C976.829 203.972 962.298 212.723 944.063 212.642C937.876 212.642 931.77 211.706 925.746 209.833C904.58 203.565 894.16 189.97 894.486 169.048C894.323 153.907 899.818 142.347 910.971 134.369C917.89 129.403 930.305 124.966 948.214 121.059L967.874 116.785C972.107 115.889 975.852 114.709 979.109 113.244C984.726 110.72 987.493 106.568 987.412 100.788C987.575 90.2054 979.19 84.8325 962.257 84.6697C956.803 84.7511 951.308 85.4431 945.772 86.7456C940.237 88.0481 935.108 89.8798 930.386 92.2406C923.222 95.8225 916.018 100.381 908.773 105.917L902.667 110.679L901.812 68.429L915.245 59.8812ZM989.366 134.735L983.993 137.177C980.411 138.805 976.422 140.312 972.026 141.695L959.815 145.481C946.627 149.47 939.952 155.575 939.789 163.797C939.789 173.241 945.243 178.084 956.152 178.329C960.059 178.491 963.641 177.8 966.897 176.253C971.049 174.543 974.875 171.653 978.376 167.583C985.295 159.768 988.959 150.243 989.366 139.009V134.735Z" fill="#FFC557"/>
<path d="M1108.79 49.3797V95.0491C1110.17 89.1064 1111.6 84.0184 1113.06 79.7853C1115.99 70.8305 1120.68 63.0561 1127.11 56.4621C1134.43 48.8912 1142.49 45.1058 1151.28 45.1058C1155.76 45.1872 1159.51 45.8792 1162.52 47.1817L1169.6 50.4787L1173.51 52.1882L1171.56 106.894L1167.77 103.719C1162.64 99.9742 1156.49 98.0612 1149.33 97.9798C1137.2 98.0612 1127.88 103.393 1121.37 113.976C1116.08 122.361 1113.43 133.107 1113.43 146.214V208.368H1063.49V49.3797H1108.79Z" fill="#FFC557"/>
<path d="M1343.49 10.7927V208.368H1298.67V177.23L1295.25 183.824C1291.92 190.173 1288.46 195.099 1284.87 198.599C1280.23 203.239 1274.62 206.78 1268.02 209.223C1261.92 211.584 1255.57 212.723 1248.97 212.642C1232.12 212.723 1218.53 206.618 1208.19 194.325C1201.59 186.754 1196.83 178.044 1193.9 168.193C1189.91 155.575 1187.96 142.225 1188.04 128.141C1187.96 113.732 1190.03 100.096 1194.27 87.234C1197.52 77.1395 1202.37 68.7546 1208.8 62.0792C1219.38 50.845 1233.1 45.1872 1249.95 45.1058C1269.16 45.2686 1282.47 52.7174 1289.88 67.4521L1293.54 75.8777V10.7927H1343.49ZM1237.98 130.828C1237.74 149.633 1243.44 161.355 1255.08 165.995C1258.99 167.786 1263.18 168.641 1267.66 168.56C1287.6 168.316 1297.61 154.965 1297.7 128.507C1297.7 104.818 1287.52 92.9732 1267.17 92.9732C1257.89 93.0546 1250.81 96.3109 1245.92 102.742C1240.63 109.336 1237.98 118.698 1237.98 130.828Z" fill="#FFC557"/>
</g>
</svg>
