<svg width="1237" height="339" viewBox="0 0 1237 339" fill="none" xmlns="http://www.w3.org/2000/svg">
<g opacity="0.02">
<path d="M7.17097 217.468L14.6035 221.353C29.5813 229.011 42.532 233.91 53.4556 236.05C60.4377 237.626 67.3635 238.358 74.233 238.246C94.5037 238.246 104.639 232.615 104.639 221.353C104.414 215.272 100.585 211.049 93.1523 208.684C88.0846 206.995 82.3976 205.418 76.0912 203.954L51.5975 197.873C41.4622 195.17 32.7908 191.342 25.5835 186.387C8.9165 174.787 0.583008 157.388 0.583008 134.19C0.695623 109.865 9.53588 91.5086 27.1038 79.121C43.6581 67.2964 64.5482 61.3278 89.7739 61.2152C113.986 61.5531 133.637 66.3955 148.728 75.7425L158.863 83.0062V141.115L145.18 134.021C131.892 127.827 116.407 124.674 98.7267 124.561C74.6272 125.011 62.8026 129.685 63.2531 138.582C63.1405 143.987 67.9266 147.534 77.6115 149.224C81.2151 150.012 88.9293 151.926 100.754 154.967L126.261 162.231C135.946 165.384 143.942 169.776 150.248 175.407C161.509 186.105 167.196 200.351 167.309 218.144C167.084 240.554 159.651 258.516 145.011 272.03C138.029 278.562 129.752 283.517 120.18 286.895C108.693 291.062 96.6434 293.089 84.0305 292.976C65.4491 293.202 45.2347 288.472 23.3875 278.787L7.17097 271.016V217.468Z" fill="black"/>
<path d="M202.614 67.1275L214.945 70.8438C221.815 72.533 229.247 73.3776 237.243 73.3776C245.238 73.4902 252.671 72.6456 259.541 70.8438L271.703 67.1275V287.064H202.614V67.1275ZM237.412 0.0654297C264.439 0.515889 277.897 9.35614 277.784 26.5862C277.784 39.5369 270.577 47.6452 256.162 50.911C250.306 52.4876 244.056 53.2196 237.412 53.107C210.046 53.5574 196.42 44.7172 196.533 26.5862C196.307 9.35614 209.934 0.515889 237.412 0.0654297Z" fill="black"/>
<path d="M379.137 67.1275V118.142L386.739 102.094C390.68 94.0987 395.298 87.1729 400.59 81.317C412.302 68.141 427.956 61.4405 447.551 61.2152C476.718 61.5531 496.482 76.9813 506.842 107.5L509.714 116.284L516.978 102.094C531.956 74.729 552.958 61.1026 579.986 61.2152C589.896 61.2152 599.299 62.9608 608.196 66.4518C616.191 69.605 622.948 74.3912 628.466 80.8102C633.984 87.1166 637.588 93.7046 639.277 100.574C640.629 106.205 641.417 113.074 641.642 121.183L641.98 142.636V287.064H572.891V170.17L572.553 154.122C571.427 136.217 562.362 127.32 545.357 127.433C526.437 127.32 516.021 136.386 514.106 154.629L513.599 170.17V287.064H444.51V170.17L444.172 154.798C443.046 136.442 434.093 127.32 417.314 127.433C398.62 127.433 388.203 136.498 386.063 154.629C385.388 159.359 385.106 164.539 385.219 170.17V287.064H316.129V67.1275H379.137Z" fill="black"/>
<path d="M680.832 67.1275H740.631V117.297C749.527 98.0402 758.931 84.5265 768.841 76.7561C781.566 66.6207 797.163 61.4405 815.632 61.2152C842.772 61.4405 863.55 72.4204 877.964 94.155C890.014 112.286 895.983 135.654 895.87 164.258C895.87 196.578 890.127 224.338 878.64 247.536C863.55 277.717 841.252 292.864 811.747 292.976C797.783 293.089 785.564 289.542 775.091 282.334C767.771 277.379 759.381 267.694 749.921 253.28V338.585H680.832V67.1275ZM742.489 181.488C742.601 197.254 745.867 209.078 752.286 216.961C760.395 227.097 771.318 232.108 785.057 231.995C812.76 231.77 826.668 213.076 826.781 175.913C826.668 161.836 823.402 150.631 816.983 142.298C809.326 132.275 799.078 127.32 786.24 127.433C771.374 127.433 760 132.951 752.117 143.987C745.473 153.447 742.264 165.947 742.489 181.488Z" fill="black"/>
<path d="M999.757 13.7481V287.064H930.668V13.7481H999.757Z" fill="black"/>
<path d="M1097.23 208.346C1101.95 232.896 1120.65 245.284 1153.31 245.509C1174.82 245.734 1193.74 239.372 1210.07 226.421L1224.42 214.09V261.388L1214.46 269.327C1193.17 285.093 1168.29 292.976 1139.79 292.976C1089 292.864 1056.23 271.129 1041.48 227.772C1035.85 211.556 1033.09 194.607 1033.2 176.927C1033.09 135.147 1044.8 104.29 1068.34 84.3576C1086.36 69.042 1109.73 61.3278 1138.44 61.2152C1154.21 61.1026 1168.29 63.2423 1180.67 67.6343C1213.11 79.0084 1231.46 106.768 1235.74 150.913C1236.19 155.643 1236.42 164.032 1236.42 176.082L1234.56 199.562H1095.87L1097.23 208.346ZM1095.87 152.095H1194.19L1193.34 145.338C1190.75 131.825 1182.64 123.153 1169.02 119.324C1161.36 117.072 1153.08 115.946 1144.19 115.946C1117.61 116.284 1101.9 125.575 1097.06 143.818L1095.87 152.095Z" fill="black"/>
</g>
</svg>
