<?xml version="1.0" standalone="no"?>
<!DOCTYPE svg PUBLIC "-//W3C//DTD SVG 1.1//EN" "http://www.w3.org/Graphics/SVG/1.1/DTD/svg11.dtd" >
<svg xmlns="http://www.w3.org/2000/svg" xmlns:xlink="http://www.w3.org/1999/xlink" version="1.1">
<metadata>
Created by FontForge 20190801 at Wed Jan  5 10:44:23 1994
 By www-data
Copyright (c) 1992 Miles Corporation. All Rights Reserved.
</metadata>
<defs>
<font id="AntiqueOlive" horiz-adv-x="1214" >
  <font-face 
    font-family="AntiqueOlive"
    font-weight="400"
    font-stretch="normal"
    units-per-em="2048"
    panose-1="2 11 6 3 2 2 4 3 2 4"
    ascent="1638"
    descent="-410"
    x-height="1302"
    cap-height="1536"
    bbox="-1637 -512 3120 2118"
    underline-thickness="105"
    underline-position="-458"
    unicode-range="U+0020-F004"
  />
<missing-glyph horiz-adv-x="1022" 
d="M76 0v1458h870v-1458h-870zM332 256h358v946h-358v-946z" />
    <glyph glyph-name=".notdef" horiz-adv-x="1022" 
d="M76 0v1458h870v-1458h-870zM332 256h358v946h-358v-946z" />
    <glyph glyph-name=".null" horiz-adv-x="0" 
 />
    <glyph glyph-name="nonmarkingreturn" horiz-adv-x="607" 
 />
    <glyph glyph-name="space" unicode=" " horiz-adv-x="605" 
 />
    <glyph glyph-name="exclam" unicode="!" horiz-adv-x="645" 
d="M305 228q144 -1 144 -131q2 -125 -140 -128q-147 2 -146 127q-3 130 142 132zM231 428l-18 207l-17 236l-13 252l-4 166v143q0 72 23 101q27 33 98 34q75 0 103.5 -29.5t29.5 -105.5v-143l-4 -166l-13 -252l-17 -236l-18 -207l-6 -69h-138z" />
    <glyph glyph-name="quotedbl" unicode="&#x22;" horiz-adv-x="872" 
d="M380 1536l-37 -489h-147l-38 489h222zM724 1536l-37 -489h-147l-38 489h222z" />
    <glyph glyph-name="numbersign" unicode="#" 
d="M365 426h-163l31 131h163l42 182h-163l31 131h163l167 720h115l-168 -720h178l168 720h115l-169 -720h158l-31 -131h-158l-42 -182h158l-31 -131h-157l-178 -760h-114l178 760h-178l-178 -760h-115zM510 557h178l43 182h-178z" />
    <glyph glyph-name="dollar" unicode="$" 
d="M177 398l39 -43q177 -190 393 -188q119 -1 194 71q83 81 83 191q-2 145 -137 199q-59 23 -147 45q-98 23 -181 55.5t-141 81.5q-148 120 -148 327q1 172 100 295q107 133 269 155l32 3v117h170v-115l36 -7q111 -25 207 -82l76 -49v-284l-36 36q-82 80 -168 122
q-78 38 -173 38q-112 0 -193 -57q-93 -65 -91 -172q0 -130 134 -190q73 -32 177 -62q110 -33 195 -72q222 -108 224 -376q0 -170 -94 -300q-85 -117 -265 -161l-29 -7v-145h-170v146l-28 6q-139 30 -242 91l-86 57v274z" />
    <glyph glyph-name="percent" unicode="%" horiz-adv-x="2086" 
d="M1705 782q84 127 272 128q190 -1 270 -128q62 -97 64 -301q-2 -229 -53 -344q-75 -168 -281 -168q-206 -1 -282 167q-51 113 -53 344q1 210 63 302zM1783 472q1 -163 23 -240q43 -144 170 -143q122 0 164 125q27 81 30 258q-2 144 -29 213q-41 103 -172 105
q-118 -2 -161 -112q-24 -63 -25 -206zM1695 1590h146l-1124 -1621h-146zM636 1447q84 127 272 128q190 -1 270 -128q62 -97 64 -301q-2 -229 -53 -344q-75 -168 -281 -168q-206 -1 -282 167q-51 113 -53 344q1 210 63 302zM714 1137q1 -163 23 -240q43 -144 170 -143
q122 0 164 125q27 81 30 258q-2 144 -29 213q-41 103 -172 105q-118 -2 -161 -112q-24 -63 -25 -206z" />
    <glyph glyph-name="ampersand" unicode="&#x26;" horiz-adv-x="1479" 
d="M1043 437v0l29 40q43 62 100 169.5t90 188.5l26 65v-392l-63 -97l-75 -96v0l239 -315h-249l-121 153v0l-32 -30q-167 -154 -366 -154q-105 0 -199 39q-80 32 -135.5 86t-85 125.5t-28.5 148.5q-1 222 246 420l46 35v0l-30 34q-92 109 -127 221q-23 70 -22 140
q0 116 70.5 207t180.5 122q69 20 147 20q161 -2 251 -75q103 -84 105 -236q0 -87 -35 -158q-67 -136 -221 -259l-35 -27v0zM906 286v0l-313 395v0l-41 -35q-154 -143 -155 -276q0 -94 74 -157q69 -60 165 -60q130 -1 245 108zM643 942v0l48 41q41 35 69 69q35 42 57 86.5
t22 96.5q-3 146 -156 148q-77 1 -127 -51q-46 -48 -46 -128q-1 -56 20 -100q22 -52 67 -106z" />
    <glyph glyph-name="quotesingle" unicode="'" horiz-adv-x="531" 
d="M380 1536l-37 -489h-147l-38 489h222z" />
    <glyph glyph-name="parenleft" unicode="(" horiz-adv-x="607" 
d="M-280 1426q-43 -70 -79 -150q-103 -236 -104 -513q0 -177 36 -331q47 -199 144 -359l70 -104h190l-57 92q-36 61 -64 130q-103 251 -103 552q2 418 162 696l62 97h-182z" />
    <glyph glyph-name="parenright" unicode=")" horiz-adv-x="607" 
d="M280 1426q43 -70 79 -150q103 -236 104 -513q0 -177 -36 -331q-47 -199 -144 -359l-70 -104h-190l57 92q36 61 64 130q103 251 103 552q-2 418 -162 696l-62 97h182z" />
    <glyph glyph-name="asterisk" unicode="*" 
d="M266 1256q17 82 55 150l53 -21q70 -29 128 -58l60 -32l-12 69q-15 81 -18 128l-4 68q56 7 85 7q30 0 88 -7l-4 -68q-4 -49 -18 -128l-12 -69l60 32q61 31 127 58l54 21q37 -68 55 -150l-49 -17q-80 -26 -171 -40l-58 -8l46 -44q58 -58 113 -123l39 -48q-59 -59 -131 -95
l-35 52q-40 60 -77 134l-26 52v0l-26 -52q-42 -82 -76 -134l-36 -52q-73 37 -130 95l39 48q54 65 113 123l46 44l-58 8q-92 14 -171 40l-49 17v0z" />
    <glyph glyph-name="plus" unicode="+" horiz-adv-x="2086" 
d="M974 645v541h149v-541h541v-149h-541v-541h-149v541h-541v149h541z" />
    <glyph glyph-name="comma" unicode="," horiz-adv-x="607" 
d="M147 -282l32 102q38 145 45 285v121h187l2 -70q-2 -152 -79 -333q-21 -49 -52 -105l-30 -54h-124z" />
    <glyph glyph-name="hyphen" unicode="-" horiz-adv-x="607" 
d="M549 793v-212h-476v212h476z" />
    <glyph glyph-name="period" unicode="." horiz-adv-x="607" 
d="M310 228q141 -1 139 -127q1 -59 -43 -100q-36 -33 -103 -32q-142 2 -140 127q-2 131 147 132z" />
    <glyph glyph-name="slash" unicode="/" horiz-adv-x="645" 
d="M501 1618h151l-509 -1649h-151z" />
    <glyph glyph-name="zero" unicode="0" 
d="M164 1353q127 235 456 237q130 0 231 -37q190 -71 255 -297q47 -163 46 -403q1 -249 -48 -455q-68 -290 -235 -376q-101 -54 -249 -53q-347 0 -467 284q-83 195 -85 575q-2 343 96 525zM273 797q1 -190 24 -308q36 -187 140 -266q71 -58 178 -56q288 1 324 448
q7 95 8 192q0 99 -9 210q-26 348 -319 349q-227 2 -298 -194q-50 -141 -48 -375z" />
    <glyph glyph-name="one" unicode="1" 
d="M137 1090l118 85q85 63 165 138.5t151 159.5l71 86h224v-1559h-216v1322l-81 -86q-78 -80 -178.5 -162t-200.5 -149l-53 -35v200z" />
    <glyph glyph-name="two" unicode="2" 
d="M135 1350q188 238 474 240q208 0 340 -117q149 -133 149 -324q-1 -130 -56 -239q-60 -116 -150 -219q-91 -105 -194 -203q-142 -136 -178 -167l-129 -109v0h682v-212h-933v220l228 216q72 67 180 182q76 81 157 173q84 97 129 179q36 64 35 149q-2 118 -82 184
q-75 62 -195 63q-209 -2 -350 -188q-45 -59 -88 -131l-25 -43l-12 323z" />
    <glyph glyph-name="three" unicode="3" 
d="M143 388l39 -38q55 -54 102 -85q65 -47 139.5 -73t146.5 -25q121 0 206 87t86 211q-1 141 -107 220q-85 64 -241 66q-102 0 -208 -26l-53 -14v134l558 502v0h-646v212h888v-243l-476 -431v0l97 4q184 -1 301 -111t116 -299q0 -228 -146.5 -369.5t-370.5 -140.5
q-241 1 -401 128l-30 25v266z" />
    <glyph glyph-name="four" unicode="4" 
d="M71 519l519 1040h403v-1103h146v-184h-146v-272h-216v272h-706v247zM240 456v0h537v967h-16z" />
    <glyph glyph-name="five" unicode="5" 
d="M175 358l51 -44q176 -147 340 -147q185 2 268 144q41 67 41 160q0 128 -73 212q-89 103 -274 105q-140 0 -275 -56l-48 -22v849h847v-212h-650v-433l83 27q80 22 160 22q200 0 333 -125q126 -119 126 -331q-2 -233 -142 -385.5t-375 -152.5q-190 0 -358 105l-54 36v248z
" />
    <glyph glyph-name="six" unicode="6" 
d="M390 868q154 131 328 131q196 0 309 -146q96 -123 98 -334q-1 -236 -124 -389q-130 -162 -366 -161q-526 1 -523 790q2 660 382 798q91 33 192 33q109 0 204 -36q88 -35 169 -101l30 -26l-10 -259l-58 66q-144 156 -332 158q-239 -1 -316 -227q-33 -91 -43 -203l-13 -160
zM342 499q-1 -137 71 -235.5t217 -96.5q142 0 222 100q67 84 68 238q-2 214 -142 288q-58 31 -134 31q-91 0 -160 -43q-143 -87 -142 -282z" />
    <glyph glyph-name="seven" unicode="7" 
d="M1080 1559v-273l-610 -1286h-231l628 1347v0h-759v212h972z" />
    <glyph glyph-name="eight" unicode="8" 
d="M341 819q-228 121 -226 359q-1 196 154 313q131 98 344 99q129 0 241 -39q129 -45 198 -157q58 -94 58 -212q-2 -251 -224 -361l-57 -27v0l57 -21q109 -47 172 -150q61 -98 62 -220q-2 -206 -157 -326q-142 -109 -352 -108q-125 0 -236 42q-121 44 -200 146
q-93 115 -92 260q1 244 266 359l42 18v0zM288 425q-1 -142 101 -216q90 -65 234 -65q119 0 205.5 72t86.5 198q-1 77 -35 144q-30 58 -86 93q-75 47 -184 47q-135 -1 -224 -67q-97 -73 -98 -206zM320 1135q0 -133 90 -200q83 -62 215 -62q113 0 196 68t84 189
q-1 126 -85 195q-80 66 -206 67q-125 0 -206 -65q-88 -70 -88 -192z" />
    <glyph glyph-name="nine" unicode="9" 
d="M174 396l75 -84q142 -146 319 -145q254 -2 312 274q19 92 25 193l3 98l-56 -56q-58 -53 -130 -83q-91 -39 -185 -39q-102 -1 -190 44q-76 36 -129 102q-117 140 -116 367q1 196 82 317q63 98 163 147q118 59 255 59q309 -1 423 -245q86 -182 88 -500q-2 -607 -263 -795
q-112 -82 -260 -81q-117 0 -227 44q-97 37 -156 90l-33 31v262zM307 1061q-1 -90 32 -170q28 -74 94 -118.5t159 -43.5q140 -2 221 105q75 99 74 240t-73 225q-79 91 -215 93q-142 0 -221 -97q-72 -89 -71 -234z" />
    <glyph glyph-name="colon" unicode=":" horiz-adv-x="607" 
d="M310 228q141 -1 139 -127q1 -59 -43 -100q-36 -33 -103 -32q-142 2 -140 127q-2 131 147 132zM310 1055q141 -1 139 -127q1 -59 -43 -100q-36 -33 -103 -32q-142 2 -140 127q-2 131 147 132z" />
    <glyph glyph-name="semicolon" unicode=";" horiz-adv-x="607" 
d="M147 -282l32 102q38 145 45 285v121h187l2 -70q-2 -152 -79 -333q-21 -49 -52 -105l-30 -54h-124zM310 1057q141 -1 139 -127q1 -59 -43 -100q-36 -33 -103 -32q-142 2 -140 127q-2 131 147 132z" />
    <glyph glyph-name="less" unicode="&#x3c;" horiz-adv-x="2048" 
d="M-1637 688v-148l1225 -549v162l-1014 461l1014 456v165z" />
    <glyph glyph-name="equal" unicode="=" horiz-adv-x="2086" 
d="M1659 496v-149h-1231v149h1231zM428 840h1231v-149h-1231v149z" />
    <glyph glyph-name="greater" unicode="&#x3e;" horiz-adv-x="2048" 
d="M1637 688v-148l-1225 -549v162l1014 461l-1014 456v165z" />
    <glyph glyph-name="question" unicode="?" horiz-adv-x="1176" 
d="M501 228q145 -1 142 -126q1 -59 -43 -101q-35 -33 -103 -32q-142 2 -140 127q-1 129 144 132zM186 1417q148 148 386 150q196 -2 326 -111q143 -121 141 -310q-1 -235 -226 -386q-115 -79 -155 -115q-54 -49 -67 -173l-9 -78l-2 -35h-210v20q0 65 8 130q14 130 81 211
q57 70 178 146q100 62 133 97q59 63 59 152q-2 109 -80 167q-71 52 -181 52q-218 -2 -392 -208l-35 -44v286z" />
    <glyph glyph-name="at" unicode="@" horiz-adv-x="2086" 
d="M1236 1125h180v-509l4 -81q13 -145 114 -148q136 -2 168 255q8 63 8 137q-1 135 -33 252q-57 204 -224 322q-157 111 -376 113q-147 0 -276 -52q-422 -169 -425 -700q-1 -346 189 -550q198 -211 540 -208q103 -1 192 16l111 25v-169l-89 -22q-93 -20 -207 -19
q-427 -1 -680.5 249t-252.5 676q0 203 64 376q61 167 198 300t321 196q147 52 321 51q154 0 283 -42q376 -124 493 -495q48 -155 48 -326q0 -128 -28 -238q-34 -135 -126.5 -225t-235.5 -91q-45 -1 -82 8q-127 25 -174 187v0q-66 -190 -283 -190q-66 -1 -119 20
q-126 44 -195 181q-53 107 -54 266q1 233 123 354q104 106 261 106q148 -3 226 -117l16 -26v118zM797 685q0 -133 41 -211q60 -114 172 -111q105 -1 167 92q52 85 52 224q0 95 -23 172q-15 49 -50 93q-50 64 -139 66q-174 0 -211 -212q-10 -54 -9 -113z" />
    <glyph glyph-name="A" unicode="A" horiz-adv-x="1441" 
d="M529 1536h374l489 -1536h-224l-128 431v0h-651v0l-132 -431h-217zM454 655v0h515v0l-257 708v0z" />
    <glyph glyph-name="B" unicode="B" horiz-adv-x="1365" 
d="M693 1536l152 -2q265 -10 337 -183q34 -79 33 -167q0 -168 -93 -263q-73 -74 -252 -128v0q190 -36 268 -110q98 -94 99 -268q0 -261 -190 -357q-97 -51 -203 -55l-152 -3h-540v1536h541zM376 680v-476h328q57 -1 103 5q207 22 206 243q0 206 -233 224q-54 4 -114 4h-290z
M376 1312v-428h290l96 3q159 9 208 128q21 49 21 108q-1 172 -191 186l-96 3h-328z" />
    <glyph glyph-name="C" unicode="C" horiz-adv-x="1252" 
d="M1138 150q-85 -86 -188 -130q-116 -52 -245 -51q-122 -1 -226 44q-207 87 -311 314q-85 186 -85 443q1 338 137 549q158 245 490 248q238 -2 404 -133l54 -47v-312l-56 71q-160 195 -374 197q-223 0 -335 -170q-51 -75 -71 -170q-26 -109 -25 -224q1 -261 101 -423
q108 -182 322 -183q187 -1 367 188l71 77v-257z" />
    <glyph glyph-name="D" unicode="D" horiz-adv-x="1441" 
d="M695 1536q178 0 278 -32q136 -44 226 -159q149 -193 149 -532q0 -163 -39 -309q-67 -249 -256 -387q-101 -74 -213 -99q-78 -18 -235 -18h-447v1536h537zM382 1312v-1108h222q104 -1 166 10q127 19 217 128q134 157 137 452q-1 235 -93 371q-59 88 -147 121
q-63 24 -191 26h-311z" />
    <glyph glyph-name="E" unicode="E" 
d="M1088 1536v-224h-713v-424h713v-224h-713v-440h713v-224h-937v1536h937z" />
    <glyph glyph-name="F" unicode="F" horiz-adv-x="1176" 
d="M1098 1536v-224h-698v-440h690v-224h-690v-648h-224v1536h922z" />
    <glyph glyph-name="G" unicode="G" horiz-adv-x="1403" 
d="M1049 784h224v-549l-59 -69q-176 -196 -458 -197q-321 -2 -499 246q-154 215 -155 549q1 355 154 566q170 236 495 237q279 0 444 -150l36 -38v-288l-68 79q-78 86 -165 128q-94 45 -215 45q-128 0 -224.5 -52t-148.5 -149q-45 -79 -63 -175q-22 -101 -21 -211
q-1 -113 25 -217q28 -116 98 -207q56 -75 140.5 -117.5t184.5 -41.5q138 -1 275 108v503z" />
    <glyph glyph-name="H" unicode="H" horiz-adv-x="1517" 
d="M406 1536v-641h703v641h224v-1536h-224v671h-703v-671h-224v1536h224z" />
    <glyph glyph-name="I" unicode="I" horiz-adv-x="569" 
d="M173 1536h224v-1536h-224v1536z" />
    <glyph glyph-name="J" unicode="J" horiz-adv-x="948" 
d="M55 244q135 -71 244 -71q240 -1 247 252l2 88v1023h224v-1030q0 -112 -7 -187q-16 -165 -130 -260q-107 -89 -277 -90q-80 0 -168 21q-74 17 -125 44l-36 20v204z" />
    <glyph glyph-name="K" unicode="K" horiz-adv-x="1289" 
d="M421 1536v-775v0l591 775h258l-621 -773l615 -763h-291l-552 715v0v-715h-224v1536h224z" />
    <glyph glyph-name="L" unicode="L" horiz-adv-x="1062" 
d="M206 1536h224v-1312h579v-224h-803v1536z" />
    <glyph glyph-name="M" unicode="M" horiz-adv-x="1820" 
d="M579 1536l330 -1233v0l329 1233h416v-1536h-224v1375h-15l-387 -1375h-239l-388 1375h-14v-1375h-224v1536h416z" />
    <glyph glyph-name="N" unicode="N" horiz-adv-x="1517" 
d="M521 1536l608 -1349v0v1349h224v-1536h-361l-608 1305v0v-1305h-224v1536h361z" />
    <glyph glyph-name="O" unicode="O" horiz-adv-x="1479" 
d="M240 1338q176 228 516 229q624 -1 625 -771q-2 -366 -141 -571q-176 -257 -508 -256q-130 0 -226 35q-134 47 -225 156q-187 217 -188 624q-1 364 147 554zM317 773q-1 -123 21 -238q47 -258 234 -333q70 -30 165 -29q320 0 393 354q27 130 27 274q0 109 -16 202
q-19 114 -83 202q-57 78 -158 113q-74 25 -157 25t-156 -24q-104 -33 -166.5 -114.5t-83.5 -201.5q-21 -111 -20 -230z" />
    <glyph glyph-name="P" unicode="P" horiz-adv-x="1289" 
d="M704 1536q124 -1 207 -10q164 -20 260 -155q78 -110 80 -297q-3 -285 -160 -424q-88 -77 -206 -103q-76 -17 -231 -17h-245v-530h-224v1536h519zM409 1312v-578h242q198 -1 271 50q103 69 105 249q0 252 -209 274q-50 5 -116 5h-293z" />
    <glyph glyph-name="Q" unicode="Q" horiz-adv-x="1479" 
d="M1048 43v0l-27 -15q-120 -61 -285 -59q-336 -1 -500 254q-139 217 -139 563q-1 154 32 296q34 151 120.5 263.5t202.5 162.5q135 59 292 59q163 -1 281 -45q138 -52 220 -181q76 -119 105 -263.5t29 -298.5q0 -369 -176 -602l-25 -32v0l237 -194h-253zM630 384h253
l130 -105v0l9 8q130 136 133 482q-1 120 -19 232q-57 339 -392 342q-237 -2 -338 -179q-85 -145 -85 -383q1 -609 429 -608q30 -1 57 4l62 13v0z" />
    <glyph glyph-name="R" unicode="R" horiz-adv-x="1289" 
d="M667 1536q267 -2 373 -81q142 -107 144 -347q1 -398 -391 -443l-95 -9v0l487 -656h-268l-537 758v-758h-224v1536h511zM380 1312v-495h294q150 2 212 60q72 65 74 209q1 205 -184 222q-45 4 -102 4h-294z" />
    <glyph glyph-name="S" unicode="S" horiz-adv-x="1100" 
d="M120 399l67 -67q167 -161 350 -159q110 0 195.5 67t85.5 181q0 123 -82 179q-42 27 -103 43l-134 34q-114 28 -202 73q-214 107 -215 363q0 200 138 330q133 124 339 124q207 0 375 -125l49 -39v-269l-74 67q-162 140 -340 142q-120 0 -183 -56q-80 -69 -80 -171
q2 -117 107 -172q57 -30 136 -51l136 -38q107 -31 182 -73q176 -103 175 -340q0 -136 -62 -243q-68 -117 -180.5 -174t-255.5 -56q-114 -1 -206.5 32.5t-168.5 97.5l-49 42v258z" />
    <glyph glyph-name="T" unicode="T" horiz-adv-x="1176" 
d="M42 1536h1094v-224h-435v-1312h-224v1312h-435v224z" />
    <glyph glyph-name="U" unicode="U" horiz-adv-x="1479" 
d="M398 1536v-944q1 -155 21 -225q34 -119 145 -162q78 -33 166 -32q203 1 283 113q58 82 61 306v944h224v-936q-1 -229 -46 -339q-68 -163 -237 -236q-130 -57 -278 -56q-149 -1 -279 56q-168 70 -238 236q-46 109 -46 339v936h224z" />
    <glyph glyph-name="V" unicode="V" horiz-adv-x="1289" 
d="M264 1536l380 -1359v0l380 1359h256l-479 -1536h-314l-479 1536h256z" />
    <glyph glyph-name="W" unicode="W" horiz-adv-x="2010" 
d="M231 1536l295 -1323v0l319 1323h308l319 -1321v0l295 1321h231l-370 -1536h-308l-322 1259v0l-320 -1259h-308l-370 1536h231z" />
    <glyph glyph-name="X" unicode="X" horiz-adv-x="1289" 
d="M295 1536l342 -599v0l372 599h268l-501 -768v0l501 -768h-268l-372 600v0l-342 -600h-279l488 768v0l-488 768h279z" />
    <glyph glyph-name="Y" unicode="Y" horiz-adv-x="1289" 
d="M245 1536l404 -684v0l402 684h246l-542 -905v-631h-224v631l-542 905h256z" />
    <glyph glyph-name="Z" unicode="Z" horiz-adv-x="1252" 
d="M121 1536h1041v-266l-803 -1066v0h807v-204h-1045v266l794 1046v0h-794v224z" />
    <glyph glyph-name="bracketleft" unicode="[" horiz-adv-x="607" 
d="M-88 -31v178h-148v1211h148v178h-347v-1567h347z" />
    <glyph glyph-name="backslash" unicode="\" horiz-adv-x="645" 
d="M-501 1618h-151l509 -1649h151z" />
    <glyph glyph-name="bracketright" unicode="]" horiz-adv-x="607" 
d="M88 -31v178h148v1211h-148v178h347v-1567h-347z" />
    <glyph glyph-name="asciicircum" unicode="^" horiz-adv-x="1024" 
d="M458 1209q-125 -113 -290 -189l-69 -27v94l78 62q182 157 268 353l14 34h105l13 -33q85 -195 269 -354l78 -62v-94l-68 27q-61 26 -144 80q-94 60 -147 109l-53 53v0z" />
    <glyph glyph-name="underscore" unicode="_" horiz-adv-x="1024" 
d="M1024 -407v-105h-1024v105h1024z" />
    <glyph glyph-name="grave" unicode="`" 
d="M631 1440l-406 276h288l335 -276h-217z" />
    <glyph glyph-name="a" unicode="a" horiz-adv-x="1176" 
d="M823 182l-42 -49q-144 -164 -350 -164q-160 -1 -262 89t-103 250q-2 98 36 162q61 109 306 193l185 63q98 31 162 73q74 48 74 127q-1 95 -91 149q-77 46 -175 47q-121 0 -236 -53q-76 -34 -136 -87l-60 -57v217l39 32q200 159 442 160q173 -2 287 -81q123 -85 133 -260
l3 -136v-857h-212v182zM823 663l-32 -15q-121 -54 -251.5 -94.5t-177.5 -78.5q-86 -71 -84 -168q0 -82 55 -130.5t135 -46.5q52 -1 106 18q244 81 249 397v118z" />
    <glyph glyph-name="b" unicode="b" horiz-adv-x="1441" 
d="M179 1618h212v-595l37 59q155 250 404 252q156 0 275 -98q108 -89 150 -251q35 -137 35 -291q-2 -525 -325 -679q-97 -47 -199 -46q-113 0 -209 55q-66 38 -157 148l-33 39v-211h-190v1618zM375 601q-1 -68 14 -143q24 -138 107 -218q94 -89 225 -87q193 -2 285 177
q72 141 74 345q0 80 -13 149q-59 298 -321 298q-197 0 -295 -174q-76 -133 -76 -347z" />
    <glyph glyph-name="c" unicode="c" horiz-adv-x="1138" 
d="M1042 169l-40 -40q-81 -78 -178 -119.5t-196 -40.5q-112 0 -210 51q-204 103 -278 373q-33 117 -32 251q2 293 120 473q141 215 424 217q111 0 212 -41q71 -30 135 -79l61 -53l-8 -274q-95 128 -161 171q-99 63 -224 64q-199 0 -280 -161q-68 -136 -67 -330
q2 -191 71 -319q87 -161 270 -159q121 -1 227 82q66 52 154 191v-257z" />
    <glyph glyph-name="d" unicode="d" horiz-adv-x="1441" 
d="M1257 1618v-1618h-194v234q-188 -266 -436 -265q-182 -2 -308 121q-114 110 -151 299q-25 120 -24 252q1 276 94 446q68 126 181 190q100 57 234 57q110 -1 199 -40.5t146 -111.5l47 -65v501h212zM356 652q-1 -76 9 -149q18 -153 90 -242q88 -108 228 -108
q173 -1 273 146q92 135 94 381q0 81 -13 153q-25 134 -115.5 211.5t-226.5 77.5q-199 -1 -279 -158q-36 -66 -47 -143q-14 -82 -13 -169z" />
    <glyph glyph-name="e" unicode="e" horiz-adv-x="1289" 
d="M335 534q49 -381 359 -381q75 -1 149 29q118 46 228 180l47 59l15 -233l-45 -43q-127 -115 -265 -155q-74 -23 -157 -21q-275 2 -421 206q-128 178 -129 462q-1 113 21 220q41 208 177.5 342.5t355.5 134.5q297 -2 420 -198q99 -158 100 -469l-1 -73h-861zM328 778h699
l-6 48q-11 74 -49 137q-94 157 -299 159q-207 -1 -296 -166q-36 -65 -45 -139z" />
    <glyph glyph-name="f" unicode="f" horiz-adv-x="910" 
d="M257 1075l-6 38q-11 65 -10 130q-1 165 89 266q99 110 258 109q71 0 147 -17q60 -14 104 -33l25 -12v-220l-22 19q-37 31 -75 51q-54 28 -114 28q-203 1 -200 -248q-1 -53 4 -81l5 -30h391v-184h-387v-891h-212v891h-178v184h181z" />
    <glyph glyph-name="g" unicode="g" horiz-adv-x="1365" 
d="M218 8l53 -30q91 -50 183.5 -75t189.5 -24q328 1 345 313l3 149l-74 -76q-159 -152 -349 -151q-230 -1 -365 192q-115 163 -113 407q0 106 23 205q27 118 96 215q76 109 198 162q88 39 195 39q227 -2 357 -176l35 -49v193h209v-1029q0 -177 -10 -229q-22 -119 -104 -200
q-151 -151 -420 -149q-123 -1 -246 33q-91 23 -166 62l-40 21v197zM303 705q1 -175 76 -280q91 -127 254 -127q119 -2 216 81q81 70 117 202q21 77 21 156q0 168 -86 272q-92 112 -257 113q-77 0 -144 -29q-200 -85 -197 -388z" />
    <glyph glyph-name="h" unicode="h" horiz-adv-x="1403" 
d="M398 1618v-604l49 78q156 240 385 242q82 0 157 -33q208 -93 222 -354l3 -164v-783h-212v792q-1 160 -46 230q-61 98 -205 100q-190 2 -293 -188q-60 -111 -60 -358v-576h-212v1618h212z" />
    <glyph glyph-name="i" unicode="i" horiz-adv-x="607" 
d="M243 1288q29 -7 64 -7q34 0 61 7l41 14v-1302h-212v1302zM311 1640q135 -5 138 -104q-3 -112 -147 -108q-144 -1 -145 107q-3 101 154 105z" />
    <glyph glyph-name="j" unicode="j" horiz-adv-x="607" 
d="M-43 -135q32 -10 73 -9q100 -1 140 61q31 48 33 155v1230l45 -13q33 -8 68 -8q31 0 58 7l41 14v-1235q-2 -268 -180 -340q-77 -33 -166 -32q-70 0 -133 18l-20 6l-2 161zM317 1640q135 -5 138 -104q-3 -112 -147 -108q-144 -1 -145 107q-3 101 154 105z" />
    <glyph glyph-name="k" unicode="k" horiz-adv-x="1176" 
d="M382 1618v-962v0l473 646h279l-486 -653l500 -649h-283l-483 625v0v-625h-212v1618h212z" />
    <glyph glyph-name="l" unicode="l" horiz-adv-x="569" 
d="M404 1618v-1618h-212v1618h212z" />
    <glyph glyph-name="m" unicode="m" horiz-adv-x="2124" 
d="M366 1302v-280l56 89q149 223 365 223q295 -1 368 -314v0l41 79q125 232 371 235q189 -2 289 -123q56 -66 71 -146q14 -73 16 -165l2 -178v-722h-212v722q0 83 -5 154q-17 244 -247 246q-157 1 -243 -127q-74 -109 -72 -273v-722h-212v724q-3 194 -34 265
q-61 135 -217 133q-147 -2 -243 -129q-73 -97 -73 -269v-724h-212v1302h191z" />
    <glyph glyph-name="n" unicode="n" horiz-adv-x="1403" 
d="M396 1302v-275l39 65q149 243 394 242q87 0 167 -32q209 -82 216 -413l2 -121v-768h-212v774q0 67 -5 123q-20 223 -246 225q-182 -1 -279 -150q-74 -113 -74 -318v-654h-212v1302h210z" />
    <glyph glyph-name="o" unicode="o" horiz-adv-x="1403" 
d="M143 905q30 133 110.5 232t192.5 146q121 51 263 51q135 0 255 -47t191 -142q74 -100 103 -231q24 -113 24 -233q-1 -508 -341 -663q-108 -50 -250 -49q-134 -2 -244 47q-335 142 -331 648q0 123 27 241zM328 653q-1 -97 20 -191q28 -143 117 -223q98 -87 235 -86
q192 -1 289 162q79 131 81 349q0 89 -17 172q-18 88 -68 160.5t-130 102.5q-62 24 -146 23q-379 -4 -381 -469z" />
    <glyph glyph-name="p" unicode="p" horiz-adv-x="1441" 
d="M406 1302v-306l36 68q36 68 84 124q59 70 138.5 108t185.5 38q243 0 361 -203q95 -163 96 -420q0 -139 -29 -270q-44 -200 -166 -328q-140 -146 -330 -144q-181 -1 -332 170l-44 54v-498h-212v1607h212zM401 608q-1 -86 16 -159q18 -86 63.5 -154t113.5 -105.5t152 -36.5
q189 0 276 173q74 144 73 334q0 86 -17 168q-63 293 -315 294q-96 0 -169.5 -46t-118.5 -128q-38 -67 -54 -145q-21 -94 -20 -195z" />
    <glyph glyph-name="q" unicode="q" horiz-adv-x="1441" 
d="M990 161q-63 -85 -165.5 -138.5t-205.5 -53.5q-102 -1 -189 48q-287 155 -289 623q-1 110 20 217q25 139 93 254q128 222 408 223q123 -1 210 -51q77 -43 153 -154l33 -52v225h196v-1607h-212v542zM353 640q0 -81 17 -181q14 -89 51.5 -158.5t111.5 -109.5
q67 -39 156 -38q270 -2 333 313q20 97 20 202q0 81 -13 160t-53 148q-82 146 -272 146q-286 -2 -338 -331q-14 -80 -13 -151z" />
    <glyph glyph-name="r" unicode="r" horiz-adv-x="948" 
d="M368 1302v-278l44 90q25 47 58 91q94 128 222 129q110 -1 189 -49l32 -23l-8 -248l-28 32q-74 75 -182 76q-313 0 -310 -478v-644h-212v1302h195z" />
    <glyph glyph-name="s" unicode="s" horiz-adv-x="948" 
d="M141 265q142 -111 289 -112q99 -2 161 54q70 64 71 154q-1 129 -136 167l-151 43q-93 26 -160 68q-143 86 -144 281q0 124 64 224q67 104 178 151q91 39 199 39q139 1 263 -69l55 -36v-245l-45 39q-122 98 -254 99q-106 0 -170 -42q-80 -53 -78 -150q1 -92 80 -131
q41 -21 93 -37l138 -43q70 -22 129 -58q152 -96 151 -283q0 -129 -69 -233.5t-194 -146.5q-85 -30 -179 -29q-96 -1 -177 28q-64 20 -122 61l-37 26v216z" />
    <glyph glyph-name="t" unicode="t" horiz-adv-x="948" 
d="M123 1274q173 104 239 306l13 46h87v-169v-155h446v-184h-446l-2 -62l-9 -294l-2 -210l1 -142q8 -255 195 -257q110 1 214 80l47 37v-189l-23 -18q-123 -93 -296 -94q-228 -1 -306 164q-44 94 -44 363l1 224q3 242 9 344l3 54h-191v123z" />
    <glyph glyph-name="u" unicode="u" horiz-adv-x="1365" 
d="M1195 0h-191v299l-46 -88q-133 -243 -388 -242q-95 -1 -178 31q-71 25 -116 76q-60 64 -79 145q-27 105 -29 237l-1 159v685h212v-690l2 -224q4 -108 74 -175q64 -61 180 -60q345 1 348 459v690h212v-1302z" />
    <glyph glyph-name="v" unicode="v" 
d="M261 1302l347 -1153v0l347 1153h226l-403 -1302h-340l-403 1302h226z" />
    <glyph glyph-name="w" unicode="w" horiz-adv-x="1858" 
d="M251 1302l315 -1126v0l214 1126h307l214 -1126v0l315 1126h221l-382 -1302h-307l-214 1089v0l-215 -1089h-307l-382 1302h221z" />
    <glyph glyph-name="x" unicode="x" horiz-adv-x="1138" 
d="M434 648v0l-405 654h255l293 -526v0l300 526h248l-416 -654v0l399 -648h-253l-289 512v0l-289 -512h-254z" />
    <glyph glyph-name="y" unicode="y" 
d="M266 1302l369 -1004v0l330 1004h230l-553 -1607h-234l120 325v0l-495 1282h233z" />
    <glyph glyph-name="z" unicode="z" horiz-adv-x="1062" 
d="M969 1302v-238l-650 -868v0h650v-196h-885v242l646 848v0h-646v212h885z" />
    <glyph glyph-name="braceleft" unicode="{" horiz-adv-x="910" 
d="M-712 466q99 -36 137 -84.5t45 -150.5q7 -73 6 -141v-188q1 -180 39 -252q58 -109 215 -119q43 -3 124 -3v156l-57 4q-94 7 -118 65q-15 38 -16 144v193q0 116 -13 201q-8 62 -41 127q-26 54 -63 92l-36 33v0q115 102 141 267q13 70 12 170v180v110q5 66 28.5 95t89.5 38
l73 6v156q-169 -4 -241 -40q-111 -54 -129 -199q-8 -69 -8 -174v-171q-1 -140 -25 -222q-27 -95 -163 -137v-156v0z" />
    <glyph glyph-name="bar" unicode="|" horiz-adv-x="1024" 
d="M564 1536v-2048h-105v2048h105z" />
    <glyph glyph-name="braceright" unicode="}" horiz-adv-x="910" 
d="M712 466q-99 -36 -137 -84.5t-45 -150.5q-7 -73 -6 -141v-188q-1 -180 -39 -252q-58 -109 -215 -119q-43 -3 -124 -3v156l57 4q94 7 118 65q15 38 16 144v193q0 116 13 201q8 62 41 127q26 54 63 92l36 33v0q-115 102 -141 267q-13 70 -12 170v180v110q-5 66 -28.5 95
t-89.5 38l-73 6v156q169 -4 241 -40q111 -54 129 -199q8 -69 8 -174v-171q1 -140 25 -222q27 -95 163 -137v-156v0z" />
    <glyph glyph-name="asciitilde" unicode="~" horiz-adv-x="2048" 
d="M417 527q115 202 331 203q102 -2 276 -66l124 -45q103 -37 177 -36q100 1 195 90l22 21l107 -89q-142 -171 -336 -171q-90 -1 -166 32l-133 56q-148 59 -241 59q-162 1 -250 -160l-123 75z" />
    <glyph glyph-name="nonbreakingspace" unicode="&#xa0;" horiz-adv-x="605" 
 />
    <glyph glyph-name="exclamdown" unicode="&#xa1;" horiz-adv-x="645" 
d="M-305 1075q-144 1 -144 131q-2 125 140 128q147 -2 146 -127q3 -130 -142 -132zM-231 875l18 -207l17 -236l13 -252l4 -166v-143q0 -72 -23 -101q-27 -33 -98 -34q-75 0 -103.5 29.5t-29.5 105.5v143l4 166l13 252l17 236l18 207l6 69h138z" />
    <glyph glyph-name="cent" unicode="&#xa2;" 
d="M613 1596h170v-121l33 -9q123 -37 214 -114l43 -40v-271l-45 50q-154 165 -327 164q-345 0 -348 -477q-1 -89 16 -171q17 -92 63 -167q80 -139 250 -139q108 -2 216 66q67 42 165 161l-1 -231l-32 -34q-41 -41 -95 -78q-66 -46 -128 -66l-24 -7v-154h-170v145l-31 4
q-136 19 -235 100q-111 87 -162 228q-61 163 -61 351q1 261 98 438q118 215 360 251l31 4v117z" />
    <glyph glyph-name="sterling" unicode="&#xa3;" 
d="M306 729l-6 30q-12 42 -48 135q-72 177 -72 293q2 155 128 274q134 128 343 129q146 -1 260 -66q97 -54 192 -188l24 -34l-15 -298l-65 97q-50 72 -99 130q-74 84 -160 121q-67 28 -143 28q-62 0 -117 -20q-140 -49 -143 -202q-1 -97 69 -258q38 -88 49 -130l8 -41h465
v-178h-471l-5 -34q-23 -130 -129 -292l-21 -31h762v-194h-967v232l32 31q73 75 113 159q23 47 25 96v33h-170v178h161z" />
    <glyph glyph-name="currency" unicode="&#xa4;" horiz-adv-x="1289" 
d="M193 1219l136 -137v0l47 33q46 29 111 46.5t129 17.5q62 0 127 -17.5t112 -46.5l47 -33v0l136 137l65 -65l-138 -137v0l24 -33q71 -106 72 -247q-2 -155 -75 -259l-21 -28v0l137 -138l-63 -62l-137 136v0l-40 -27q-114 -70 -247 -71q-131 0 -245 71l-41 27v0l-137 -136
l-63 62l137 138v0l-21 28q-74 104 -75 260q0 135 73 246l23 33v0l-138 137zM269 732q1 -146 102 -245t244 -100q142 0 244 101t103 245q-1 143 -102.5 244.5t-244.5 102.5q-205 -2 -299 -174q-48 -85 -47 -174z" />
    <glyph glyph-name="yen" unicode="&#xa5;" 
d="M503 181h-220v106h220v115h-220v106h220v192l-399 859h240l275 -660v0l268 660h231l-399 -859v-192h220v-106h-220v-115h220v-106h-220v-181h-216v181z" />
    <glyph glyph-name="brokenbar" unicode="&#xa6;" horiz-adv-x="1024" 
d="M459 -460v919h105v-919h-105zM564 1483v-919h-105v919h105z" />
    <glyph glyph-name="section" unicode="&#xa7;" 
d="M276 153l34 -53q161 -243 338 -241q63 -1 105 34q47 39 49 98q-2 79 -92 165l-87 78l-141 123q-77 65 -133 130q-51 55 -78 122q-25 55 -24 116q-3 146 154 254v0q-98 143 -98 266q1 224 189 298q58 24 129 24q176 1 284 -119l26 -33v-215l-35 44q-32 37 -69 69
q-91 77 -185 77q-69 1 -113 -41q-51 -48 -49 -108q-1 -98 99 -202q38 -42 102 -96l108 -95q111 -97 163 -190q33 -68 35 -136q0 -136 -145 -238v0l35 -36q52 -57 77 -118.5t25 -128.5q0 -146 -102.5 -233t-240.5 -86q-100 -1 -194 49q-98 52 -148 134l-18 32v256zM423 922v0
l-21 -32q-12 -26 -12 -67q0 -100 103 -214l69 -71l75 -73l70 -62l75 -65v0l17 10q45 31 45 99q-2 65 -59 136q-65 76 -125 126l-88 73l-76 71z" />
    <glyph glyph-name="dieresis" unicode="&#xa8;" 
d="M322 1663q36 34 87 35q49 0 84.5 -34.5t36.5 -85.5q0 -52 -35 -88t-86 -35q-52 -1 -87.5 35.5t-34.5 87.5q-1 51 35 85zM721.5 1662.5q37.5 35.5 86.5 35.5q51 0 85.5 -36t34.5 -86q-1 -50 -35 -86t-84 -35q-52 -1 -88.5 33.5t-35.5 87.5q-1 51 36.5 86.5z" />
    <glyph glyph-name="copyright" unicode="&#xa9;" horiz-adv-x="1024" 
d="M97 1286q61 111 173.5 175.5t240.5 64.5t240 -64t176 -176t64 -240q0 -129 -64 -241t-175 -176t-239 -63q-198 -1 -339 138t-141 342q0 124 64 240zM104 1047q-1 -106 55 -205q52 -95 148 -150t205 -55q169 -1 288 120t120 290q-1 168 -120.5 287.5t-287.5 120.5
q-169 -1 -288 -119t-120 -289zM733 867l-18 -16q-82 -66 -179 -66q-113 0 -189.5 81t-76.5 194q-1 109 74.5 191t187.5 83q95 0 173 -59l21 -17l-61 -63l-24 23q-48 39 -108 41q-80 -1 -134.5 -60.5t-53.5 -140.5q-1 -80 52 -139t132 -59q66 -1 115 43l28 27z" />
    <glyph glyph-name="ordfeminine" unicode="&#xaa;" 
d="M317 1487l44 27q133 77 265 76q90 0 157 -30q74 -34 100 -103q15 -39 16 -145v-501h-149v104l-56 -48q-96 -79 -196 -80q-91 -2 -159 51.5t-66 150.5q-2 101 80 155q43 29 172 65l109 32q50 16 84 41q34 26 35 68q0 56 -51 89q-45 30 -101 30q-144 1 -292 -143zM750 1194
l-67 -26l-93 -30q-170 -54 -168 -150q-1 -47 35 -78q30 -28 82 -27q90 0 159 84q50 63 52 167v60z" />
    <glyph glyph-name="guillemotleft" unicode="&#xab;" horiz-adv-x="1100" 
d="M-287 1084h175l-335 -443l335 -445h-174l-337 444zM98 1084h175l-335 -443l335 -445h-174l-337 444z" />
    <glyph glyph-name="logicalnot" unicode="&#xac;" horiz-adv-x="2086" 
d="M1664 922v-690h-149v541h-1082v149h1231z" />
    <glyph glyph-name="sfthyphen" unicode="&#xad;" horiz-adv-x="607" 
d="M549 793v-212h-476v212h476z" />
    <glyph glyph-name="registered" unicode="&#xae;" horiz-adv-x="1024" 
d="M97 1286q61 111 173.5 175.5t240.5 64.5t240 -64t176 -176t64 -240q0 -129 -64 -241t-175 -176t-239 -63q-198 -1 -339 138t-141 342q0 124 64 240zM104 1047q-1 -106 55 -205q52 -95 148 -150t205 -55q169 -1 288 120t120 290q-1 168 -120.5 287.5t-287.5 120.5
q-169 -1 -288 -119t-120 -289zM352 1311h170q160 -6 160 -146q-2 -82 -57 -118l-27 -15l90 -224h-96l-80 207h-85v-207h-75v503zM427 1236v-146h99q78 0 81 73q2 72 -81 73h-99z" />
    <glyph glyph-name="glyph113" unicode="&#xaf;" horiz-adv-x="1024" 
d="M1024 1641v-105h-1024v105h1024z" />
    <glyph glyph-name="degree" unicode="&#xb0;" 
d="M348.5 1481q109.5 107 264.5 109q154 -2 263 -110.5t110 -263.5q-1 -101 -50.5 -188t-136.5 -136.5t-187 -49.5q-222 1 -324 187q-51 89 -50 187q1 158 110.5 265zM413 1215q0 -84 58.5 -141t141.5 -57t140 58.5t58 141.5q-1 83 -59.5 140t-140.5 58q-83 -1 -140 -58
t-58 -142z" />
    <glyph glyph-name="plusminus" unicode="&#xb1;" horiz-adv-x="2086" 
d="M1653 -153v-149h-1231v149h1231zM963 645v541h149v-541h541v-149h-541v-541h-149v541h-541v149h541z" />
    <glyph glyph-name="twosuperior" unicode="&#xb2;" horiz-adv-x="796" 
d="M128 1469q55 59 128 89q65 27 148 27q68 0 130 -21q73 -26 121 -85q50 -64 50 -138q0 -99 -57 -183q-45 -67 -110 -132q-75 -74 -117 -111l-129 -110v0h394v-131h-583v126l254 233q62 55 113 118q38 47 59 94q13 33 14 70q-1 142 -151 139q-165 -2 -266 -189l-23 -46
l-6 215z" />
    <glyph glyph-name="threesuperior" unicode="&#xb3;" horiz-adv-x="796" 
d="M114 1559h555v-140l-282 -242v0l54 1q108 0 179.5 -62t70.5 -176q-2 -132 -92 -216q-81 -76 -222 -76q-136 -1 -234 59l-42 29v199l21 -37q86 -137 223 -138q81 0 130 48q53 51 54 129q-2 157 -186 161q-49 0 -100 -9l-76 -16v80l320 275v0h-373v131z" />
    <glyph glyph-name="acute" unicode="&#xb4;" 
d="M792 1716h288l-406 -276h-217z" />
    <glyph glyph-name="mu" unicode="&#xb5;" horiz-adv-x="1138" 
d="M-107 -296q73 171 102 244q59 148 93 268l27 93l196 673h196l-175 -581q-9 -27 -16 -62q-12 -49 -11 -85q0 -65 47.5 -104t113.5 -38q127 -2 213 138q52 85 91 191q30 82 57 174l108 367h187l-148 -512q-32 -108 -57 -260q-17 -94 -17 -164v-46h-186v19q0 55 3 99l4 48
l-30 -46q-101 -149 -238 -148q-81 0 -128 42q-34 30 -65 119l-173 -471h-212z" />
    <glyph glyph-name="paragraph" unicode="&#xb6;" 
d="M992 1442h-138v-1768h-79v1768h-99v-1768h-79v897l-63 13q-177 38 -279 156q-110 126 -109 299q-1 112 48 207q110 217 391 263q105 17 220 17h187v-84z" />
    <glyph glyph-name="cedilla" unicode="&#xb8;" 
d="M436 -261l58 -14q35 -6 76 -6q92 -1 93 40q-3 35 -73 42l-60 5l-23 1l87 218h94l-45 -118h13q61 -3 115 -40.5t55 -105.5q-2 -144 -222 -142q-72 -1 -126 11l-82 22z" />
    <glyph glyph-name="onesuperior" unicode="&#xb9;" horiz-adv-x="796" 
d="M130 1303q94 67 130 100q47 40 109 107l45 49h148v-885h-143v727l-77 -70l-93 -72q-61 -45 -96 -65l-38 -21v119z" />
    <glyph glyph-name="ordmasculine" unicode="&#xba;" 
d="M595 1590q371 1 372 -370q-1 -196 -86 -307q-96 -127 -285 -126q-382 2 -379 409q-3 390 378 394zM366 1191q-1 -73 21 -137q45 -144 205 -146q152 0 202 146q24 69 24 149q-3 266 -221 266q-229 0 -231 -278z" />
    <glyph glyph-name="guillemotright" unicode="&#xbb;" horiz-adv-x="1100" 
d="M287 196h-175l335 443l-335 445h174l337 -444zM672 196h-175l335 443l-335 445h174l337 -444z" />
    <glyph glyph-name="onequarter" unicode="&#xbc;" horiz-adv-x="2086" 
d="M230 1303q94 67 130 100q47 40 109 107l45 49h148v-885h-143v727l-77 -70l-93 -72q-61 -45 -96 -65l-38 -21v119zM1300 1590h146l-1124 -1621h-146zM1537 885h265v-619h87v-112h-87v-154h-143v154h-430v145zM1659 799v0l-305 -533v0h305v533z" />
    <glyph glyph-name="onehalf" unicode="&#xbd;" horiz-adv-x="2086" 
d="M230 1303q94 67 130 100q47 40 109 107l45 49h148v-885h-143v727l-77 -70l-93 -72q-61 -45 -96 -65l-38 -21v119zM1300 1590h146l-1124 -1621h-146zM1347 795q55 59 128 89q65 27 148 27q68 0 130 -21q73 -26 121 -85q50 -64 50 -138q0 -99 -57 -183q-45 -67 -110 -132
q-75 -74 -117 -111l-129 -110v0h394v-131h-583v126l254 233q62 55 113 118q38 47 59 94q13 33 14 70q-1 142 -151 139q-165 -2 -266 -189l-23 -46l-6 215z" />
    <glyph glyph-name="threequarters" unicode="&#xbe;" horiz-adv-x="2086" 
d="M154 1559h555v-140l-282 -242v0l54 1q108 0 179.5 -62t70.5 -176q-2 -132 -92 -216q-81 -76 -222 -76q-136 -1 -234 59l-42 29v199l21 -37q86 -137 223 -138q81 0 130 48q53 51 54 129q-2 157 -186 161q-49 0 -100 -9l-76 -16v80l320 275v0h-373v131zM1311 1590h146
l-1124 -1621h-146zM1597 885h265v-619h87v-112h-87v-154h-143v154h-430v145zM1719 799v0l-305 -533v0h305v533z" />
    <glyph glyph-name="questiondown" unicode="&#xbf;" horiz-adv-x="1176" 
d="M-501 1075q-145 1 -142 126q-1 59 43 101q35 33 103 32q142 -2 140 -127q1 -129 -144 -132zM-186 -114q-148 -148 -386 -150q-196 2 -326 111q-143 121 -141 310q1 235 226 386q115 79 155 115q54 49 67 173l9 78l2 35h210v-20q0 -65 -8 -130q-14 -130 -81 -211
q-57 -70 -178 -146q-100 -62 -133 -97q-59 -63 -59 -152q2 -109 80 -167q71 -52 181 -52q218 2 392 208l35 44v-286z" />
    <glyph glyph-name="Agrave" unicode="&#xc0;" horiz-adv-x="1441" 
d="M529 1536h374l489 -1536h-224l-128 431v0h-651v0l-132 -431h-217zM454 655v0h515v0l-257 708v0zM758 1667l-406 276h288l335 -276h-217z" />
    <glyph glyph-name="Aacute" unicode="&#xc1;" horiz-adv-x="1441" 
d="M529 1536h374l489 -1536h-224l-128 431v0h-651v0l-132 -431h-217zM454 655v0h515v0l-257 708v0zM916 1943h288l-406 -276h-217z" />
    <glyph glyph-name="Acircumflex" unicode="&#xc2;" horiz-adv-x="1441" 
d="M529 1536h374l489 -1536h-224l-128 431v0h-651v0l-132 -431h-217zM454 655v0h515v0l-257 708v0zM608 1943h217l208 -276h-157l-161 132v0l-162 -132h-153z" />
    <glyph glyph-name="Atilde" unicode="&#xc3;" horiz-adv-x="1441" 
d="M529 1536h374l489 -1536h-224l-128 431v0h-651v0l-132 -431h-217zM454 655v0h515v0l-257 708v0zM311 1803q106 121 255 121q70 -1 135 -27l107 -45q40 -18 82 -17q87 0 157 70l26 31l116 -75l-17 -25q-101 -144 -265 -144q-67 0 -132 27l-107 44q-45 18 -89 18
q-91 0 -165 -76l-27 -31l-117 77z" />
    <glyph glyph-name="Adieresis" unicode="&#xc4;" horiz-adv-x="1441" 
d="M529 1536h374l489 -1536h-224l-128 431v0h-651v0l-132 -431h-217zM454 655v0h515v0l-257 708v0zM436 1885q36 34 87 35q49 0 84.5 -34.5t36.5 -85.5q0 -52 -35 -88t-86 -35q-52 -1 -87.5 35.5t-34.5 87.5q-1 51 35 85zM835.5 1884.5q37.5 35.5 86.5 35.5q51 0 85.5 -36
t34.5 -86q-1 -50 -35 -86t-84 -35q-52 -1 -88.5 33.5t-35.5 87.5q-1 51 36.5 86.5z" />
    <glyph glyph-name="Aring" unicode="&#xc5;" horiz-adv-x="1441" 
d="M529 1536h374l489 -1536h-224l-128 431v0h-651v0l-132 -431h-217zM454 655v0h515v0l-257 708v0zM562 2052q67 64 162 66q93 -1 159.5 -67.5t67.5 -159.5q-1 -94 -66.5 -161.5t-160.5 -67.5t-161.5 65.5t-67.5 163.5q0 97 67 161zM614 1891q3 -108 110 -110q105 2 108 110
q-4 104 -108 108q-107 -3 -110 -108zM720 1567z" />
    <glyph glyph-name="AE" unicode="&#xc6;" horiz-adv-x="2389" 
d="M1095 1536h1111v-224h-712v-426h712v-224h-712v-438h712v-224h-936v368v0h-745v0l-253 -368h-256zM670 592v0h600v0v821v0z" />
    <glyph glyph-name="Ccedilla" unicode="&#xc7;" horiz-adv-x="1252" 
d="M1138 150q-85 -86 -188 -130q-116 -52 -245 -51q-122 -1 -226 44q-207 87 -311 314q-85 186 -85 443q1 338 137 549q158 245 490 248q238 -2 404 -133l54 -47v-312l-56 71q-160 195 -374 197q-223 0 -335 -170q-51 -75 -71 -170q-26 -109 -25 -224q1 -261 101 -423
q108 -182 322 -183q187 -1 367 188l71 77v-257zM522 -261l58 -14q35 -6 76 -6q92 -1 93 40q-3 35 -73 42l-60 5l-23 1l87 218h94l-45 -118h13q61 -3 115 -40.5t55 -105.5q-2 -144 -222 -142q-72 -1 -126 11l-82 22z" />
    <glyph glyph-name="Egrave" unicode="&#xc8;" 
d="M1088 1536v-224h-713v-424h713v-224h-713v-440h713v-224h-937v1536h937zM644 1667l-406 276h288l335 -276h-217z" />
    <glyph glyph-name="Eacute" unicode="&#xc9;" 
d="M1088 1536v-224h-713v-424h713v-224h-713v-440h713v-224h-937v1536h937zM802 1943h288l-406 -276h-217z" />
    <glyph glyph-name="Ecircumflex" unicode="&#xca;" 
d="M1088 1536v-224h-713v-424h713v-224h-713v-440h713v-224h-937v1536h937zM494 1943h217l208 -276h-157l-161 132v0l-162 -132h-153z" />
    <glyph glyph-name="Edieresis" unicode="&#xcb;" 
d="M1088 1536v-224h-713v-424h713v-224h-713v-440h713v-224h-937v1536h937zM322 1885q36 34 87 35q49 0 84.5 -34.5t36.5 -85.5q0 -52 -35 -88t-86 -35q-52 -1 -87.5 35.5t-34.5 87.5q-1 51 35 85zM721.5 1884.5q37.5 35.5 86.5 35.5q51 0 85.5 -36t34.5 -86q-1 -50 -35 -86
t-84 -35q-52 -1 -88.5 33.5t-35.5 87.5q-1 51 36.5 86.5z" />
    <glyph glyph-name="Igrave" unicode="&#xcc;" horiz-adv-x="569" 
d="M173 1536h224v-1536h-224v1536zM322 1667l-406 276h288l335 -276h-217z" />
    <glyph glyph-name="Iacute" unicode="&#xcd;" horiz-adv-x="569" 
d="M173 1536h224v-1536h-224v1536zM480 1943h288l-406 -276h-217z" />
    <glyph glyph-name="Icircumflex" unicode="&#xce;" horiz-adv-x="569" 
d="M173 1536h224v-1536h-224v1536zM178 1943h217l208 -276h-157l-161 132v0l-162 -132h-153z" />
    <glyph glyph-name="Idieresis" unicode="&#xcf;" horiz-adv-x="569" 
d="M173 1536h224v-1536h-224v1536zM0 1885q36 34 87 35q49 0 84.5 -34.5t36.5 -85.5q0 -52 -35 -88t-86 -35q-52 -1 -87.5 35.5t-34.5 87.5q-1 51 35 85zM399.5 1884.5q37.5 35.5 86.5 35.5q51 0 85.5 -36t34.5 -86q-1 -50 -35 -86t-84 -35q-52 -1 -88.5 33.5t-35.5 87.5
q-1 51 36.5 86.5z" />
    <glyph glyph-name="Eth" unicode="&#xd0;" horiz-adv-x="1441" 
d="M695 1536q96 0 170 -8q252 -27 380 -255q102 -183 102 -460q0 -163 -39 -309q-67 -249 -256 -387q-100 -73 -213 -99q-77 -18 -234 -18h-447v691h-106v204h106v641h537zM382 1312v-417h267v-204h-267v-487h221q147 0 223 28q106 38 179 133q115 150 118 429
q-1 275 -126 415q-89 100 -304 103h-311z" />
    <glyph glyph-name="Ntilde" unicode="&#xd1;" horiz-adv-x="1517" 
d="M521 1536l608 -1349v0v1349h224v-1536h-361l-608 1305v0v-1305h-224v1536h361zM349 1803q106 121 255 121q70 -1 135 -27l107 -45q40 -18 82 -17q87 0 157 70l26 31l116 -75l-17 -25q-101 -144 -265 -144q-67 0 -132 27l-107 44q-45 18 -89 18q-91 0 -165 -76l-27 -31
l-117 77z" />
    <glyph glyph-name="Ograve" unicode="&#xd2;" horiz-adv-x="1479" 
d="M240 1338q176 228 516 229q624 -1 625 -771q-2 -366 -141 -571q-176 -257 -508 -256q-130 0 -226 35q-134 47 -225 156q-187 217 -188 624q-1 364 147 554zM317 773q-1 -123 21 -238q47 -258 234 -333q70 -30 165 -29q320 0 393 354q27 130 27 274q0 109 -16 202
q-19 114 -83 202q-57 78 -158 113q-74 25 -157 25t-156 -24q-104 -33 -166.5 -114.5t-83.5 -201.5q-21 -111 -20 -230zM777 1667l-406 276h288l335 -276h-217z" />
    <glyph glyph-name="Oacute" unicode="&#xd3;" horiz-adv-x="1479" 
d="M240 1338q176 228 516 229q624 -1 625 -771q-2 -366 -141 -571q-176 -257 -508 -256q-130 0 -226 35q-134 47 -225 156q-187 217 -188 624q-1 364 147 554zM317 773q-1 -123 21 -238q47 -258 234 -333q70 -30 165 -29q320 0 393 354q27 130 27 274q0 109 -16 202
q-19 114 -83 202q-57 78 -158 113q-74 25 -157 25t-156 -24q-104 -33 -166.5 -114.5t-83.5 -201.5q-21 -111 -20 -230zM935 1943h288l-406 -276h-217z" />
    <glyph glyph-name="Ocircumflex" unicode="&#xd4;" horiz-adv-x="1479" 
d="M240 1338q176 228 516 229q624 -1 625 -771q-2 -366 -141 -571q-176 -257 -508 -256q-130 0 -226 35q-134 47 -225 156q-187 217 -188 624q-1 364 147 554zM317 773q-1 -123 21 -238q47 -258 234 -333q70 -30 165 -29q320 0 393 354q27 130 27 274q0 109 -16 202
q-19 114 -83 202q-57 78 -158 113q-74 25 -157 25t-156 -24q-104 -33 -166.5 -114.5t-83.5 -201.5q-21 -111 -20 -230zM627 1943h217l208 -276h-157l-161 132v0l-162 -132h-153z" />
    <glyph glyph-name="Otilde" unicode="&#xd5;" horiz-adv-x="1479" 
d="M240 1338q176 228 516 229q624 -1 625 -771q-2 -366 -141 -571q-176 -257 -508 -256q-130 0 -226 35q-134 47 -225 156q-187 217 -188 624q-1 364 147 554zM317 773q-1 -123 21 -238q47 -258 234 -333q70 -30 165 -29q320 0 393 354q27 130 27 274q0 109 -16 202
q-19 114 -83 202q-57 78 -158 113q-74 25 -157 25t-156 -24q-104 -33 -166.5 -114.5t-83.5 -201.5q-21 -111 -20 -230zM330 1803q106 121 255 121q70 -1 135 -27l107 -45q40 -18 82 -17q87 0 157 70l26 31l116 -75l-17 -25q-101 -144 -265 -144q-67 0 -132 27l-107 44
q-45 18 -89 18q-91 0 -165 -76l-27 -31l-117 77z" />
    <glyph glyph-name="Odieresis" unicode="&#xd6;" horiz-adv-x="1479" 
d="M240 1338q176 228 516 229q624 -1 625 -771q-2 -366 -141 -571q-176 -257 -508 -256q-130 0 -226 35q-134 47 -225 156q-187 217 -188 624q-1 364 147 554zM317 773q-1 -123 21 -238q47 -258 234 -333q70 -30 165 -29q320 0 393 354q27 130 27 274q0 109 -16 202
q-19 114 -83 202q-57 78 -158 113q-74 25 -157 25t-156 -24q-104 -33 -166.5 -114.5t-83.5 -201.5q-21 -111 -20 -230zM455 1885q36 34 87 35q49 0 84.5 -34.5t36.5 -85.5q0 -52 -35 -88t-86 -35q-52 -1 -87.5 35.5t-34.5 87.5q-1 51 35 85zM854.5 1884.5
q37.5 35.5 86.5 35.5q51 0 85.5 -36t34.5 -86q-1 -50 -35 -86t-84 -35q-52 -1 -88.5 33.5t-35.5 87.5q-1 51 36.5 86.5z" />
    <glyph glyph-name="multiply" unicode="&#xd7;" horiz-adv-x="2086" 
d="M422 63l505 505v0l-505 505l108 108l505 -505v0l505 505l108 -108l-505 -505v0l505 -505l-108 -108l-505 505v0l-505 -505z" />
    <glyph glyph-name="Oslash" unicode="&#xd8;" horiz-adv-x="1479" 
d="M1244 1357v0l14 -24q123 -220 123 -536q-2 -361 -137 -565q-173 -262 -497 -263q-245 -1 -390 123l-22 20v0l-107 -150h-154l178 243v0l-20 27q-138 206 -139 568q-2 348 150 542q174 224 507 225q225 -1 377 -98l31 -21v0l89 121h153zM1097 1157v0l-634 -872v0l26 -27
q86 -84 241 -85q427 -3 427 618q0 99 -13 195t-45 167zM1019 1258v0l-34 23q-100 62 -241 62q-429 -1 -427 -548q1 -246 59 -378l12 -24v0z" />
    <glyph glyph-name="Ugrave" unicode="&#xd9;" horiz-adv-x="1479" 
d="M398 1536v-944q1 -155 21 -225q34 -119 145 -162q78 -33 166 -32q203 1 283 113q58 82 61 306v944h224v-936q-1 -229 -46 -339q-68 -163 -237 -236q-130 -57 -278 -56q-149 -1 -279 56q-168 70 -238 236q-46 109 -46 339v936h224zM777 1667l-406 276h288l335 -276h-217z
" />
    <glyph glyph-name="Uacute" unicode="&#xda;" horiz-adv-x="1479" 
d="M398 1536v-944q1 -155 21 -225q34 -119 145 -162q78 -33 166 -32q203 1 283 113q58 82 61 306v944h224v-936q-1 -229 -46 -339q-68 -163 -237 -236q-130 -57 -278 -56q-149 -1 -279 56q-168 70 -238 236q-46 109 -46 339v936h224zM935 1943h288l-406 -276h-217z" />
    <glyph glyph-name="Ucircumflex" unicode="&#xdb;" horiz-adv-x="1479" 
d="M398 1536v-944q1 -155 21 -225q34 -119 145 -162q78 -33 166 -32q203 1 283 113q58 82 61 306v944h224v-936q-1 -229 -46 -339q-68 -163 -237 -236q-130 -57 -278 -56q-149 -1 -279 56q-168 70 -238 236q-46 109 -46 339v936h224zM627 1943h217l208 -276h-157l-161 132v0
l-162 -132h-153z" />
    <glyph glyph-name="Udieresis" unicode="&#xdc;" horiz-adv-x="1479" 
d="M398 1536v-944q1 -155 21 -225q34 -119 145 -162q78 -33 166 -32q203 1 283 113q58 82 61 306v944h224v-936q-1 -229 -46 -339q-68 -163 -237 -236q-130 -57 -278 -56q-149 -1 -279 56q-168 70 -238 236q-46 109 -46 339v936h224zM455 1885q36 34 87 35q49 0 84.5 -34.5
t36.5 -85.5q0 -52 -35 -88t-86 -35q-52 -1 -87.5 35.5t-34.5 87.5q-1 51 35 85zM854.5 1884.5q37.5 35.5 86.5 35.5q51 0 85.5 -36t34.5 -86q-1 -50 -35 -86t-84 -35q-52 -1 -88.5 33.5t-35.5 87.5q-1 51 36.5 86.5z" />
    <glyph glyph-name="Yacute" unicode="&#xdd;" horiz-adv-x="1289" 
d="M245 1536l404 -684v0l402 684h246l-542 -905v-631h-224v631l-542 905h256zM840 1943h288l-406 -276h-217z" />
    <glyph glyph-name="Thorn" unicode="&#xde;" horiz-adv-x="1289" 
d="M411 1536v-245h290q125 -1 207 -11q110 -13 190 -78q146 -120 149 -373q-2 -285 -160 -422q-140 -122 -437 -121h-239v-286h-224v1536h224zM411 1067v-577h236q203 0 272 49q102 71 104 251q0 155 -87 224q-62 50 -238 53h-287z" />
    <glyph glyph-name="germandbls" unicode="&#xdf;" horiz-adv-x="1289" 
d="M171 1048l2 160q2 83 25 158q29 100 104 161q68 57 157 75q75 16 162 16q74 0 139 -12q95 -17 164 -75q122 -100 123 -288q0 -217 -172 -298l-29 -13v0l42 -13q170 -56 237 -163q72 -115 72 -282q1 -149 -55 -267q-69 -150 -181 -198q-90 -41 -241 -40q-86 0 -164 18
l-66 18v215l72 -21q73 -18 152 -18q295 -3 294 295q0 305 -313 336q-66 6 -140 7h-65v184l77 2q82 0 137 10q75 12 123.5 65.5t49.5 131.5q-1 100 -77 150q-68 45 -167 44q-128 -3 -192 -55q-56 -46 -58 -185v-110v-1056h-212v1048z" />
    <glyph glyph-name="agrave" unicode="&#xe0;" horiz-adv-x="1176" 
d="M823 182l-42 -49q-144 -164 -350 -164q-160 -1 -262 89t-103 250q-2 98 36 162q61 109 306 193l185 63q98 31 162 73q74 48 74 127q-1 95 -91 149q-77 46 -175 47q-121 0 -236 -53q-76 -34 -136 -87l-60 -57v217l39 32q200 159 442 160q173 -2 287 -81q123 -85 133 -260
l3 -136v-857h-212v182zM823 663l-32 -15q-121 -54 -251.5 -94.5t-177.5 -78.5q-86 -71 -84 -168q0 -82 55 -130.5t135 -46.5q52 -1 106 18q244 81 249 397v118zM731 1440l-406 276h288l335 -276h-217z" />
    <glyph glyph-name="aacute" unicode="&#xe1;" horiz-adv-x="1176" 
d="M823 182l-42 -49q-144 -164 -350 -164q-160 -1 -262 89t-103 250q-2 98 36 162q61 109 306 193l185 63q98 31 162 73q74 48 74 127q-1 95 -91 149q-77 46 -175 47q-121 0 -236 -53q-76 -34 -136 -87l-60 -57v217l39 32q200 159 442 160q173 -2 287 -81q123 -85 133 -260
l3 -136v-857h-212v182zM823 663l-32 -15q-121 -54 -251.5 -94.5t-177.5 -78.5q-86 -71 -84 -168q0 -82 55 -130.5t135 -46.5q52 -1 106 18q244 81 249 397v118zM773 1716h288l-406 -276h-217z" />
    <glyph glyph-name="acircumflex" unicode="&#xe2;" horiz-adv-x="1176" 
d="M823 182l-42 -49q-144 -164 -350 -164q-160 -1 -262 89t-103 250q-2 98 36 162q61 109 306 193l185 63q98 31 162 73q74 48 74 127q-1 95 -91 149q-77 46 -175 47q-121 0 -236 -53q-76 -34 -136 -87l-60 -57v217l39 32q200 159 442 160q173 -2 287 -81q123 -85 133 -260
l3 -136v-857h-212v182zM823 663l-32 -15q-121 -54 -251.5 -94.5t-177.5 -78.5q-86 -71 -84 -168q0 -82 55 -130.5t135 -46.5q52 -1 106 18q244 81 249 397v118zM471 1716h217l208 -276h-157l-161 132v0l-162 -132h-153z" />
    <glyph glyph-name="atilde" unicode="&#xe3;" horiz-adv-x="1176" 
d="M823 182l-42 -49q-144 -164 -350 -164q-160 -1 -262 89t-103 250q-2 98 36 162q61 109 306 193l185 63q98 31 162 73q74 48 74 127q-1 95 -91 149q-77 46 -175 47q-121 0 -236 -53q-76 -34 -136 -87l-60 -57v217l39 32q200 159 442 160q173 -2 287 -81q123 -85 133 -260
l3 -136v-857h-212v182zM823 663l-32 -15q-121 -54 -251.5 -94.5t-177.5 -78.5q-86 -71 -84 -168q0 -82 55 -130.5t135 -46.5q52 -1 106 18q244 81 249 397v118zM154 1566q106 121 255 121q70 -1 135 -27l107 -45q40 -18 82 -17q87 0 157 70l26 31l116 -75l-17 -25
q-101 -144 -265 -144q-67 0 -132 27l-107 44q-45 18 -89 18q-91 0 -165 -76l-27 -31l-117 77z" />
    <glyph glyph-name="adieresis" unicode="&#xe4;" horiz-adv-x="1176" 
d="M823 182l-42 -49q-144 -164 -350 -164q-160 -1 -262 89t-103 250q-2 98 36 162q61 109 306 193l185 63q98 31 162 73q74 48 74 127q-1 95 -91 149q-77 46 -175 47q-121 0 -236 -53q-76 -34 -136 -87l-60 -57v217l39 32q200 159 442 160q173 -2 287 -81q123 -85 133 -260
l3 -136v-857h-212v182zM823 663l-32 -15q-121 -54 -251.5 -94.5t-177.5 -78.5q-86 -71 -84 -168q0 -82 55 -130.5t135 -46.5q52 -1 106 18q244 81 249 397v118zM303 1663q36 34 87 35q49 0 84.5 -34.5t36.5 -85.5q0 -52 -35 -88t-86 -35q-52 -1 -87.5 35.5t-34.5 87.5
q-1 51 35 85zM702.5 1662.5q37.5 35.5 86.5 35.5q51 0 85.5 -36t34.5 -86q-1 -50 -35 -86t-84 -35q-52 -1 -88.5 33.5t-35.5 87.5q-1 51 36.5 86.5z" />
    <glyph glyph-name="aring" unicode="&#xe5;" horiz-adv-x="1176" 
d="M823 182l-42 -49q-144 -164 -350 -164q-160 -1 -262 89t-103 250q-2 98 36 162q61 109 306 193l185 63q98 31 162 73q74 48 74 127q-1 95 -91 149q-77 46 -175 47q-121 0 -236 -53q-76 -34 -136 -87l-60 -57v217l39 32q200 159 442 160q173 -2 287 -81q123 -85 133 -260
l3 -136v-857h-212v182zM823 663l-32 -15q-121 -54 -251.5 -94.5t-177.5 -78.5q-86 -71 -84 -168q0 -82 55 -130.5t135 -46.5q52 -1 106 18q244 81 249 397v118zM429 1830q67 64 162 66q93 -1 159.5 -67.5t67.5 -159.5q-1 -94 -66.5 -161.5t-160.5 -67.5t-161.5 65.5
t-67.5 163.5q0 97 67 161zM481 1669q3 -108 110 -110q105 2 108 110q-4 104 -108 108q-107 -3 -110 -108zM587 1345z" />
    <glyph glyph-name="ae" unicode="&#xe6;" horiz-adv-x="2048" 
d="M205 1175q177 159 426 159q113 0 211 -40q91 -38 164 -107l23 -23v0l38 39q137 129 365 131q397 1 485 -362q32 -131 32 -355l-1 -24h-867l2 -31q12 -184 100 -287q106 -123 274 -122q178 0 330 161l86 95l20 -223l-51 -45q-197 -171 -424 -172q-118 -1 -227 41
q-116 42 -200 124l-29 29v0l-80 -61q-191 -133 -409 -133q-86 0 -161 26q-102 33 -160 123q-54 86 -53 197q-1 79 26 136q36 80 108 125.5t167 76.5q72 24 167 49.5t159 48.5q54 19 91 53q46 44 46 119q0 80 -50 124q-32 30 -71 46q-71 29 -144 29q-193 -2 -382 -144
l-51 -40v198zM864 670l-68 -30q-71 -31 -164 -62l-141 -50q-182 -68 -180 -220q-3 -125 105 -162q43 -17 97 -16q156 -3 268 133q88 108 88 292zM1081 777h705l-1 37q-9 138 -113 227q-94 81 -241 81q-78 0 -143 -24q-85 -31 -138.5 -107.5t-64.5 -175.5z" />
    <glyph glyph-name="ccedilla" unicode="&#xe7;" horiz-adv-x="1138" 
d="M1042 169l-40 -40q-81 -78 -178 -119.5t-196 -40.5q-112 0 -210 51q-204 103 -278 373q-33 117 -32 251q2 293 120 473q141 215 424 217q111 0 212 -41q71 -30 135 -79l61 -53l-8 -274q-95 128 -161 171q-99 63 -224 64q-199 0 -280 -161q-68 -136 -67 -330
q2 -191 71 -319q87 -161 270 -159q121 -1 227 82q66 52 154 191v-257zM462 -261l58 -14q35 -6 76 -6q92 -1 93 40q-3 35 -73 42l-60 5l-23 1l87 218h94l-45 -118h13q61 -3 115 -40.5t55 -105.5q-2 -144 -222 -142q-72 -1 -126 11l-82 22z" />
    <glyph glyph-name="egrave" unicode="&#xe8;" horiz-adv-x="1289" 
d="M335 534q49 -381 359 -381q75 -1 149 29q118 46 228 180l47 59l15 -233l-45 -43q-127 -115 -265 -155q-74 -23 -157 -21q-275 2 -421 206q-128 178 -129 462q-1 113 21 220q41 208 177.5 342.5t355.5 134.5q297 -2 420 -198q99 -158 100 -469l-1 -73h-861zM328 778h699
l-6 48q-11 74 -49 137q-94 157 -299 159q-207 -1 -296 -166q-36 -65 -45 -139zM811 1440l-406 276h288l335 -276h-217z" />
    <glyph glyph-name="eacute" unicode="&#xe9;" horiz-adv-x="1289" 
d="M335 534q49 -381 359 -381q75 -1 149 29q118 46 228 180l47 59l15 -233l-45 -43q-127 -115 -265 -155q-74 -23 -157 -21q-275 2 -421 206q-128 178 -129 462q-1 113 21 220q41 208 177.5 342.5t355.5 134.5q297 -2 420 -198q99 -158 100 -469l-1 -73h-861zM328 778h699
l-6 48q-11 74 -49 137q-94 157 -299 159q-207 -1 -296 -166q-36 -65 -45 -139zM830 1716h288l-406 -276h-217z" />
    <glyph glyph-name="ecircumflex" unicode="&#xea;" horiz-adv-x="1289" 
d="M335 534q49 -381 359 -381q75 -1 149 29q118 46 228 180l47 59l15 -233l-45 -43q-127 -115 -265 -155q-74 -23 -157 -21q-275 2 -421 206q-128 178 -129 462q-1 113 21 220q41 208 177.5 342.5t355.5 134.5q297 -2 420 -198q99 -158 100 -469l-1 -73h-861zM328 778h699
l-6 48q-11 74 -49 137q-94 157 -299 159q-207 -1 -296 -166q-36 -65 -45 -139zM558 1716h217l208 -276h-157l-161 132v0l-162 -132h-153z" />
    <glyph glyph-name="edieresis" unicode="&#xeb;" horiz-adv-x="1289" 
d="M335 534q49 -381 359 -381q75 -1 149 29q118 46 228 180l47 59l15 -233l-45 -43q-127 -115 -265 -155q-74 -23 -157 -21q-275 2 -421 206q-128 178 -129 462q-1 113 21 220q41 208 177.5 342.5t355.5 134.5q297 -2 420 -198q99 -158 100 -469l-1 -73h-861zM328 778h699
l-6 48q-11 74 -49 137q-94 157 -299 159q-207 -1 -296 -166q-36 -65 -45 -139zM360 1663q36 34 87 35q49 0 84.5 -34.5t36.5 -85.5q0 -52 -35 -88t-86 -35q-52 -1 -87.5 35.5t-34.5 87.5q-1 51 35 85zM759.5 1662.5q37.5 35.5 86.5 35.5q51 0 85.5 -36t34.5 -86
q-1 -50 -35 -86t-84 -35q-52 -1 -88.5 33.5t-35.5 87.5q-1 51 36.5 86.5z" />
    <glyph glyph-name="igrave" unicode="&#xec;" horiz-adv-x="607" 
d="M244 1288q29 -7 64 -7q34 0 61 7l41 14v-1302h-212v1302zM378 1440l-406 276h288l335 -276h-217z" />
    <glyph glyph-name="iacute" unicode="&#xed;" horiz-adv-x="607" 
d="M244 1288q29 -7 64 -7q34 0 61 7l41 14v-1302h-212v1302zM489 1716h288l-406 -276h-217z" />
    <glyph glyph-name="icircumflex" unicode="&#xee;" horiz-adv-x="607" 
d="M244 1288q29 -7 64 -7q34 0 61 7l41 14v-1302h-212v1302zM187 1716h217l208 -276h-157l-161 132v0l-162 -132h-153z" />
    <glyph glyph-name="idieresis" unicode="&#xef;" horiz-adv-x="607" 
d="M244 1288q29 -7 64 -7q34 0 61 7l41 14v-1302h-212v1302zM19 1663q36 34 87 35q49 0 84.5 -34.5t36.5 -85.5q0 -52 -35 -88t-86 -35q-52 -1 -87.5 35.5t-34.5 87.5q-1 51 35 85zM418.5 1662.5q37.5 35.5 86.5 35.5q51 0 85.5 -36t34.5 -86q-1 -50 -35 -86t-84 -35
q-52 -1 -88.5 33.5t-35.5 87.5q-1 51 36.5 86.5z" />
    <glyph glyph-name="eth" unicode="&#xf0;" horiz-adv-x="1403" 
d="M308 1441l-38 108l205 61v0l-17 11l-73 51l-21 14l170 78l32 -19l99 -61l16 -10v0l234 72l37 -109l-160 -49v0l26 -20q69 -54 142 -133q95 -103 166 -215q86 -136 123 -283q28 -116 29 -251q-1 -305 -138 -498q-155 -220 -453 -219q-306 1 -447 214q-76 110 -103 244
q-26 118 -25 245q0 304 137 484q132 176 372 178q95 -1 168 -28l59 -27l-30 33q-45 46 -110 108l-88 77l-35 28v0zM324 649q0 -96 19 -187q28 -144 117 -223q99 -87 235 -86q198 0 292 165q77 137 79 341q-3 206 -73 324q-82 138 -287 139q-380 -5 -382 -473z" />
    <glyph glyph-name="ntilde" unicode="&#xf1;" horiz-adv-x="1403" 
d="M396 1302v-275l39 65q149 243 394 242q87 0 167 -32q209 -82 216 -413l2 -121v-768h-212v774q0 67 -5 123q-20 223 -246 225q-182 -1 -279 -150q-74 -113 -74 -318v-654h-212v1302h210zM293 1566q106 121 255 121q70 -1 135 -27l107 -45q40 -18 82 -17q87 0 157 70l26 31
l116 -75l-17 -25q-101 -144 -265 -144q-67 0 -132 27l-107 44q-45 18 -89 18q-91 0 -165 -76l-27 -31l-117 77z" />
    <glyph glyph-name="ograve" unicode="&#xf2;" horiz-adv-x="1403" 
d="M143 905q30 133 110.5 232t192.5 146q121 51 263 51q135 0 255 -47t191 -142q74 -100 103 -231q24 -113 24 -233q-1 -508 -341 -663q-108 -50 -250 -49q-134 -2 -244 47q-335 142 -331 648q0 123 27 241zM328 653q-1 -97 20 -191q28 -143 117 -223q98 -87 235 -86
q192 -1 289 162q79 131 81 349q0 89 -17 172q-18 88 -68 160.5t-130 102.5q-62 24 -146 23q-379 -4 -381 -469zM831 1440l-406 276h288l335 -276h-217z" />
    <glyph glyph-name="oacute" unicode="&#xf3;" horiz-adv-x="1403" 
d="M143 905q30 133 110.5 232t192.5 146q121 51 263 51q135 0 255 -47t191 -142q74 -100 103 -231q24 -113 24 -233q-1 -508 -341 -663q-108 -50 -250 -49q-134 -2 -244 47q-335 142 -331 648q0 123 27 241zM328 653q-1 -97 20 -191q28 -143 117 -223q98 -87 235 -86
q192 -1 289 162q79 131 81 349q0 89 -17 172q-18 88 -68 160.5t-130 102.5q-62 24 -146 23q-379 -4 -381 -469zM887 1716h288l-406 -276h-217z" />
    <glyph glyph-name="ocircumflex" unicode="&#xf4;" horiz-adv-x="1403" 
d="M143 905q30 133 110.5 232t192.5 146q121 51 263 51q135 0 255 -47t191 -142q74 -100 103 -231q24 -113 24 -233q-1 -508 -341 -663q-108 -50 -250 -49q-134 -2 -244 47q-335 142 -331 648q0 123 27 241zM328 653q-1 -97 20 -191q28 -143 117 -223q98 -87 235 -86
q192 -1 289 162q79 131 81 349q0 89 -17 172q-18 88 -68 160.5t-130 102.5q-62 24 -146 23q-379 -4 -381 -469zM585 1716h217l208 -276h-157l-161 132v0l-162 -132h-153z" />
    <glyph glyph-name="otilde" unicode="&#xf5;" horiz-adv-x="1403" 
d="M143 905q30 133 110.5 232t192.5 146q121 51 263 51q135 0 255 -47t191 -142q74 -100 103 -231q24 -113 24 -233q-1 -508 -341 -663q-108 -50 -250 -49q-134 -2 -244 47q-335 142 -331 648q0 123 27 241zM328 653q-1 -97 20 -191q28 -143 117 -223q98 -87 235 -86
q192 -1 289 162q79 131 81 349q0 89 -17 172q-18 88 -68 160.5t-130 102.5q-62 24 -146 23q-379 -4 -381 -469zM293 1566q106 121 255 121q70 -1 135 -27l107 -45q40 -18 82 -17q87 0 157 70l26 31l116 -75l-17 -25q-101 -144 -265 -144q-67 0 -132 27l-107 44
q-45 18 -89 18q-91 0 -165 -76l-27 -31l-117 77z" />
    <glyph glyph-name="odieresis" unicode="&#xf6;" horiz-adv-x="1403" 
d="M143 905q30 133 110.5 232t192.5 146q121 51 263 51q135 0 255 -47t191 -142q74 -100 103 -231q24 -113 24 -233q-1 -508 -341 -663q-108 -50 -250 -49q-134 -2 -244 47q-335 142 -331 648q0 123 27 241zM328 653q-1 -97 20 -191q28 -143 117 -223q98 -87 235 -86
q192 -1 289 162q79 131 81 349q0 89 -17 172q-18 88 -68 160.5t-130 102.5q-62 24 -146 23q-379 -4 -381 -469zM417 1663q36 34 87 35q49 0 84.5 -34.5t36.5 -85.5q0 -52 -35 -88t-86 -35q-52 -1 -87.5 35.5t-34.5 87.5q-1 51 35 85zM816.5 1662.5q37.5 35.5 86.5 35.5
q51 0 85.5 -36t34.5 -86q-1 -50 -35 -86t-84 -35q-52 -1 -88.5 33.5t-35.5 87.5q-1 51 36.5 86.5z" />
    <glyph glyph-name="divide" unicode="&#xf7;" horiz-adv-x="2086" 
d="M971 311.5q29 29.5 68 29.5q39 1 68 -28t28 -68q0 -40 -28 -70t-68 -28q-40 -1 -68.5 27.5t-27.5 68.5q-1 39 28 68.5zM1655 645v-149h-1232v149h1232zM970 964.5q29 29.5 68 29.5q38 1 68.5 -29.5t29.5 -68.5q1 -40 -29.5 -68.5t-68.5 -27.5q-40 -1 -68.5 27.5
t-27.5 68.5q-1 39 28 68.5z" />
    <glyph glyph-name="oslash" unicode="&#xf8;" horiz-adv-x="1403" 
d="M224 209q-108 196 -108 449q-1 487 330 625q122 51 265 51q93 0 183.5 -22t158.5 -64l25 -17v0l83 103h142l-149 -189v0l20 -29q109 -169 108 -432q-1 -318 -140 -503q-82 -110 -202 -163q-109 -50 -246 -49q-201 0 -351 104l-21 15v0l-94 -121h-143l160 205v0zM451 252
v0l20 -18q91 -80 229 -81q194 -1 290 165q78 135 80 339q0 87 -16 173q-13 65 -35 110l-11 19v0zM386 349v0l552 703v0l-25 15q-93 54 -210 55q-89 0 -166 -32q-207 -85 -209 -430q-1 -84 19 -189q9 -60 27 -98z" />
    <glyph glyph-name="ugrave" unicode="&#xf9;" horiz-adv-x="1365" 
d="M1195 0h-191v299l-46 -88q-133 -243 -388 -242q-95 -1 -178 31q-71 25 -116 76q-60 64 -79 145q-27 105 -29 237l-1 159v685h212v-690l2 -224q4 -108 74 -175q64 -61 180 -60q345 1 348 459v690h212v-1302zM807 1440l-406 276h288l335 -276h-217z" />
    <glyph glyph-name="uacute" unicode="&#xfa;" horiz-adv-x="1365" 
d="M1195 0h-191v299l-46 -88q-133 -243 -388 -242q-95 -1 -178 31q-71 25 -116 76q-60 64 -79 145q-27 105 -29 237l-1 159v685h212v-690l2 -224q4 -108 74 -175q64 -61 180 -60q345 1 348 459v690h212v-1302zM868 1716h288l-406 -276h-217z" />
    <glyph glyph-name="ucircumflex" unicode="&#xfb;" horiz-adv-x="1365" 
d="M1195 0h-191v299l-46 -88q-133 -243 -388 -242q-95 -1 -178 31q-71 25 -116 76q-60 64 -79 145q-27 105 -29 237l-1 159v685h212v-690l2 -224q4 -108 74 -175q64 -61 180 -60q345 1 348 459v690h212v-1302zM566 1716h217l208 -276h-157l-161 132v0l-162 -132h-153z" />
    <glyph glyph-name="udieresis" unicode="&#xfc;" horiz-adv-x="1365" 
d="M1195 0h-191v299l-46 -88q-133 -243 -388 -242q-95 -1 -178 31q-71 25 -116 76q-60 64 -79 145q-27 105 -29 237l-1 159v685h212v-690l2 -224q4 -108 74 -175q64 -61 180 -60q345 1 348 459v690h212v-1302zM398 1663q36 34 87 35q49 0 84.5 -34.5t36.5 -85.5
q0 -52 -35 -88t-86 -35q-52 -1 -87.5 35.5t-34.5 87.5q-1 51 35 85zM797.5 1662.5q37.5 35.5 86.5 35.5q51 0 85.5 -36t34.5 -86q-1 -50 -35 -86t-84 -35q-52 -1 -88.5 33.5t-35.5 87.5q-1 51 36.5 86.5z" />
    <glyph glyph-name="yacute" unicode="&#xfd;" 
d="M266 1302l369 -1004v0l330 1004h230l-553 -1607h-234l120 325v0l-495 1282h233zM792 1716h288l-406 -276h-217z" />
    <glyph glyph-name="thorn" unicode="&#xfe;" horiz-adv-x="1441" 
d="M194 1618h212v-624l36 68q36 68 84 124q122 146 325 148q240 1 360 -204q95 -164 96 -419q0 -140 -29 -271q-45 -200 -167 -327q-139 -146 -329 -144q-181 -1 -332 170l-44 54v-498h-212v1923zM401 608q-1 -86 16 -159q18 -86 63.5 -154t113.5 -105.5t152 -36.5
q189 0 276 173q74 144 73 334q0 86 -17 168q-63 293 -315 294q-96 0 -169.5 -46t-118.5 -128q-38 -67 -54 -145q-21 -94 -20 -195z" />
    <glyph glyph-name="ydieresis" unicode="&#xff;" 
d="M266 1302l369 -1004v0l330 1004h230l-553 -1607h-234l120 325v0l-495 1282h233zM322 1663q36 34 87 35q49 0 84.5 -34.5t36.5 -85.5q0 -52 -35 -88t-86 -35q-52 -1 -87.5 35.5t-34.5 87.5q-1 51 35 85zM721.5 1662.5q37.5 35.5 86.5 35.5q51 0 85.5 -36t34.5 -86
q-1 -50 -35 -86t-84 -35q-52 -1 -88.5 33.5t-35.5 87.5q-1 51 36.5 86.5z" />
    <glyph glyph-name="Abreve" unicode="&#x102;" horiz-adv-x="1441" 
d="M529 1536h374l489 -1536h-224l-128 431v0h-651v0l-132 -431h-217zM454 655v0h515v0l-257 708v0zM570 1949l7 -18q42 -102 148 -100q105 -2 148 100l7 18h117l-5 -37q-18 -112 -86 -176q-72 -69 -181 -69q-227 -1 -267 245l-5 37h117z" />
    <glyph glyph-name="abreve" unicode="&#x103;" horiz-adv-x="1176" 
d="M823 182l-42 -49q-144 -164 -350 -164q-160 -1 -262 89t-103 250q-2 98 36 162q61 109 306 193l185 63q98 31 162 73q74 48 74 127q-1 95 -91 149q-77 46 -175 47q-121 0 -236 -53q-76 -34 -136 -87l-60 -57v217l39 32q200 159 442 160q173 -2 287 -81q123 -85 133 -260
l3 -136v-857h-212v182zM823 663l-32 -15q-121 -54 -251.5 -94.5t-177.5 -78.5q-86 -71 -84 -168q0 -82 55 -130.5t135 -46.5q52 -1 106 18q244 81 249 397v118zM433 1722l7 -18q42 -102 148 -100q105 -2 148 100l7 18h117l-5 -37q-18 -112 -86 -176q-72 -69 -181 -69
q-227 -1 -267 245l-5 37h117z" />
    <glyph glyph-name="Aogonek" unicode="&#x104;" horiz-adv-x="1441" 
d="M529 1536h374l489 -1536h-224l-128 431v0h-651v0l-132 -431h-217zM454 655v0h515v0l-257 708v0zM1235 22l-42 -41q-79 -84 -80 -165q1 -75 86 -78q62 1 126 31l27 15l44 -52l-37 -31q-77 -59 -203 -59q-187 -2 -188 146q-1 124 186 234h81z" />
    <glyph glyph-name="aogonek" unicode="&#x105;" horiz-adv-x="1176" 
d="M823 182l-42 -49q-144 -164 -350 -164q-160 -1 -262 89t-103 250q-2 98 36 162q61 109 306 193l185 63q98 31 162 73q74 48 74 127q-1 95 -91 149q-77 46 -175 47q-121 0 -236 -53q-76 -34 -136 -87l-60 -57v217l39 32q200 159 442 160q173 -2 287 -81q123 -85 133 -260
l3 -136v-857h-212v182zM823 663l-32 -15q-121 -54 -251.5 -94.5t-177.5 -78.5q-86 -71 -84 -168q0 -82 55 -130.5t135 -46.5q52 -1 106 18q244 81 249 397v118zM928 58l-42 -41q-79 -84 -80 -165q1 -75 86 -78q62 1 126 31l27 15l44 -52l-37 -31q-77 -59 -203 -59
q-187 -2 -188 146q-1 124 186 234h81z" />
    <glyph glyph-name="Cacute" unicode="&#x106;" horiz-adv-x="1252" 
d="M1138 150q-85 -86 -188 -130q-116 -52 -245 -51q-122 -1 -226 44q-207 87 -311 314q-85 186 -85 443q1 338 137 549q158 245 490 248q238 -2 404 -133l54 -47v-312l-56 71q-160 195 -374 197q-223 0 -335 -170q-51 -75 -71 -170q-26 -109 -25 -224q1 -261 101 -423
q108 -182 322 -183q187 -1 367 188l71 77v-257zM855 1943h288l-406 -276h-217z" />
    <glyph glyph-name="cacute" unicode="&#x107;" horiz-adv-x="1138" 
d="M1042 169l-40 -40q-81 -78 -178 -119.5t-196 -40.5q-112 0 -210 51q-204 103 -278 373q-33 117 -32 251q2 293 120 473q141 215 424 217q111 0 212 -41q71 -30 135 -79l61 -53l-8 -274q-95 128 -161 171q-99 63 -224 64q-199 0 -280 -161q-68 -136 -67 -330
q2 -191 71 -319q87 -161 270 -159q121 -1 227 82q66 52 154 191v-257zM762 1716h288l-406 -276h-217z" />
    <glyph glyph-name="Ccaron" unicode="&#x10c;" horiz-adv-x="1252" 
d="M1138 150q-85 -86 -188 -130q-116 -52 -245 -51q-122 -1 -226 44q-207 87 -311 314q-85 186 -85 443q1 338 137 549q158 245 490 248q238 -2 404 -133l54 -47v-312l-56 71q-160 195 -374 197q-223 0 -335 -170q-51 -75 -71 -170q-26 -109 -25 -224q1 -261 101 -423
q108 -182 322 -183q187 -1 367 188l71 77v-257zM831 1667h-217l-208 276h157l161 -132v0l162 132h153z" />
    <glyph glyph-name="ccaron" unicode="&#x10d;" horiz-adv-x="1138" 
d="M1042 169l-40 -40q-81 -78 -178 -119.5t-196 -40.5q-112 0 -210 51q-204 103 -278 373q-33 117 -32 251q2 293 120 473q141 215 424 217q111 0 212 -41q71 -30 135 -79l61 -53l-8 -274q-95 128 -161 171q-99 63 -224 64q-199 0 -280 -161q-68 -136 -67 -330
q2 -191 71 -319q87 -161 270 -159q121 -1 227 82q66 52 154 191v-257zM768 1440h-217l-208 276h157l161 -132v0l162 132h153z" />
    <glyph glyph-name="Dcaron" unicode="&#x10e;" horiz-adv-x="1441" 
d="M695 1536q178 0 278 -32q136 -44 226 -159q149 -193 149 -532q0 -163 -39 -309q-67 -249 -256 -387q-101 -74 -213 -99q-78 -18 -235 -18h-447v1536h537zM382 1312v-1108h222q104 -1 166 10q127 19 217 128q134 157 137 452q-1 235 -93 371q-59 88 -147 121
q-63 24 -191 26h-311zM791 1667h-217l-208 276h157l161 -132v0l162 132h153z" />
    <glyph glyph-name="dcaron" unicode="&#x10f;" horiz-adv-x="1555" 
d="M1257 1618v-1618h-194v234q-188 -266 -436 -265q-182 -2 -308 121q-114 110 -151 299q-25 120 -24 252q1 276 94 446q68 126 181 190q100 57 234 57q110 -1 199 -40.5t146 -111.5l47 -65v501h212zM356 652q-1 -76 9 -149q18 -153 90 -242q88 -108 228 -108
q173 -1 273 146q92 135 94 381q0 81 -13 153q-25 134 -115.5 211.5t-226.5 77.5q-199 -1 -279 -158q-36 -66 -47 -143q-14 -82 -13 -169zM1410 1407l12 74q7 58 7 149l-2 68l-4 35h177v-9q-2 -109 -34 -239q-9 -39 -23 -78l-12 -34h-128z" />
    <glyph glyph-name="Dslash" unicode="&#x110;" horiz-adv-x="1441" 
d="M695 1536q96 0 170 -8q252 -27 380 -255q102 -183 102 -460q0 -163 -39 -309q-67 -249 -256 -387q-100 -73 -213 -99q-77 -18 -234 -18h-447v691h-106v204h106v641h537zM382 1312v-417h267v-204h-267v-487h221q147 0 223 28q106 38 179 133q115 150 118 429
q-1 275 -126 415q-89 100 -304 103h-311z" />
    <glyph glyph-name="dcroat" unicode="&#x111;" horiz-adv-x="1441" 
d="M1045 1618h212v-103h175v-164h-175v-1351h-212v234q-94 -137 -179 -192q-114 -74 -249 -73q-105 -1 -192 43q-281 137 -281 626q1 279 93 449q66 125 182 190q100 57 234 57q223 -2 345 -152l47 -65v234h-194v164h194v103zM356 652q-2 -199 59 -328q79 -171 268 -171
q174 0 271 146q92 138 94 380q0 81 -13 154q-55 290 -341 289q-277 -3 -325 -301q-14 -83 -13 -169z" />
    <glyph glyph-name="Eogonek" unicode="&#x118;" 
d="M1088 1536v-224h-713v-424h713v-224h-713v-440h713v-224h-937v1536h937zM768 22l-42 -41q-79 -84 -80 -165q1 -75 86 -78q62 1 126 31l27 15l44 -52l-37 -31q-77 -59 -203 -59q-187 -2 -188 146q-1 124 186 234h81z" />
    <glyph glyph-name="eogonek" unicode="&#x119;" horiz-adv-x="1289" 
d="M335 534q49 -381 359 -381q75 -1 149 29q118 46 228 180l47 59l15 -233l-45 -43q-127 -115 -265 -155q-74 -23 -157 -21q-275 2 -421 206q-128 178 -129 462q-1 113 21 220q41 208 177.5 342.5t355.5 134.5q297 -2 420 -198q99 -158 100 -469l-1 -73h-861zM328 778h699
l-6 48q-11 74 -49 137q-94 157 -299 159q-207 -1 -296 -166q-36 -65 -45 -139zM850 58l-42 -41q-79 -84 -80 -165q1 -75 86 -78q62 1 126 31l27 15l44 -52l-37 -31q-77 -59 -203 -59q-187 -2 -188 146q-1 124 186 234h81z" />
    <glyph glyph-name="Ecaron" unicode="&#x11a;" 
d="M1088 1536v-224h-713v-424h713v-224h-713v-440h713v-224h-937v1536h937zM754 1667h-217l-208 276h157l161 -132v0l162 132h153z" />
    <glyph glyph-name="ecaron" unicode="&#x11b;" horiz-adv-x="1289" 
d="M335 534q49 -381 359 -381q75 -1 149 29q118 46 228 180l47 59l15 -233l-45 -43q-127 -115 -265 -155q-74 -23 -157 -21q-275 2 -421 206q-128 178 -129 462q-1 113 21 220q41 208 177.5 342.5t355.5 134.5q297 -2 420 -198q99 -158 100 -469l-1 -73h-861zM328 778h699
l-6 48q-11 74 -49 137q-94 157 -299 159q-207 -1 -296 -166q-36 -65 -45 -139zM762 1440h-217l-208 276h157l161 -132v0l162 132h153z" />
    <glyph glyph-name="Gbreve" unicode="&#x11e;" horiz-adv-x="1403" 
d="M1049 784h224v-549l-59 -69q-176 -196 -458 -197q-321 -2 -499 246q-154 215 -155 549q1 355 154 566q170 236 495 237q279 0 444 -150l36 -38v-288l-68 79q-78 86 -165 128q-94 45 -215 45q-128 0 -224.5 -52t-148.5 -149q-45 -79 -63 -175q-22 -101 -21 -211
q-1 -113 25 -217q28 -116 98 -207q56 -75 140.5 -117.5t184.5 -41.5q138 -1 275 108v503zM598 1949l7 -18q42 -102 148 -100q105 -2 148 100l7 18h117l-5 -37q-18 -112 -86 -176q-72 -69 -181 -69q-227 -1 -267 245l-5 37h117z" />
    <glyph glyph-name="gbreve" unicode="&#x11f;" horiz-adv-x="1365" 
d="M218 8l53 -30q91 -50 183.5 -75t189.5 -24q328 1 345 313l3 149l-74 -76q-159 -152 -349 -151q-230 -1 -365 192q-115 163 -113 407q0 106 23 205q27 118 96 215q76 109 198 162q88 39 195 39q227 -2 357 -176l35 -49v193h209v-1029q0 -177 -10 -229q-22 -119 -104 -200
q-151 -151 -420 -149q-123 -1 -246 33q-91 23 -166 62l-40 21v197zM303 705q1 -175 76 -280q91 -127 254 -127q119 -2 216 81q81 70 117 202q21 77 21 156q0 168 -86 272q-92 112 -257 113q-77 0 -144 -29q-200 -85 -197 -388zM528 1722l7 -18q42 -102 148 -100
q105 -2 148 100l7 18h117l-5 -37q-18 -112 -86 -176q-72 -69 -181 -69q-227 -1 -267 245l-5 37h117z" />
    <glyph glyph-name="Idotaccent" unicode="&#x130;" horiz-adv-x="569" 
d="M173 1536h224v-1536h-224v1536zM207.5 1884.5q37.5 35.5 86.5 35.5q51 0 85.5 -36t34.5 -86q-1 -50 -35 -86t-84 -35q-52 -1 -88.5 33.5t-35.5 87.5q-1 51 36.5 86.5z" />
    <glyph glyph-name="dotlessi" unicode="&#x131;" horiz-adv-x="607" 
d="M244 1288q29 -7 64 -7q34 0 61 7l41 14v-1302h-212v1302z" />
    <glyph glyph-name="Lacute" unicode="&#x139;" horiz-adv-x="1062" 
d="M206 1536h224v-1312h579v-224h-803v1536zM563 1943h288l-406 -276h-217z" />
    <glyph glyph-name="lacute" unicode="&#x13a;" horiz-adv-x="569" 
d="M404 1618v-1618h-212v1618h212zM505 1990h288l-406 -276h-217z" />
    <glyph glyph-name="Lcaron" unicode="&#x13d;" horiz-adv-x="1062" 
d="M206 1536h224v-1312h579v-224h-803v1536zM629 1210l12 74q7 58 7 149l-2 68l-4 35h177v-9q-2 -109 -34 -239q-9 -39 -23 -78l-12 -34h-128z" />
    <glyph glyph-name="lcaron" unicode="&#x13e;" horiz-adv-x="721" 
d="M404 1618v-1618h-212v1618h212zM568 1407l12 74q7 58 7 149l-2 68l-4 35h177v-9q-2 -109 -34 -239q-9 -39 -23 -78l-12 -34h-128z" />
    <glyph glyph-name="Ldot" unicode="&#x13f;" horiz-adv-x="1062" 
d="M206 1536h224v-1312h579v-224h-803v1536zM749.5 919.5q37.5 35.5 86.5 35.5q51 0 85.5 -36t34.5 -86q-1 -50 -35 -86t-84 -35q-52 -1 -88.5 33.5t-35.5 87.5q-1 51 36.5 86.5z" />
    <glyph glyph-name="ldot" unicode="&#x140;" horiz-adv-x="683" 
d="M389 1618v-1618h-212v1618h212zM549.5 949.5q37.5 35.5 86.5 35.5q51 0 85.5 -36t34.5 -86q-1 -50 -35 -86t-84 -35q-52 -1 -88.5 33.5t-35.5 87.5q-1 51 36.5 86.5z" />
    <glyph glyph-name="Lslash" unicode="&#x141;" horiz-adv-x="1062" 
d="M1 432v189l204 170v0v745h224v-554v0l252 201v-198l-252 -200v0v-561h578v-224h-802v600v0z" />
    <glyph glyph-name="lslash" unicode="&#x142;" horiz-adv-x="569" 
d="M183 1618h212v-618v0l238 151v-162l-238 -150v0v-839h-212v705v0l-238 -150v159l238 151v0v753z" />
    <glyph glyph-name="Nacute" unicode="&#x143;" horiz-adv-x="1517" 
d="M521 1536l608 -1349v0v1349h224v-1536h-361l-608 1305v0v-1305h-224v1536h361zM934 1943h288l-406 -276h-217z" />
    <glyph glyph-name="nacute" unicode="&#x144;" horiz-adv-x="1403" 
d="M396 1302v-275l39 65q149 243 394 242q87 0 167 -32q209 -82 216 -413l2 -121v-768h-212v774q0 67 -5 123q-20 223 -246 225q-182 -1 -279 -150q-74 -113 -74 -318v-654h-212v1302h210zM887 1716h288l-406 -276h-217z" />
    <glyph glyph-name="Ncaron" unicode="&#x147;" horiz-adv-x="1517" 
d="M521 1536l608 -1349v0v1349h224v-1536h-361l-608 1305v0v-1305h-224v1536h361zM871 1667h-217l-208 276h157l161 -132v0l162 132h153z" />
    <glyph glyph-name="ncaron" unicode="&#x148;" horiz-adv-x="1403" 
d="M396 1302v-275l39 65q149 243 394 242q87 0 167 -32q209 -82 216 -413l2 -121v-768h-212v774q0 67 -5 123q-20 223 -246 225q-182 -1 -279 -150q-74 -113 -74 -318v-654h-212v1302h210zM819 1440h-217l-208 276h157l161 -132v0l162 132h153z" />
    <glyph glyph-name="Odblacute" unicode="&#x150;" horiz-adv-x="1479" 
d="M240 1338q176 228 516 229q624 -1 625 -771q-2 -366 -141 -571q-176 -257 -508 -256q-130 0 -226 35q-134 47 -225 156q-187 217 -188 624q-1 364 147 554zM317 773q-1 -123 21 -238q47 -258 234 -333q70 -30 165 -29q320 0 393 354q27 130 27 274q0 109 -16 202
q-19 114 -83 202q-57 78 -158 113q-74 25 -157 25t-156 -24q-104 -33 -166.5 -114.5t-83.5 -201.5q-21 -111 -20 -230zM385 1667l335 276h288l-407 -276h-216zM760 1667l335 276h288l-407 -276h-216z" />
    <glyph glyph-name="odblacute" unicode="&#x151;" horiz-adv-x="1403" 
d="M143 905q30 133 110.5 232t192.5 146q121 51 263 51q135 0 255 -47t191 -142q74 -100 103 -231q24 -113 24 -233q-1 -508 -341 -663q-108 -50 -250 -49q-134 -2 -244 47q-335 142 -331 648q0 123 27 241zM328 653q-1 -97 20 -191q28 -143 117 -223q98 -87 235 -86
q192 -1 289 162q79 131 81 349q0 89 -17 172q-18 88 -68 160.5t-130 102.5q-62 24 -146 23q-379 -4 -381 -469zM345 1440l335 276h288l-407 -276h-216zM720 1440l335 276h288l-407 -276h-216z" />
    <glyph glyph-name="OE" unicode="&#x152;" horiz-adv-x="2048" 
d="M1209 883h714v-224h-714v-435h714v-224h-774q-49 0 -106 -5l-145 -15q-96 -12 -164 -11q-320 3 -496 254q-139 199 -139 553q2 639 440 763q98 28 206 28q63 0 141 -10l142 -18q37 -4 121 -3h774v-224h-714v-429zM985 222v1095l-39 9q-80 17 -158 17q-252 -2 -363 -142
q-100 -122 -102 -427q2 -411 220 -548q82 -54 181 -53q96 0 221 37z" />
    <glyph glyph-name="oe" unicode="&#x153;" horiz-adv-x="2276" 
d="M1237 1169q152 164 419 165q501 0 502 -670l-2 -72h-860l6 -61q25 -229 187 -325q88 -54 188 -53q187 1 363 209l45 54l21 -223l-28 -30q-192 -192 -445 -194q-99 -1 -191 33q-127 44 -214 138l-55 66v0l-53 -64q-160 -173 -425 -173q-296 1 -438 211q-128 190 -126 482
q0 483 327 621q120 51 259 51q117 0 226 -37q135 -46 220 -145l30 -38v0zM343 653q0 -96 20 -191q19 -100 72 -172q47 -70 130 -106q68 -32 149 -31q192 -1 289 162q79 131 81 347q3 463 -361 460q-378 -5 -380 -469zM1296 776h699l-6 47q-22 137 -114 220q-87 78 -234 79
q-151 0 -235 -82q-88 -88 -106 -226z" />
    <glyph glyph-name="Racute" unicode="&#x154;" horiz-adv-x="1289" 
d="M667 1536q267 -2 373 -81q142 -107 144 -347q1 -398 -391 -443l-95 -9v0l487 -656h-268l-537 758v-758h-224v1536h511zM380 1312v-495h294q150 2 212 60q72 65 74 209q1 205 -184 222q-45 4 -102 4h-294zM782 1943h288l-406 -276h-217z" />
    <glyph glyph-name="racute" unicode="&#x155;" horiz-adv-x="948" 
d="M368 1302v-278l44 90q25 47 58 91q94 128 222 129q110 -1 189 -49l32 -23l-8 -248l-28 32q-74 75 -182 76q-313 0 -310 -478v-644h-212v1302h195zM659 1716h288l-406 -276h-217z" />
    <glyph glyph-name="Rcaron" unicode="&#x158;" horiz-adv-x="1289" 
d="M667 1536q267 -2 373 -81q142 -107 144 -347q1 -398 -391 -443l-95 -9v0l487 -656h-268l-537 758v-758h-224v1536h511zM380 1312v-495h294q150 2 212 60q72 65 74 209q1 205 -184 222q-45 4 -102 4h-294zM757 1667h-217l-208 276h157l161 -132v0l162 132h153z" />
    <glyph glyph-name="rcaron" unicode="&#x159;" horiz-adv-x="948" 
d="M368 1302v-278l44 90q25 47 58 91q94 128 222 129q110 -1 189 -49l32 -23l-8 -248l-28 32q-74 75 -182 76q-313 0 -310 -478v-644h-212v1302h195zM591 1440h-217l-208 276h157l161 -132v0l162 132h153z" />
    <glyph glyph-name="Sacute" unicode="&#x15a;" horiz-adv-x="1100" 
d="M120 399l67 -67q167 -161 350 -159q110 0 195.5 67t85.5 181q0 123 -82 179q-42 27 -103 43l-134 34q-114 28 -202 73q-214 107 -215 363q0 200 138 330q133 124 339 124q207 0 375 -125l49 -39v-269l-74 67q-162 140 -340 142q-120 0 -183 -56q-80 -69 -80 -171
q2 -117 107 -172q57 -30 136 -51l136 -38q107 -31 182 -73q176 -103 175 -340q0 -136 -62 -243q-68 -117 -180.5 -174t-255.5 -56q-114 -1 -206.5 32.5t-168.5 97.5l-49 42v258zM715 1943h288l-406 -276h-217z" />
    <glyph glyph-name="sacute" unicode="&#x15b;" horiz-adv-x="948" 
d="M141 265q142 -111 289 -112q99 -2 161 54q70 64 71 154q-1 129 -136 167l-151 43q-93 26 -160 68q-143 86 -144 281q0 124 64 224q67 104 178 151q91 39 199 39q139 1 263 -69l55 -36v-245l-45 39q-122 98 -254 99q-106 0 -170 -42q-80 -53 -78 -150q1 -92 80 -131
q41 -21 93 -37l138 -43q70 -22 129 -58q152 -96 151 -283q0 -129 -69 -233.5t-194 -146.5q-85 -30 -179 -29q-96 -1 -177 28q-64 20 -122 61l-37 26v216zM639 1716h288l-406 -276h-217z" />
    <glyph glyph-name="Scedilla" unicode="&#x15e;" horiz-adv-x="1100" 
d="M120 399l67 -67q167 -161 350 -159q110 0 195.5 67t85.5 181q0 123 -82 179q-42 27 -103 43l-134 34q-114 28 -202 73q-214 107 -215 363q0 200 138 330q133 124 339 124q207 0 375 -125l49 -39v-269l-74 67q-162 140 -340 142q-120 0 -183 -56q-80 -69 -80 -171
q2 -117 107 -172q57 -30 136 -51l136 -38q107 -31 182 -73q176 -103 175 -340q0 -136 -62 -243q-68 -117 -180.5 -174t-255.5 -56q-114 -1 -206.5 32.5t-168.5 97.5l-49 42v258zM366 -261l58 -14q35 -6 76 -6q92 -1 93 40q-3 35 -73 42l-60 5l-23 1l87 218h94l-45 -118h13
q61 -3 115 -40.5t55 -105.5q-2 -144 -222 -142q-72 -1 -126 11l-82 22z" />
    <glyph glyph-name="scedilla" unicode="&#x15f;" horiz-adv-x="948" 
d="M141 265q142 -111 289 -112q99 -2 161 54q70 64 71 154q-1 129 -136 167l-151 43q-93 26 -160 68q-143 86 -144 281q0 124 64 224q67 104 178 151q91 39 199 39q139 1 263 -69l55 -36v-245l-45 39q-122 98 -254 99q-106 0 -170 -42q-80 -53 -78 -150q1 -92 80 -131
q41 -21 93 -37l138 -43q70 -22 129 -58q152 -96 151 -283q0 -129 -69 -233.5t-194 -146.5q-85 -30 -179 -29q-96 -1 -177 28q-64 20 -122 61l-37 26v216zM266 -261l58 -14q35 -6 76 -6q92 -1 93 40q-3 35 -73 42l-60 5l-23 1l87 218h94l-45 -118h13q61 -3 115 -40.5
t55 -105.5q-2 -144 -222 -142q-72 -1 -126 11l-82 22z" />
    <glyph glyph-name="Scaron" unicode="&#x160;" horiz-adv-x="1100" 
d="M120 399l67 -67q167 -161 350 -159q110 0 195.5 67t85.5 181q0 123 -82 179q-42 27 -103 43l-134 34q-114 28 -202 73q-214 107 -215 363q0 200 138 330q133 124 339 124q207 0 375 -125l49 -39v-269l-74 67q-162 140 -340 142q-120 0 -183 -56q-80 -69 -80 -171
q2 -117 107 -172q57 -30 136 -51l136 -38q107 -31 182 -73q176 -103 175 -340q0 -136 -62 -243q-68 -117 -180.5 -174t-255.5 -56q-114 -1 -206.5 32.5t-168.5 97.5l-49 42v258zM662 1667h-217l-208 276h157l161 -132v0l162 132h153z" />
    <glyph glyph-name="scaron" unicode="&#x161;" horiz-adv-x="948" 
d="M141 265q142 -111 289 -112q99 -2 161 54q70 64 71 154q-1 129 -136 167l-151 43q-93 26 -160 68q-143 86 -144 281q0 124 64 224q67 104 178 151q91 39 199 39q139 1 263 -69l55 -36v-245l-45 39q-122 98 -254 99q-106 0 -170 -42q-80 -53 -78 -150q1 -92 80 -131
q41 -21 93 -37l138 -43q70 -22 129 -58q152 -96 151 -283q0 -129 -69 -233.5t-194 -146.5q-85 -30 -179 -29q-96 -1 -177 28q-64 20 -122 61l-37 26v216zM591 1440h-217l-208 276h157l161 -132v0l162 132h153z" />
    <glyph glyph-name="Tcedilla" unicode="&#x162;" horiz-adv-x="1176" 
d="M42 1536h1094v-224h-435v-1312h-224v1312h-435v224zM373 -261l58 -14q35 -6 76 -6q92 -1 93 40q-3 35 -73 42l-60 5l-23 1l87 218h94l-45 -118h13q61 -3 115 -40.5t55 -105.5q-2 -144 -222 -142q-72 -1 -126 11l-82 22z" />
    <glyph glyph-name="tcedilla" unicode="&#x163;" horiz-adv-x="948" 
d="M123 1274q173 104 239 306l13 46h87v-169v-155h446v-184h-446l-2 -62l-9 -294l-2 -210l1 -142q8 -255 195 -257q110 1 214 80l47 37v-189l-23 -18q-123 -93 -296 -94q-228 -1 -306 164q-44 94 -44 363l1 224q3 242 9 344l3 54h-191v123zM373 -261l58 -14q35 -6 76 -6
q92 -1 93 40q-3 35 -73 42l-60 5l-23 1l87 218h94l-45 -118h13q61 -3 115 -40.5t55 -105.5q-2 -144 -222 -142q-72 -1 -126 11l-82 22z" />
    <glyph glyph-name="Tcaron" unicode="&#x164;" horiz-adv-x="1176" 
d="M42 1536h1094v-224h-435v-1312h-224v1312h-435v224zM700 1667h-217l-208 276h157l161 -132v0l162 132h153z" />
    <glyph glyph-name="tcaron" unicode="&#x165;" horiz-adv-x="948" 
d="M123 1274q173 104 239 306l13 46h87v-169v-155h446v-184h-446l-2 -62l-9 -294l-2 -210l1 -142q8 -255 195 -257q110 1 214 80l47 37v-189l-23 -18q-123 -93 -296 -94q-228 -1 -306 164q-44 94 -44 363l1 224q3 242 9 344l3 54h-191v123zM678 1407l12 74q7 58 7 149l-2 68
l-4 35h177v-9q-2 -109 -34 -239q-9 -39 -23 -78l-12 -34h-128z" />
    <glyph glyph-name="Uring" unicode="&#x16e;" horiz-adv-x="1479" 
d="M398 1536v-944q1 -155 21 -225q34 -119 145 -162q78 -33 166 -32q203 1 283 113q58 82 61 306v944h224v-936q-1 -229 -46 -339q-68 -163 -237 -236q-130 -57 -278 -56q-149 -1 -279 56q-168 70 -238 236q-46 109 -46 339v936h224zM581 2021q67 64 162 66
q93 -1 159.5 -67.5t67.5 -159.5q-1 -94 -66.5 -161.5t-160.5 -67.5t-161.5 65.5t-67.5 163.5q0 97 67 161zM633 1860q3 -108 110 -110q105 2 108 110q-4 104 -108 108q-107 -3 -110 -108zM739 1536z" />
    <glyph glyph-name="uring" unicode="&#x16f;" horiz-adv-x="1365" 
d="M1195 0h-191v299l-46 -88q-133 -243 -388 -242q-95 -1 -178 31q-71 25 -116 76q-60 64 -79 145q-27 105 -29 237l-1 159v685h212v-690l2 -224q4 -108 74 -175q64 -61 180 -60q345 1 348 459v690h212v-1302zM524 1830q67 64 162 66q93 -1 159.5 -67.5t67.5 -159.5
q-1 -94 -66.5 -161.5t-160.5 -67.5t-161.5 65.5t-67.5 163.5q0 97 67 161zM576 1669q3 -108 110 -110q105 2 108 110q-4 104 -108 108q-107 -3 -110 -108zM682 1345z" />
    <glyph glyph-name="Udblacute" unicode="&#x170;" horiz-adv-x="1479" 
d="M398 1536v-944q1 -155 21 -225q34 -119 145 -162q78 -33 166 -32q203 1 283 113q58 82 61 306v944h224v-936q-1 -229 -46 -339q-68 -163 -237 -236q-130 -57 -278 -56q-149 -1 -279 56q-168 70 -238 236q-46 109 -46 339v936h224zM347 1667l335 276h288l-407 -276h-216z
M722 1667l335 276h288l-407 -276h-216z" />
    <glyph glyph-name="udblacute" unicode="&#x171;" horiz-adv-x="1365" 
d="M1195 0h-191v299l-46 -88q-133 -243 -388 -242q-95 -1 -178 31q-71 25 -116 76q-60 64 -79 145q-27 105 -29 237l-1 159v685h212v-690l2 -224q4 -108 74 -175q64 -61 180 -60q345 1 348 459v690h212v-1302zM304 1440l335 276h288l-407 -276h-216zM679 1440l335 276h288
l-407 -276h-216z" />
    <glyph glyph-name="Ydieresis" unicode="&#x178;" horiz-adv-x="1289" 
d="M245 1536l404 -684v0l402 684h246l-542 -905v-631h-224v631l-542 905h256zM360 1885q36 34 87 35q49 0 84.5 -34.5t36.5 -85.5q0 -52 -35 -88t-86 -35q-52 -1 -87.5 35.5t-34.5 87.5q-1 51 35 85zM759.5 1884.5q37.5 35.5 86.5 35.5q51 0 85.5 -36t34.5 -86
q-1 -50 -35 -86t-84 -35q-52 -1 -88.5 33.5t-35.5 87.5q-1 51 36.5 86.5z" />
    <glyph glyph-name="Zacute" unicode="&#x179;" horiz-adv-x="1252" 
d="M121 1536h1041v-266l-803 -1066v0h807v-204h-1045v266l794 1046v0h-794v224zM802 1943h288l-406 -276h-217z" />
    <glyph glyph-name="zacute" unicode="&#x17a;" horiz-adv-x="1062" 
d="M969 1302v-238l-650 -868v0h650v-196h-885v242l646 848v0h-646v212h885zM666 1716h288l-406 -276h-217z" />
    <glyph glyph-name="Zdot" unicode="&#x17b;" horiz-adv-x="1252" 
d="M121 1536h1041v-266l-803 -1066v0h807v-204h-1045v266l794 1046v0h-794v224zM548.5 1884.5q37.5 35.5 86.5 35.5q51 0 85.5 -36t34.5 -86q-1 -50 -35 -86t-84 -35q-52 -1 -88.5 33.5t-35.5 87.5q-1 51 36.5 86.5z" />
    <glyph glyph-name="zdot" unicode="&#x17c;" horiz-adv-x="1062" 
d="M969 1302v-238l-650 -868v0h650v-196h-885v242l646 848v0h-646v212h885zM454.5 1662.5q37.5 35.5 86.5 35.5q51 0 85.5 -36t34.5 -86q-1 -50 -35 -86t-84 -35q-52 -1 -88.5 33.5t-35.5 87.5q-1 51 36.5 86.5z" />
    <glyph glyph-name="Zcaron" unicode="&#x17d;" horiz-adv-x="1252" 
d="M121 1536h1041v-266l-803 -1066v0h807v-204h-1045v266l794 1046v0h-794v224zM738 1667h-217l-208 276h157l161 -132v0l162 132h153z" />
    <glyph glyph-name="zcaron" unicode="&#x17e;" horiz-adv-x="1062" 
d="M969 1302v-238l-650 -868v0h650v-196h-885v242l646 848v0h-646v212h885zM648 1440h-217l-208 276h157l161 -132v0l162 132h153z" />
    <glyph glyph-name="florin" unicode="&#x192;" 
d="M374 891h-192l40 184h193l3 40q22 236 131 356q130 145 347 147q66 0 128 -17q50 -13 95 -38l28 -16l-52 -211l-24 24q-77 73 -183 74q-120 1 -192 -95q-66 -86 -70 -206v-58h403l-41 -184h-398l-193 -891h-217z" />
    <glyph glyph-name="circumflex" unicode="&#x2c6;" 
d="M490 1716h217l208 -276h-157l-161 132v0l-162 -132h-153z" />
    <glyph glyph-name="caron" unicode="&#x2c7;" 
d="M724 1440h-217l-208 276h157l161 -132v0l162 132h153z" />
    <glyph glyph-name="macron" unicode="&#x2c9;" 
d="M889 1657v-152h-553v152h553z" />
    <glyph glyph-name="breve" unicode="&#x2d8;" 
d="M452 1722l7 -18q42 -102 148 -100q105 -2 148 100l7 18h117l-5 -37q-18 -112 -86 -176q-72 -69 -181 -69q-227 -1 -267 245l-5 37h117z" />
    <glyph glyph-name="dotaccent" unicode="&#x2d9;" 
d="M530.5 1662.5q37.5 35.5 86.5 35.5q51 0 85.5 -36t34.5 -86q-1 -50 -35 -86t-84 -35q-52 -1 -88.5 33.5t-35.5 87.5q-1 51 36.5 86.5z" />
    <glyph glyph-name="ring" unicode="&#x2da;" 
d="M448 1830q67 64 162 66q93 -1 159.5 -67.5t67.5 -159.5q-1 -94 -66.5 -161.5t-160.5 -67.5t-161.5 65.5t-67.5 163.5q0 97 67 161zM500 1669q3 -108 110 -110q105 2 108 110q-4 104 -108 108q-107 -3 -110 -108zM606 1345z" />
    <glyph glyph-name="ogonek" unicode="&#x2db;" 
d="M947 58l-42 -41q-79 -84 -80 -165q1 -75 86 -78q62 1 126 31l27 15l44 -52l-37 -31q-77 -59 -203 -59q-187 -2 -188 146q-1 124 186 234h81z" />
    <glyph glyph-name="tilde" unicode="&#x2dc;" 
d="M173 1566q106 121 255 121q70 -1 135 -27l107 -45q40 -18 82 -17q87 0 157 70l26 31l116 -75l-17 -25q-101 -144 -265 -144q-67 0 -132 27l-107 44q-45 18 -89 18q-91 0 -165 -76l-27 -31l-117 77z" />
    <glyph glyph-name="hungarumlaut" unicode="&#x2dd;" 
d="M210 1440l335 276h288l-407 -276h-216zM585 1440l335 276h288l-407 -276h-216z" />
    <glyph glyph-name="endash" unicode="&#x2013;" 
d="M1137 765v-184h-1075v184h1075z" />
    <glyph glyph-name="emdash" unicode="&#x2014;" horiz-adv-x="2086" 
d="M73 765h1936v-184h-1936v184z" />
    <glyph glyph-name="quoteleft" unicode="&#x2018;" horiz-adv-x="531" 
d="M-145 1491q-11 -50 -17 -102q-11 -87 -11 -201l3 -95l5 -46h-173v18q1 80 16 175q21 128 62 251l17 45h108z" />
    <glyph glyph-name="quoteright" unicode="&#x2019;" horiz-adv-x="531" 
d="M145 1092q11 50 17 102q11 87 11 201l-3 95l-5 46h173v-18q-1 -80 -16 -175q-21 -128 -62 -251l-17 -45h-108z" />
    <glyph glyph-name="quotesinglbase" unicode="&#x201a;" horiz-adv-x="531" 
d="M145 -218q11 50 17 102q11 87 11 201l-3 95l-5 46h173v-18q-1 -80 -16 -175q-21 -128 -62 -251l-17 -45h-108z" />
    <glyph glyph-name="quotedblleft" unicode="&#x201c;" horiz-adv-x="796" 
d="M-145 1491q-11 -50 -17 -102q-11 -87 -11 -201l3 -95l5 -46h-173v18q1 80 16 175q21 128 62 251l17 45h108zM160 1491q-11 -50 -17 -102q-11 -87 -11 -201l3 -95l5 -46h-173v18q1 80 16 175q21 128 62 251l17 45h108z" />
    <glyph glyph-name="quotedblright" unicode="&#x201d;" horiz-adv-x="796" 
d="M145 1092q11 50 17 102q11 87 11 201l-3 95l-5 46h173v-18q-1 -80 -16 -175q-21 -128 -62 -251l-17 -45h-108zM450 1092q11 50 17 102q11 87 11 201l-3 95l-5 46h173v-18q-1 -80 -16 -175q-21 -128 -62 -251l-17 -45h-108z" />
    <glyph glyph-name="quotedblbase" unicode="&#x201e;" horiz-adv-x="796" 
d="M145 -218q11 50 17 102q11 87 11 201l-3 95l-5 46h173v-18q-1 -80 -16 -175q-21 -128 -62 -251l-17 -45h-108zM450 -218q11 50 17 102q11 87 11 201l-3 95l-5 46h173v-18q-1 -80 -16 -175q-21 -128 -62 -251l-17 -45h-108z" />
    <glyph glyph-name="dagger" unicode="&#x2020;" 
d="M208 1266l351 -50l-50 351h203l-50 -351l351 50v-203l-351 50l50 -357l-79 -1074h-45l-79 1074l50 357l-351 -50v203z" />
    <glyph glyph-name="daggerdbl" unicode="&#x2021;" 
d="M557 1216l-50 351h203l-50 -351l351 50v-203l-351 50l50 -488l-50 -489l351 50v-203l-351 50l50 -351h-203l50 351l-351 -50v203l351 -50l-50 488l50 489l-351 -50v203z" />
    <glyph glyph-name="bullet" unicode="&#x2022;" horiz-adv-x="1024" 
d="M251 993.5q109 107.5 260 107.5q150 1 261 -109q108 -108 108 -260q0 -99 -49.5 -185t-135.5 -135.5t-184 -48.5q-153 -1 -261 106.5t-108 262.5q0 154 109 261.5z" />
    <glyph glyph-name="ellipsis" unicode="&#x2026;" horiz-adv-x="2086" 
d="M286.5 190.5q31.5 31.5 79.5 32.5q47 -1 78.5 -33.5t32.5 -78.5q-3 -110 -110 -111q-48 0 -80.5 31t-32.5 80q1 48 32.5 79.5zM968.5 190.5q33.5 31.5 79.5 32.5q45 -1 77 -34t33 -78q-3 -110 -110 -111q-48 0 -80.5 31t-32.5 80q0 48 33.5 79.5zM1648.5 190
q32.5 31 79.5 33q107 -2 111 -110q-1 -47 -33 -80t-78 -33q-47 0 -79.5 31.5t-32.5 79.5t32.5 79z" />
    <glyph glyph-name="perthousand" unicode="&#x2030;" horiz-adv-x="2655" 
d="M1705 782q84 127 272 128q190 -1 270 -128q62 -97 64 -301q-2 -229 -53 -344q-75 -168 -281 -168q-206 -1 -282 167q-51 113 -53 344q1 210 63 302zM1783 472q1 -163 23 -240q43 -144 170 -143q122 0 164 125q27 81 30 258q-2 144 -29 213q-41 103 -172 105
q-118 -2 -161 -112q-24 -63 -25 -206zM1695 1590h146l-1124 -1621h-146zM636 1447q84 127 272 128q190 -1 270 -128q62 -97 64 -301q-2 -229 -53 -344q-75 -168 -281 -168q-206 -1 -282 167q-51 113 -53 344q1 210 63 302zM714 1137q1 -163 23 -240q43 -144 170 -143
q122 0 164 125q27 81 30 258q-2 144 -29 213q-41 103 -172 105q-118 -2 -161 -112q-24 -63 -25 -206zM2514 782q84 127 272 128q190 -1 270 -128q62 -97 64 -301q-2 -229 -53 -344q-75 -168 -281 -168q-206 -1 -282 167q-51 113 -53 344q1 210 63 302zM2592 472
q1 -163 23 -240q43 -144 170 -143q122 0 164 125q27 81 30 258q-2 144 -29 213q-41 103 -172 105q-118 -2 -161 -112q-24 -63 -25 -206z" />
    <glyph glyph-name="guilsinglleft" unicode="&#x2039;" horiz-adv-x="721" 
d="M-287 1084h175l-335 -443l335 -445h-174l-337 444z" />
    <glyph glyph-name="guilsinglright" unicode="&#x203a;" horiz-adv-x="721" 
d="M287 196h-175l335 443l-335 445h174l337 -444z" />
    <glyph glyph-name="franc" unicode="&#x20a3;" horiz-adv-x="2124" 
d="M1098 1536v-224h-698v-440h690v-224h-690v-648h-224v1536h922zM1520 1302v-278l44 90q25 47 58 91q94 128 222 129q110 -1 189 -49l32 -23l-8 -248l-28 32q-74 75 -182 76q-313 0 -310 -478v-644h-212v1302h195z" />
    <glyph glyph-name="trademark" unicode="&#x2122;" horiz-adv-x="1252" 
d="M516 1388v-89h-152v-518h-89v518h-152v89h393zM584 1388h163l111 -479v0l107 479h163v-607h-89v547h-7l-122 -547h-108l-122 547h-7v-547h-89v607z" />
    <glyph glyph-name="minus" unicode="&#x2212;" horiz-adv-x="2086" 
d="M1654 645v-149h-1231v149h1231z" />
    <glyph glyph-name="periodcentered" unicode="&#x2219;" horiz-adv-x="607" 
d="M308 915q143 -1 141 -126q1 -60 -43 -99q-38 -36 -102 -34q-143 1 -141 128q-1 127 145 131z" />
    <glyph glyph-name="apple" unicode="&#xf000;" horiz-adv-x="1022" 
d="M76 0v1458h870v-1458h-870zM332 256h358v946h-358v-946z" />
    <glyph glyph-name="middot" unicode="&#xf004;" 
d="M538 1210l12 74q7 58 7 149l-2 68l-4 35h177v-9q-2 -109 -34 -239q-9 -39 -23 -78l-12 -34h-128z" />
    <glyph glyph-name="percentpermilslash" horiz-adv-x="2086" 
d="M1277 1590h146l-1124 -1621h-146z" />
    <glyph glyph-name="inferior0" horiz-adv-x="2086" 
d="M1287 782q84 127 272 128q190 -1 270 -128q62 -97 64 -301q-2 -229 -53 -344q-75 -168 -281 -168q-206 -1 -282 167q-51 113 -53 344q1 210 63 302zM1365 472q1 -163 23 -240q43 -144 170 -143q122 0 164 125q27 81 30 258q-2 144 -29 213q-41 103 -172 105
q-118 -2 -161 -112q-24 -63 -25 -206z" />
    <glyph glyph-name="dotlessj" horiz-adv-x="1022" 
d="M76 0v1458h870v-1458h-870zM332 256h358v946h-358v-946z" />
    <glyph glyph-name="inferior4" horiz-adv-x="2086" 
d="M1587 885h265v-619h87v-112h-87v-154h-143v154h-430v145zM1709 799v0l-305 -533v0h305v533z" />
    </font>
</defs>
</svg>
