<svg width="51" height="52" viewBox="0 0 51 52" fill="none" xmlns="http://www.w3.org/2000/svg">
<g id="search-svgrepo-com 1">
<g id="Group">
<path id="Vector" d="M19.9258 8.48145C15.4902 8.48145 11.326 10.8529 9.05858 14.6709C8.85883 15.0066 8.96933 15.4422 9.30578 15.6413C9.41912 15.7093 9.54378 15.7412 9.66703 15.7412C9.90928 15.7412 10.1445 15.6179 10.2769 15.3948C12.2907 12.0047 15.9875 9.89811 19.9258 9.89811C20.3175 9.89811 20.6342 9.58149 20.6342 9.18978C20.6342 8.79807 20.3175 8.48145 19.9258 8.48145Z" fill="black"/>
<path id="Vector_2" d="M8.47652 17.699C8.09614 17.6112 7.71506 17.8464 7.62581 18.2275C7.41402 19.1313 7.29431 19.6916 7.29431 20.6974C7.29431 21.0891 7.61164 21.4058 8.00264 21.4058C8.39435 21.4058 8.71098 21.0891 8.71098 20.6974C8.71098 19.8439 8.8066 19.3983 9.00494 18.5498C9.09419 18.1687 8.8576 17.7883 8.47652 17.699Z" fill="black"/>
<path id="Vector_3" d="M47.1841 41.8867L35.7502 30.4535C35.4719 30.1751 35.1921 29.9775 34.9215 29.8323C36.4182 27.2681 37.2802 24.2896 37.2802 21.112C37.2802 11.5424 29.4956 3.75781 19.9261 3.75781C10.3572 3.75781 2.5719 11.5424 2.5719 21.112C2.5719 30.6816 10.3572 38.4654 19.9261 38.4654C23.3331 38.4654 26.5107 37.4752 29.1939 35.7731C29.3391 36.0132 29.5211 36.2448 29.7393 36.463L41.1732 47.8976C41.9779 48.7001 43.0432 49.1414 44.1794 49.1414C45.3149 49.1414 46.3809 48.7001 47.1849 47.8976C47.9874 47.0951 48.4287 46.0269 48.4287 44.8929C48.428 43.7574 47.9867 42.6906 47.1841 41.8867ZM5.40523 21.1127C5.40523 13.1057 11.9191 6.59185 19.9261 6.59185C27.9338 6.59185 34.4469 13.1057 34.4469 21.1127C34.4469 29.1204 27.9324 35.6328 19.9261 35.6328C11.9191 35.6328 5.40523 29.1204 5.40523 21.1127ZM45.1803 45.8944C44.6441 46.4285 43.7112 46.4285 43.1757 45.8944L31.7425 34.4605C31.6433 34.3621 31.6065 34.2962 31.6015 34.2962C31.6036 34.2657 31.6426 33.9739 32.4522 33.1657C33.2597 32.3561 33.5516 32.3192 33.5608 32.3136C33.5792 32.3192 33.6451 32.3561 33.7471 32.4574L45.1796 43.8906C45.448 44.159 45.5947 44.5146 45.5947 44.8936C45.5939 45.2704 45.4473 45.626 45.1803 45.8944Z" fill="black"/>
</g>
</g>
</svg>
