<svg width="10" height="16" viewBox="0 0 10 16" fill="none" xmlns="http://www.w3.org/2000/svg">
<path fill-rule="evenodd" clip-rule="evenodd" d="M0.492297 9.80271C0.425889 9.8083 0.359368 9.81391 0.293298 9.82172C0.229323 9.82858 0.173339 9.85714 0.12879 9.90398C0.0670947 9.96568 0.0328236 10.0548 0.0442521 10.1439C0.064811 10.2993 0.209904 10.4078 0.364131 10.3906C0.477229 10.3781 0.590323 10.3678 0.703425 10.3598C0.740168 10.358 0.776918 10.3591 0.813068 10.3602C0.821871 10.3605 0.830643 10.3607 0.83937 10.3609C0.887352 10.3655 0.935336 10.3701 0.983316 10.3792C1.07128 10.3987 1.15468 10.4226 1.23922 10.4501C1.38658 10.5015 1.52939 10.5643 1.66991 10.6317C1.81842 10.7071 1.96351 10.7882 2.10403 10.8785C2.31766 11.0213 2.51872 11.1835 2.71408 11.3491L2.71522 11.3503C2.71673 11.3518 2.71873 11.3538 2.72091 11.3553C2.89345 11.5082 3.05051 11.6766 3.20646 11.8461C3.36411 12.0357 3.51948 12.2231 3.65543 12.4253C3.75025 12.5704 3.83593 12.72 3.91247 12.8743C4.029 13.1187 4.1181 13.3724 4.20721 13.6283C4.26662 13.8156 4.32603 14.003 4.38315 14.1903C4.39058 14.2146 4.39809 14.2389 4.4056 14.2633C4.45006 14.4072 4.49484 14.5523 4.52709 14.6998C4.52553 14.7108 4.52398 14.7217 4.52278 14.7322C4.52222 14.7371 4.52174 14.742 4.52138 14.7467C4.51224 14.8838 4.55336 15.0003 4.67675 15.0734C4.76242 15.1225 4.87324 15.1214 4.95893 15.0723C5.04004 15.0277 5.08573 14.95 5.10173 14.8609C5.10972 14.8209 5.11087 14.781 5.10972 14.741C5.11886 14.7136 5.12686 14.685 5.136 14.6576C5.2511 14.357 5.38806 14.0651 5.52443 13.7745L5.53356 13.7551C5.63066 13.562 5.73349 13.3746 5.85001 13.1941C5.94597 13.0525 6.05107 12.9177 6.16303 12.7874C6.40157 12.5191 6.66443 12.2735 6.92744 12.0278C6.98689 11.9723 7.04634 11.9168 7.10552 11.8609C7.342 11.6405 7.57963 11.4211 7.81725 11.2018C7.99318 11.0487 8.1714 10.9025 8.36333 10.7722C8.45244 10.7151 8.54269 10.6637 8.63636 10.6157C8.7072 10.5837 8.77803 10.554 8.85228 10.5277C8.90027 10.514 8.9471 10.5015 8.99623 10.4912C9.03164 10.4855 9.0682 10.4809 9.10589 10.4775C9.11189 10.4775 9.11802 10.4774 9.12422 10.4772C9.13692 10.477 9.14997 10.4767 9.16302 10.4775C9.19043 10.4798 9.21671 10.4832 9.24413 10.4878C9.25199 10.4893 9.25932 10.4914 9.26723 10.4937C9.27081 10.4948 9.27449 10.4958 9.27841 10.4969C9.30125 10.506 9.32524 10.5163 9.34695 10.5266C9.5263 10.6123 9.74451 10.4535 9.73994 10.2616C9.73879 10.1964 9.71938 10.1336 9.67939 10.0822C9.64169 10.0331 9.59028 9.99995 9.53431 9.98281C9.12875 9.80573 8.65464 9.95082 8.28564 10.1507C7.94063 10.3381 7.63332 10.5906 7.34543 10.8556C7.09867 11.0841 6.85306 11.3114 6.60858 11.5422C6.55766 11.5901 6.50644 11.6379 6.45517 11.6857C6.11651 12.0017 5.77557 12.3197 5.50272 12.6938C5.43421 12.7879 5.36966 12.8842 5.30855 12.9825C5.31939 12.8797 5.32979 12.7769 5.33935 12.6743C5.36791 12.367 5.39419 12.0597 5.41704 11.7513C5.43988 11.4063 5.45816 11.0635 5.47416 10.7185C5.50158 10.1405 5.513 9.56011 5.51757 8.98205C5.52186 8.53841 5.52415 8.09464 5.52644 7.65083C5.53087 6.79292 5.53531 5.93484 5.55413 5.07727C5.5587 4.86077 5.56429 4.64528 5.56988 4.42979C5.57267 4.32235 5.57545 4.21492 5.57811 4.10736C5.57996 4.02991 5.58204 3.95222 5.58414 3.87438L5.58415 3.87385C5.58984 3.66254 5.59556 3.45022 5.59639 3.23912L5.59643 3.23548L5.59644 3.23374C5.59871 2.93625 5.60095 2.641 5.59982 2.34461C5.59868 2.19268 5.59754 2.04072 5.59754 1.88993C5.59788 1.82642 5.59772 1.76282 5.59756 1.69915C5.59718 1.54634 5.5968 1.39311 5.60325 1.23989C5.60325 1.23303 5.60439 1.22733 5.60439 1.22047C5.64666 1.11651 5.62724 0.991987 5.54385 0.90859L5.53927 0.904019C5.42503 0.794348 5.25024 0.795495 5.13486 0.904023C5.13371 0.905166 5.13143 0.907446 5.13029 0.906303C5.0606 0.975988 5.04347 1.06853 5.03661 1.16221L5.03661 1.15992C5.03661 1.16449 5.03547 1.1702 5.03547 1.17477L5.03542 1.17559C5.03537 1.17602 5.03529 1.17641 5.03521 1.17681C5.03496 1.17808 5.03471 1.17934 5.03547 1.18163C5.03627 1.18401 5.03595 1.1864 5.03569 1.1884C5.03557 1.18924 5.03547 1.1901 5.03547 1.19077L5.03547 1.1862C5.02226 1.39196 5.02386 1.60005 5.02546 1.80728L5.02546 1.80744L5.02563 1.83025C5.02591 1.86617 5.02617 1.90206 5.02633 1.93791C5.02633 2.02742 5.02724 2.11647 5.02814 2.20537L5.02814 2.20583C5.02927 2.31649 5.0304 2.4269 5.02976 2.53768C5.02633 2.98436 5.02176 3.4299 5.01148 3.87659C5.00657 4.1121 5.00007 4.34743 4.99358 4.5828L4.99356 4.5837C4.98347 4.94972 4.97337 5.31582 4.96921 5.68275C4.96235 6.29052 4.9555 6.89829 4.95436 7.50491L4.95376 7.68161L4.95376 7.68304C4.95177 8.27693 4.94978 8.86998 4.93836 9.46301C4.93151 9.80117 4.92237 10.1393 4.91209 10.4786C4.90567 10.6532 4.89704 10.8274 4.88839 11.0017C4.88319 11.1068 4.87798 11.2119 4.87325 11.3171C4.83898 11.8061 4.80242 12.2951 4.75329 12.7806C4.73589 12.953 4.71794 13.1249 4.6983 13.2966C4.64738 13.1485 4.59274 13.0018 4.53166 12.8583C4.39229 12.5315 4.21978 12.2197 4.00729 11.9341C3.99316 11.9147 3.97922 11.8949 3.96523 11.8751C3.93056 11.8259 3.89556 11.7763 3.8565 11.7307C3.82851 11.697 3.80052 11.6639 3.77253 11.6307C3.74454 11.5976 3.71655 11.5645 3.68856 11.5308C3.58575 11.4097 3.47721 11.2897 3.36525 11.1778C3.20646 11.019 3.03966 10.8705 2.86373 10.7311C2.69694 10.5986 2.53015 10.4683 2.3485 10.3552C2.15886 10.2364 1.96009 10.1313 1.75445 10.0399C1.57852 9.96224 1.39915 9.89027 1.2118 9.84457C1.01644 9.79545 0.815376 9.77489 0.613173 9.79203C0.573007 9.79591 0.532673 9.79931 0.492297 9.80271ZM2.72091 11.3553C2.72202 11.3561 2.72319 11.3567 2.72436 11.3571C2.72207 11.3548 2.71865 11.3514 2.71522 11.3503C2.71712 11.352 2.71902 11.3536 2.72091 11.3553Z" fill="black"/>
</svg>
