<svg width="39" height="38" viewBox="0 0 39 38" fill="none" xmlns="http://www.w3.org/2000/svg">
<path d="M19.6133 16.5029C20.925 16.5029 21.9883 15.4676 21.9883 14.1904C21.9883 12.9133 20.925 11.8779 19.6133 11.8779C18.3016 11.8779 17.2383 12.9133 17.2383 14.1904C17.2383 15.4676 18.3016 16.5029 19.6133 16.5029Z" stroke="white" stroke-linecap="round"/>
<path d="M25.4731 13.0342C25.788 12.503 26.3067 12.1155 26.9152 11.9567C27.5235 11.798 28.1719 11.8811 28.7173 12.1877C29.2628 12.4944 29.6609 12.9995 29.8239 13.5919C29.987 14.1843 29.9017 14.8155 29.5866 15.3467C29.2717 15.8778 28.753 16.2654 28.1445 16.4242C27.5362 16.5829 26.8878 16.4999 26.3423 16.1931C25.7969 15.8864 25.3988 15.3814 25.2358 14.789C25.0727 14.1965 25.158 13.5653 25.4731 13.0342Z" stroke="white"/>
<path d="M9.63972 13.0342C9.95467 12.503 10.4734 12.1155 11.0818 11.9567C11.6903 11.798 12.3385 11.8811 12.884 12.1877C13.4295 12.4944 13.8276 12.9995 13.9906 13.5919C14.1536 14.1843 14.0683 14.8155 13.7534 15.3467C13.4384 15.8778 12.9197 16.2654 12.3112 16.4242C11.7028 16.5829 11.0545 16.4999 10.509 16.1931C9.96353 15.8864 9.5655 15.3814 9.40246 14.789C9.23944 14.1965 9.32478 13.5653 9.63972 13.0342Z" stroke="white"/>
<path d="M22.9383 20.6429L22.478 20.0158L21.635 20.6021L22.4376 21.24L22.9383 20.6429ZM31.4881 24.9821H23.5716V26.5238H31.4881V24.9821ZM32.0861 24.4098C32.1235 24.5614 32.0831 24.6842 31.99 24.7843C31.8884 24.8933 31.7118 24.9821 31.4881 24.9821V26.5238C32.7543 26.5238 33.9755 25.471 33.6259 24.0505L32.0861 24.4098ZM26.7383 20.3571C28.6794 20.3571 29.8883 20.9872 30.6684 21.7628C31.4699 22.5595 31.8801 23.5729 32.0861 24.4098L33.6259 24.0505C33.3824 23.0613 32.8743 21.7526 31.7995 20.6841C30.7034 19.5941 29.0781 18.8154 26.7383 18.8154V20.3571ZM23.3984 21.2701C24.155 20.7437 25.2183 20.3571 26.7383 20.3571V18.8154C24.9244 18.8154 23.5312 19.2832 22.478 20.0158L23.3984 21.2701ZM22.4376 21.24C23.4715 22.062 23.9647 23.3381 24.1908 24.3847L25.7403 24.0676C25.4849 22.8851 24.8856 21.1959 23.4389 20.0458L22.4376 21.24ZM24.1908 24.3847C24.225 24.5435 24.1801 24.6753 24.0806 24.7808C23.9741 24.8938 23.7948 24.9821 23.5716 24.9821V26.5238C24.8443 26.5238 26.044 25.4745 25.7403 24.0676L24.1908 24.3847Z" fill="white"/>
<path d="M16.2884 20.6429L16.789 21.24L17.5916 20.6021L16.7486 20.0156L16.2884 20.6429ZM12.4884 20.3571C14.0083 20.3571 15.0715 20.7437 15.8282 21.2701L16.7486 20.0156C15.6954 19.283 14.3023 18.8154 12.4884 18.8154V20.3571ZM7.14044 24.4098C7.34646 23.5729 7.7568 22.5595 8.55825 21.7628C9.33828 20.9872 10.5472 20.3571 12.4884 20.3571V18.8154C10.1486 18.8154 8.52329 19.5941 7.42705 20.6841C6.35224 21.7526 5.84419 23.0613 5.60071 24.0505L7.14044 24.4098ZM7.73843 24.9821C7.51479 24.9821 7.33823 24.8933 7.23663 24.7843C7.14353 24.6842 7.1031 24.5614 7.14044 24.4098L5.60071 24.0505C5.25103 25.471 6.47234 26.5238 7.73843 26.5238V24.9821ZM15.655 24.9821H7.73843V26.5238H15.655V24.9821ZM15.655 24.9821C15.4318 24.9821 15.2524 24.8938 15.1459 24.7808C15.0465 24.6753 15.0015 24.5435 15.0358 24.3847L13.4863 24.0676C13.1826 25.4745 14.3822 26.5238 15.655 26.5238V24.9821ZM15.0358 24.3847C15.2618 23.3381 15.755 22.062 16.789 21.24L15.7877 20.0458C14.3409 21.1959 13.7416 22.8851 13.4863 24.0676L15.0358 24.3847Z" fill="white"/>
<path d="M19.6131 19.5859C23.3564 19.5859 24.5712 22.3996 24.9654 24.2259C25.1453 25.059 24.4459 25.7526 23.5714 25.7526H15.6548C14.7803 25.7526 14.081 25.059 14.2608 24.2259C14.655 22.3996 15.8698 19.5859 19.6131 19.5859Z" stroke="white" stroke-linecap="round"/>
<path d="M29.9048 33.4609H32.2798C33.5914 33.4609 34.6548 32.4256 34.6548 31.1484V28.8359" stroke="white" stroke-linecap="round"/>
<path d="M29.9048 4.16992H32.2798C33.5914 4.16992 34.6548 5.20526 34.6548 6.48242V8.79492" stroke="white" stroke-linecap="round"/>
<path d="M9.32178 33.4609H6.94678C5.6351 33.4609 4.57178 32.4256 4.57178 31.1484V28.8359" stroke="white" stroke-linecap="round"/>
<path d="M9.32178 4.16992H6.94678C5.6351 4.16992 4.57178 5.20526 4.57178 6.48242V8.79492" stroke="white" stroke-linecap="round"/>
</svg>
