<svg width="1411" height="232" viewBox="0 0 1411 232" fill="none" xmlns="http://www.w3.org/2000/svg">
<g opacity="0.02">
<path d="M45.7603 139.163C49.13 156.653 62.4483 165.479 85.7154 165.639C101.04 165.8 114.518 161.267 126.152 152.04L136.381 143.255V176.952L129.281 182.608C114.117 193.84 96.3861 199.457 76.0876 199.457C39.9034 199.376 16.5561 183.892 6.04583 153.003C2.03428 141.449 0.068613 129.375 0.148844 116.778C0.068613 87.0126 8.41265 65.0293 25.181 50.8284C38.0179 39.9169 54.6659 34.4211 75.1249 34.3409C86.3572 34.2606 96.3861 35.785 105.212 38.914C128.318 47.0174 141.396 66.7944 144.445 98.245C144.766 101.615 144.926 107.592 144.926 116.177L143.602 132.905H44.7975L45.7603 139.163ZM44.7975 99.0874H114.839L114.238 94.2735C112.392 84.6458 106.616 78.468 96.9076 75.7401C91.4519 74.1355 85.5549 73.3332 79.2166 73.3332C60.2821 73.5739 49.0898 80.193 45.6399 93.1904L44.7975 99.0874Z" fill="black"/>
<path d="M214.607 38.553V74.8977L220.022 63.4648C222.83 57.7684 226.12 52.8341 229.891 48.6621C238.235 39.2751 249.387 34.5013 263.347 34.3409C284.127 34.5816 298.208 45.5732 305.589 67.3159L307.635 73.5739L312.81 63.4648C323.48 43.9686 338.443 34.2606 357.699 34.3409C364.759 34.3409 371.459 35.5844 377.797 38.0716C383.493 40.3181 388.307 43.7279 392.238 48.3011C396.17 52.794 398.737 57.4876 399.941 62.3817C400.903 66.3932 401.465 71.2873 401.626 77.064L401.866 92.348V195.244H352.644V111.965L352.404 100.532C351.601 87.7748 345.143 81.4366 333.028 81.5168C319.549 81.4366 312.128 87.8952 310.764 100.893L310.403 111.965V195.244H261.181V111.965L260.94 101.013C260.138 87.9353 253.76 81.4366 241.805 81.5168C228.487 81.5168 221.065 87.9754 219.541 100.893C219.06 104.262 218.859 107.953 218.939 111.965V195.244H169.717V38.553H214.607Z" fill="black"/>
<path d="M429.546 38.553H472.149V74.296C478.487 60.5765 485.186 50.9487 492.247 45.4128C501.313 38.192 512.425 34.5013 525.583 34.3409C544.918 34.5013 559.721 42.3239 569.991 57.8085C578.575 70.7257 582.828 87.3737 582.747 107.752C582.747 130.779 578.656 150.556 570.472 167.083C559.721 188.585 543.835 199.376 522.815 199.457C512.866 199.537 504.161 197.01 496.699 191.875C491.484 188.345 485.507 181.445 478.768 171.175V231.95H429.546V38.553ZM473.473 120.028C473.553 131.26 475.879 139.684 480.453 145.301C486.229 152.521 494.012 156.092 503.8 156.011C523.537 155.851 533.445 142.533 533.526 116.056C533.445 106.027 531.119 98.0444 526.545 92.1073C521.09 84.9667 513.789 81.4366 504.642 81.5168C494.052 81.5168 485.948 85.4481 480.332 93.3108C475.599 100.05 473.312 108.956 473.473 120.028Z" fill="black"/>
<path d="M656.761 0.523438V195.244H607.539V0.523438H656.761Z" fill="black"/>
<path d="M680.469 116.056C680.629 88.6975 687.409 68.1182 700.807 54.3184C708.269 46.536 716.773 41.2809 726.321 38.553C735.868 35.7449 746.138 34.3409 757.13 34.3409C776.867 34.5013 791.669 37.2693 801.538 42.6448C814.856 49.9458 824.043 61.6596 829.097 77.786C832.627 89.0184 834.392 100.893 834.392 113.409C834.392 127.128 832.346 140.045 828.255 152.16C817.825 183.611 794.116 199.376 757.13 199.457C730.734 199.376 711.197 191.634 698.521 176.23C693.226 169.972 689.254 162.831 686.607 154.808C682.435 142.934 680.389 130.017 680.469 116.056ZM725.117 118.824C725.198 133.025 728.006 143.576 733.542 150.475C739.078 157.295 746.98 160.625 757.25 160.464C778.752 160.384 789.583 145.862 789.744 116.899C789.744 110.881 788.901 105.105 787.216 99.5688C786.093 96.1189 784.368 92.7893 782.042 89.58C779.474 86.1301 776.225 83.6429 772.293 82.1185C767.961 80.4337 763.067 79.5511 757.611 79.4709C746.379 79.3907 737.914 83.322 732.218 91.2649C727.404 97.9241 725.037 107.111 725.117 118.824Z" fill="black"/>
<path d="M888.789 38.553L918.394 123.638L945.472 38.553H994.694L930.429 231.95H881.087L899.018 186.941L837.882 38.553H888.789Z" fill="black"/>
<path d="M1045.84 139.163C1049.21 156.653 1062.53 165.479 1085.8 165.639C1101.12 165.8 1114.6 161.267 1126.23 152.04L1136.46 143.255V176.952L1129.36 182.608C1114.2 193.84 1096.47 199.457 1076.17 199.457C1039.98 199.376 1016.64 183.892 1006.13 153.003C1002.12 141.449 1000.15 129.375 1000.23 116.778C1000.15 87.0126 1008.49 65.0293 1025.26 50.8284C1038.1 39.9169 1054.75 34.4211 1075.21 34.3409C1086.44 34.2606 1096.47 35.785 1105.29 38.914C1128.4 47.0174 1141.48 66.7944 1144.53 98.245C1144.85 101.615 1145.01 107.592 1145.01 116.177L1143.68 132.905H1044.88L1045.84 139.163ZM1044.88 99.0874H1114.92L1114.32 94.2735C1112.47 84.6458 1106.7 78.468 1096.99 75.7401C1091.53 74.1355 1085.64 73.3332 1079.3 73.3332C1060.36 73.5739 1049.17 80.193 1045.72 93.1904L1044.88 99.0874Z" fill="black"/>
<path d="M1214.69 38.553V83.5627C1216.05 77.7058 1217.46 72.6914 1218.9 68.5193C1221.79 59.6939 1226.4 52.0318 1232.74 45.5331C1239.96 38.0716 1247.9 34.3409 1256.57 34.3409C1260.98 34.4211 1264.67 35.1031 1267.64 36.3868L1274.62 39.6361L1278.47 41.321L1276.55 95.2363L1272.82 92.1073C1267.76 88.4167 1261.7 86.5312 1254.64 86.451C1242.69 86.5312 1233.5 91.7864 1227.08 102.216C1221.87 110.48 1219.26 121.071 1219.26 133.988V195.244H1170.04V38.553H1214.69Z" fill="black"/>
<path d="M1296.76 145.662L1302.06 148.43C1312.73 153.885 1321.96 157.375 1329.74 158.9C1334.71 160.023 1339.65 160.544 1344.54 160.464C1358.98 160.464 1366.2 156.453 1366.2 148.43C1366.04 144.097 1363.32 141.088 1358.02 139.404C1354.41 138.2 1350.36 137.077 1345.87 136.034L1328.42 131.701C1321.19 129.776 1315.02 127.048 1309.88 123.518C1298.01 115.254 1292.07 102.858 1292.07 86.3307C1292.15 69.0007 1298.45 55.923 1310.97 47.0976C1322.76 38.6733 1337.64 34.4211 1355.61 34.3409C1372.86 34.5816 1386.86 38.0315 1397.61 44.6907L1404.84 49.8656V91.2649L1395.09 86.2103C1385.62 81.7976 1374.59 79.5511 1361.99 79.4709C1344.82 79.7918 1336.4 83.1214 1336.72 89.4597C1336.64 93.3108 1340.05 95.838 1346.95 97.0415C1349.52 97.6031 1355.01 98.9671 1363.44 101.133L1381.61 106.308C1388.51 108.555 1394.21 111.684 1398.7 115.695C1406.72 123.317 1410.77 133.466 1410.85 146.143C1410.69 162.109 1405.4 174.906 1394.97 184.534C1389.99 189.187 1384.1 192.717 1377.28 195.124C1369.09 198.093 1360.51 199.537 1351.52 199.457C1338.28 199.617 1323.88 196.247 1308.32 189.347L1296.76 183.811V145.662Z" fill="black"/>
</g>
</svg>
